{
	"asset":{
		"version":"2.0",
		"generator":"Houdini GLTF 2.0 Exporter"
	},
	"accessors":[
		{
			"bufferView":0,
			"componentType":5123,
			"count":6000,
			"type":"SCALAR",
			"min":[0
			],
			"max":[5999
			]
		},
		{
			"bufferView":1,
			"componentType":5126,
			"count":6000,
			"type":"VEC3",
			"min":[-27.4993,-4.66849899,-37.7975998
			],
			"max":[27.4841003,90.3312988,40.3339005
			]
		},
		{
			"bufferView":2,
			"componentType":5126,
			"count":6000,
			"type":"VEC3",
			"min":[-0.999965072,-0.99977684,-0.999750614
			],
			"max":[0.999753654,0.999413729,0.999952197
			]
		}
	],
	"buffers":[
		{
			"uri":"__0__Czzkm9eQpyky06UU_data.bin",
			"byteLength":156000
		}
	],
	"bufferViews":[
		{
			"buffer":0,
			"byteLength":12000,
			"target":34963
		},
		{
			"buffer":0,
			"byteOffset":12000,
			"byteLength":72000,
			"target":34962
		},
		{
			"buffer":0,
			"byteOffset":84000,
			"byteLength":72000,
			"target":34962
		}
	],
	"nodes":[
		{
			"mesh":0
		}
	],
	"meshes":[
		{
			"primitives":[
				{
					"attributes":{
						"NORMAL":2,
						"POSITION":1
					},
					"indices":0,
					"material":0
				}
			]
		}
	],
	"materials":[
		{
			"pbrMetallicRoughness":{
				"baseColorFactor":[0.0904999971,0.0904999971,0.0904999971,1
				],
				"metallicFactor":0,
				"roughnessFactor":0.65200001
			}
		}
	],
	"scenes":[
		{
			"nodes":[0
			]
		}
	],
	"scene":0
}
