# File exported by Houdini 17.0.416 (www.sidefx.com)
# 80 points
# 246 vertices
# 64 primitives
# Bounds: [-17.6403008, 54.9766006, -39.9144096] to [17.6403008, 70.3535919, -23.5410824]
g 
v 16.2819004 60.8578987 -25.6257
v 16.0944996 63.8319016 -26.2731991
v 14.2515488 55.0046692 -23.5410824
v 16.1633224 66.705368 -26.85145
v 17.6047001 65.9477005 -28.3882008
v 16.4963055 68.9016724 -28.4822483
v 17.2052994 67.7338028 -29.0331001
v 16.3728962 70.0113983 -30.6854515
v 15.7219839 67.768425 -39.9144096
v 17.6403008 67.7987976 -30.6291008
v 16.1832638 70.3535919 -33.4154625
v 15.6525383 69.2129593 -38.9020805
v 15.8143368 70.1238174 -36.3591652
v 14.7261944 58.0103111 -24.4588318
v 15.1919508 60.9159355 -25.362318
v 15.6526957 63.8688965 -26.1556931
v 15.2339449 57.9873734 -24.4908638
v 17.0639935 63.7071762 -26.7355328
v 17.6280556 68.7281494 -33.1536942
v 17.2967854 69.0293884 -36.0404129
v 16.5648499 68.6848755 -38.7940102
v -16.2819004 60.8578987 -25.6257
v -16.0944996 63.8319016 -26.2731991
v -14.2515488 55.0046692 -23.5410824
v -16.1633224 66.705368 -26.85145
v -17.6047001 65.9477005 -28.3882008
v -16.4963055 68.9016724 -28.4822483
v -17.2052994 67.7338028 -29.0331001
v -16.3728962 70.0113983 -30.6854515
v -15.7219839 67.768425 -39.9144096
v -17.6403008 67.7987976 -30.6291008
v -16.1832638 70.3535919 -33.4154625
v -15.6525383 69.2129593 -38.9020805
v -15.8143368 70.1238174 -36.3591652
v -14.7261944 58.0103111 -24.4588318
v -15.1919508 60.9159355 -25.362318
v -15.6526957 63.8688965 -26.1556931
v -15.2339449 57.9873734 -24.4908638
v -17.0639935 63.7071762 -26.7355328
v -17.6280556 68.7281494 -33.1536942
v -17.2967854 69.0293884 -36.0404129
v -16.5648499 68.6848755 -38.7940102
v 16.4112873 68.8612747 -28.520483
v 17.5197506 65.9194183 -28.4400692
v 16.1034184 66.6772003 -26.9347744
v 17.5515385 67.75354 -30.6482182
v 16.2891598 69.9586182 -30.701786
v 15.6269245 63.8487892 -26.2502193
v 16.249754 60.8324356 -25.7179317
v 15.170085 60.8908577 -25.4567242
v 14.2442436 54.9766006 -23.6367836
v 14.7130852 57.9820518 -24.5540352
v 15.2208357 57.9591141 -24.5860672
v 17.0072632 63.6844406 -26.8159351
v 16.1072521 70.2873077 -33.4172783
v 17.5520439 68.6618652 -33.1555099
v 15.750474 70.0480042 -36.3412628
v 17.2329216 68.9535751 -36.0225105
v 15.6000385 69.1422043 -38.8469429
v 16.5123501 68.6141205 -38.7388725
v 15.6820087 67.7145386 -39.8402596
v -16.4112873 68.8612747 -28.520483
v -16.1034184 66.6772003 -26.9347744
v -17.5197506 65.9194183 -28.4400692
v -17.5515385 67.75354 -30.6482182
v -16.2891598 69.9586182 -30.701786
v -15.6269245 63.8487892 -26.2502193
v -15.170085 60.8908577 -25.4567242
v -16.249754 60.8324356 -25.7179317
v -14.2442436 54.9766006 -23.6367836
v -15.2208357 57.9591141 -24.5860672
v -14.7130852 57.9820518 -24.5540352
v -17.0072632 63.6844406 -26.8159351
v -17.5520439 68.6618652 -33.1555099
v -16.1072521 70.2873077 -33.4172783
v -17.2329216 68.9535751 -36.0225105
v -15.750474 70.0480042 -36.3412628
v -16.5123501 68.6141205 -38.7388725
v -15.6000385 69.1422043 -38.8469429
v -15.6820087 67.7145386 -39.8402596
vt 12.3222275 0.194335938 0
vt 12.5587225 0.243804291 0
vt 12.4782925 0.422881395 0
vt 12.3413639 0.322014898 0
vt 12.223712 0.406923443 0
vt 12.1066628 0.216241702 0
vt 12.7962914 0.349555254 0
vt 13.0426693 0.462947875 0
vt 12.9880867 0.544922888 0
vt 12.7747068 0.38351804 0
vt 13.5440798 0.685980916 0
vt 13.2663612 0.610597551 0
vt 13.2894983 0.57238704 0
vt 12.7236223 0.463460475 0
vt 11.9945841 0.463462323 0
vt 11.8825369 0.307353497 0
vt 11.7550373 0.554518521 0
vt 11.6509171 0.427743554 0
vt 11.522234 0.650392652 0
vt 11.465888 0.576456547 0
vt 11.3880854 0.71035862 0
vt 12.2792835 0.446972638 0
vt 12.2602215 0.574662447 0
vt 12.1233501 0.675607502 0
vt 12.0428181 0.496576399 0
vt 12.3779211 0.659503639 0
vt 12.4948626 0.468754977 0
vt 11.8053093 0.602463663 0
vt 11.8269129 0.636413991 0
vt 11.6136265 0.797940731 0
vt 11.5589972 0.715997338 0
vt 11.0577145 0.939317286 0
vt 11.3122301 0.825577736 0
vt 11.3353891 0.863774955 0
vt 11.8780441 0.71632725 0
vt 12.7190399 0.559738278 0
vt 12.6070824 0.715911329 0
vt 12.9507275 0.679995537 0
vt 12.8466806 0.806830227 0
vt 13.1358423 0.828602612 0
vt 13.0795393 0.902571082 0
vt 13.2137213 0.962459743 0
vt 17.3452358 0.000225132782 0
vt 17.0886745 0.000213501655 0
vt 17.0753956 0.00854352675 0
vt 17.3283062 0.00855499227 0
vt 16.8587151 0.000203076619 0
vt 16.8477802 0.0085332077 0
vt 16.6019516 0.000191436367 0
vt 16.5925579 0.00852163695 0
vt 16.3249187 0.000178877221 0
vt 16.3174095 0.00850916374 0
vt 16.0729904 0.000167456179 0
vt 16.0689564 0.00849790033 0
vt 15.908639 0.000160005366 0
vt 15.9068537 0.00849055219 0
vt 15.752696 0.000152935754 0
vt 15.75354 0.0084836008 0
vt 15.4854994 0.000140822522 0
vt 15.489995 0.0084716538 0
vt 15.2135286 0.000128492888 0
vt 15.2200565 0.00845941622 0
vt 14.9630642 0.000117138203 0
vt 14.9717798 0.00844816025 0
vt 14.6924381 0.000104869519 0
vt 14.7045145 0.00843604375 0
vt 14.4283924 9.28990921e-05 0
vt 14.4429083 0.00842418429 0
vt 14.1345434 7.95776577e-05 0
vt 14.1497746 0.00841089524 0
vt 13.8310575 6.58192512e-05 0
vt 13.8467197 0.00839715637 0
vt 13.52561 5.19719833e-05 0
vt 13.5414648 0.00838331785 0
vt 13.2297096 3.85574749e-05 0
vt 13.2456751 0.00836990867 0
vt 12.9431181 2.5564972e-05 0
vt 12.9589472 0.0083569102 0
vt 12.6552305 1.25137549e-05 0
vt 12.6706686 0.00834384095 0
vt 12.379199 0 0
vt 12.3961296 0.00833139475 0
vt 17.3453522 0.0390923172 0
vt 17.0887833 0.0390806831 0
vt 17.0755043 0.0474105142 0
vt 17.3284187 0.0474219806 0
vt 16.812746 0.0390681699 0
vt 16.8009586 0.047398068 0
vt 16.5248508 0.0390551202 0
vt 16.5126743 0.0473850034 0
vt 16.2382526 0.0390421264 0
vt 16.2259407 0.0473720022 0
vt 15.9423456 0.0390287153 0
vt 15.9301424 0.0473585911 0
vt 15.6368914 0.0390148647 0
vt 15.6248798 0.0473447591 0
vt 15.3333979 0.0390011072 0
vt 15.3218193 0.0473310165 0
vt 15.0395432 0.0389877893 0
vt 15.0286779 0.0473177284 0
vt 14.7754917 0.0389758162 0
vt 14.767066 0.0473058708 0
vt 14.504859 0.0389635451 0
vt 14.499795 0.0472937524 0
vt 14.2543888 0.0389521942 0
vt 14.2515125 0.0472824983 0
vt 13.9824123 0.0389398634 0
vt 13.9815664 0.047270257 0
vt 13.715209 0.0389277488 0
vt 13.7180166 0.0472583137 0
vt 13.5592623 0.0389206819 0
vt 13.5646992 0.0472513624 0
vt 13.3949051 0.0389132313 0
vt 13.4025917 0.0472440161 0
vt 13.142971 0.0389018133 0
vt 13.1541348 0.0472327508 0
vt 12.8659315 0.0388892516 0
vt 12.8789797 0.0472202785 0
vt 12.6091623 0.0388776101 0
vt 12.6237507 0.0472087078 0
vt 12.379199 0.0388671868 0
vt 12.3961296 0.047198385 0
vn 0.757161975 -0.00731676584 0.653186321
vn 0.414976597 0.2161396 0.883786261
vn 0.0380425155 0.135512918 0.990044951
vn 0.0427152403 0.429222643 0.902188063
vn 0.987605333 -0.100094363 0.12090037
vn 0.159671977 0.758457839 0.63185966
vn 0.866738677 0.365846127 0.338999331
vn 0.189097539 0.930834174 0.312713832
vn 0.229386121 0.112070613 -0.966861963
vn 0.997431159 -0.0262338333 -0.0666557103
vn 0.0647522807 0.995215237 0.0731681958
vn -0.263842404 0.772539079 -0.577555716
vn -0.0928210542 0.981298327 -0.168635234
vn -0.597560823 0.32693854 0.73214221
vn -0.532640815 0.318494648 0.784126818
vn -0.459888697 0.290688753 0.839048624
vn 0.767320931 -0.0462855399 0.639590681
vn 0.952012956 -0.163392425 0.258794159
vn 0.987616181 -0.063068226 -0.143654972
vn 0.973375916 0.0502590835 -0.223637074
vn 0.90098989 0.00811104011 -0.433764338
vn -0.757161975 -0.00731676584 0.653186321
vn -0.414976597 0.2161396 0.883786261
vn -0.0380425155 0.135512918 0.990044951
vn -0.0427152403 0.429222643 0.902188063
vn -0.987605333 -0.100094363 0.12090037
vn -0.159671977 0.758457839 0.63185966
vn -0.866738677 0.365846127 0.338999331
vn -0.189097539 0.930834174 0.312713802
vn -0.229386091 0.112070583 -0.966862023
vn -0.997431159 -0.0262338333 -0.0666557103
vn -0.0647522807 0.995215237 0.0731681958
vn 0.263842404 0.77253902 -0.577555776
vn 0.0928210542 0.981298327 -0.168635249
vn 0.597560823 0.32693854 0.73214221
vn 0.532640815 0.318494648 0.784126818
vn 0.459888697 0.290688753 0.839048624
vn -0.767320871 -0.0462855436 0.63959074
vn -0.952012897 -0.16339241 0.258794159
vn -0.987616181 -0.063068226 -0.143654972
vn -0.973375797 0.0502590835 -0.223637074
vn -0.90098989 0.00811104011 -0.433764338
vn -0.619121552 0.624878228 0.475621372
vn 0.592207491 -0.604573965 -0.532710493
vn -0.804703355 0.376340091 0.459152251
vn 0.539494872 -0.729933918 -0.419692516
vn -0.575877964 0.770632446 0.272928834
vn -0.93307668 0.224340171 0.281139553
vn 0.898280799 -0.374425858 -0.229993105
vn -0.96724689 0.197340801 0.159656152
vn -0.22340177 -0.9281376 0.297745019
vn -0.979111314 0.182331905 0.0899793506
vn 0.936019957 -0.346554905 -0.0613696277
vn 0.777545154 -0.455624104 -0.433393866
vn -0.658697128 0.747575223 0.0851439834
vn 0.632176757 -0.74319917 -0.21910657
vn -0.766173482 0.639684796 -0.0614935011
vn 0.722780287 -0.677923918 -0.134193689
vn -0.866094708 0.410310149 -0.285526991
vn 0.759745419 -0.644075036 -0.0891877189
vn -0.181775823 -0.6397506 -0.746777475
vn 0.619121552 0.624878228 0.475621372
vn 0.804703355 0.376340091 0.459152251
vn -0.592207491 -0.604573965 -0.532710493
vn -0.539494872 -0.729933918 -0.419692516
vn 0.575877964 0.770632446 0.272928834
vn 0.93307668 0.224340171 0.281139553
vn 0.96724689 0.197340801 0.159656152
vn -0.898280799 -0.374425858 -0.229993105
vn 0.22340177 -0.9281376 0.297745019
vn -0.936019957 -0.346554905 -0.0613696277
vn 0.979111314 0.182331905 0.0899793506
vn -0.777545154 -0.455624104 -0.433393866
vn -0.632176757 -0.74319917 -0.21910657
vn 0.658697128 0.747575223 0.0851439834
vn -0.722780287 -0.677923918 -0.134193689
vn 0.766173482 0.639684796 -0.0614935011
vn -0.759745419 -0.644075036 -0.0891877189
vn 0.866094708 0.410310149 -0.285526991
vn 0.181775823 -0.6397506 -0.746777475
g 
f 6/1/6 4/2/4 5/3/5 7/4/7
f 10/5/10 8/6/8 6/1/6 7/4/7
f 16/7/16 15/8/15 1/9/1 2/10/2
f 4/2/4 16/7/16 2/10/2
f 3/11/3 17/12/17 14/13/14
f 17/12/17 1/9/1 15/8/15 14/13/14
f 1/9/1 18/14/18 2/10/2
f 18/14/18 5/3/5 4/2/4 2/10/2
f 5/3/5 10/5/10 7/4/7
f 10/5/10 19/15/19 11/16/11 8/6/8
f 19/15/19 20/17/20 13/18/13 11/16/11
f 20/17/20 21/19/21 12/20/12 13/18/13
f 21/19/21 9/21/9 12/20/12
f 27/22/27 28/23/28 26/24/26 25/25/25
f 31/26/31 28/23/28 27/22/27 29/27/29
f 37/28/37 23/29/23 22/30/22 36/31/36
f 25/25/25 23/29/23 37/28/37
f 24/32/24 35/33/35 38/34/38
f 38/34/38 35/33/35 36/31/36 22/30/22
f 22/30/22 23/29/23 39/35/39
f 39/35/39 23/29/23 25/25/25 26/24/26
f 26/24/26 28/23/28 31/26/31
f 31/26/31 29/27/29 32/36/32 40/37/40
f 40/37/40 32/36/32 34/38/34 41/39/41
f 41/39/41 34/38/34 33/40/33 42/41/42
f 42/41/42 33/40/33 30/42/30
f 4/43/4 6/44/6 43/45/43 45/46/45
f 6/44/6 8/47/8 47/48/47 43/45/43
f 8/47/8 11/49/11 55/50/55 47/48/47
f 11/49/11 13/51/13 57/52/57 55/50/55
f 13/51/13 12/53/12 59/54/59 57/52/57
f 12/53/12 9/55/9 61/56/61 59/54/59
f 9/55/9 21/57/21 60/58/60 61/56/61
f 21/57/21 20/59/20 58/60/58 60/58/60
f 20/59/20 19/61/19 56/62/56 58/60/58
f 19/61/19 10/63/10 46/64/46 56/62/56
f 10/63/10 5/65/5 44/66/44 46/64/46
f 5/65/5 18/67/18 54/68/54 44/66/44
f 18/67/18 1/69/1 49/70/49 54/68/54
f 1/69/1 17/71/17 53/72/53 49/70/49
f 17/71/17 3/73/3 51/74/51 53/72/53
f 3/73/3 14/75/14 52/76/52 51/74/51
f 14/75/14 15/77/15 50/78/50 52/76/52
f 15/77/15 16/79/16 48/80/48 50/78/50
f 16/79/16 4/81/4 45/82/45 48/80/48
f 27/83/27 25/84/25 63/85/63 62/86/62
f 25/84/25 37/87/37 67/88/67 63/85/63
f 37/87/37 36/89/36 68/90/68 67/88/67
f 36/89/36 35/91/35 72/92/72 68/90/68
f 35/91/35 24/93/24 70/94/70 72/92/72
f 24/93/24 38/95/38 71/96/71 70/94/70
f 38/95/38 22/97/22 69/98/69 71/96/71
f 22/97/22 39/99/39 73/100/73 69/98/69
f 39/99/39 26/101/26 64/102/64 73/100/73
f 26/101/26 31/103/31 65/104/65 64/102/64
f 31/103/31 40/105/40 74/106/74 65/104/65
f 40/105/40 41/107/41 76/108/76 74/106/74
f 41/107/41 42/109/42 78/110/78 76/108/76
f 42/109/42 30/111/30 80/112/80 78/110/78
f 30/111/30 33/113/33 79/114/79 80/112/80
f 33/113/33 34/115/34 77/116/77 79/114/79
f 34/115/34 32/117/32 75/118/75 77/116/77
f 32/117/32 29/119/29 66/120/66 75/118/75
f 29/119/29 27/121/27 62/122/62 66/120/66
