# File exported by Houdini 17.0.416 (www.sidefx.com)
# 80 points
# 246 vertices
# 64 primitives
# Bounds: [-17.6403008, 53.77285, -40.049511] to [17.6403008, 70.3623505, -23.2616806]
g 
v 16.2819004 60.8578987 -25.6257
v 16.0944996 63.8319016 -26.2731991
v 14.2515488 55.0046692 -23.5410824
v 16.1633224 66.705368 -26.85145
v 17.6047001 65.9477005 -28.3882008
v 16.4963055 68.9016724 -28.4822483
v 17.2052994 67.7338028 -29.0331001
v 16.3728962 70.0113983 -30.6854515
v 15.7219839 67.768425 -39.9144096
v 17.6403008 67.7987976 -30.6291008
v 16.1832638 70.3535919 -33.4154625
v 15.6525383 69.2129593 -38.9020805
v 15.8143368 70.1238174 -36.3591652
v 14.7261944 58.0103111 -24.4588318
v 15.1919508 60.9159355 -25.362318
v 15.6526957 63.8688965 -26.1556931
v 15.2339449 57.9873734 -24.4908638
v 17.0639935 63.7071762 -26.7355328
v 17.6280556 68.7281494 -33.1536942
v 17.2967854 69.0293884 -36.0404129
v 16.5648499 68.6848755 -38.7940102
v -16.2819004 60.8578987 -25.6257
v -16.0944996 63.8319016 -26.2731991
v -14.2515488 55.0046692 -23.5410824
v -16.1633224 66.705368 -26.85145
v -17.6047001 65.9477005 -28.3882008
v -16.4963055 68.9016724 -28.4822483
v -17.2052994 67.7338028 -29.0331001
v -16.3728962 70.0113983 -30.6854515
v -15.7219839 67.768425 -39.9144096
v -17.6403008 67.7987976 -30.6291008
v -16.1832638 70.3535919 -33.4154625
v -15.6525383 69.2129593 -38.9020805
v -15.8143368 70.1238174 -36.3591652
v -14.7261944 58.0103111 -24.4588318
v -15.1919508 60.9159355 -25.362318
v -15.6526957 63.8688965 -26.1556931
v -15.2339449 57.9873734 -24.4908638
v -17.0639935 63.7071762 -26.7355328
v -17.6280556 68.7281494 -33.1536942
v -17.2967854 69.0293884 -36.0404129
v -16.5648499 68.6848755 -38.7940102
v 16.3538094 68.9266586 -28.4687595
v 17.5764465 65.8559265 -28.4957561
v 16.0416031 66.8958435 -26.9599533
v 17.6023502 67.6774673 -30.6926327
v 16.2327595 70.0377121 -30.6740265
v 15.531518 63.8696671 -26.2286968
v 16.341156 60.7953758 -25.7396622
v 15.0735188 60.9107666 -25.439661
v 13.9552946 53.77285 -23.2616806
v 14.6148796 57.9999657 -24.5458298
v 15.3151569 57.9255562 -24.5890617
v 17.0867767 63.6395035 -26.8588505
v 16.0409374 70.3623505 -33.4088097
v 17.6173706 68.5886078 -33.1769714
v 15.6721525 70.1111298 -36.3473091
v 17.3072567 68.8879623 -36.0363808
v 15.509223 69.181282 -38.8733292
v 16.5929794 68.5536041 -38.7393799
v 15.6048212 67.4838562 -40.049511
v -16.3538094 68.9266586 -28.4687595
v -16.0416031 66.8958435 -26.9599533
v -17.5764465 65.8559265 -28.4957561
v -17.6023502 67.6774673 -30.6926327
v -16.2327595 70.0377121 -30.6740265
v -15.531518 63.8696671 -26.2286968
v -15.0735188 60.9107666 -25.439661
v -16.341156 60.7953758 -25.7396622
v -13.9552956 53.7728539 -23.2616806
v -15.3151569 57.9255562 -24.5890617
v -14.6148796 57.9999657 -24.5458298
v -17.0867767 63.6395035 -26.8588505
v -17.6173706 68.5886078 -33.1769714
v -16.0409374 70.3623505 -33.4088097
v -17.3072567 68.8879623 -36.0363808
v -15.6721525 70.1111298 -36.3473091
v -16.5929794 68.5536041 -38.7393799
v -15.509223 69.181282 -38.8733292
v -15.6048212 67.4838562 -40.049511
vt 17.6720047 0.116601557 0
vt 17.8705406 0.158130199 0
vt 17.8030205 0.308465362 0
vt 17.6880684 0.223787993 0
vt 17.5893002 0.295068651 0
vt 17.4910374 0.134991452 0
vt 18.0699806 0.246908098 0
vt 18.2768135 0.342101127 0
vt 18.2309933 0.41091916 0
vt 18.0518608 0.275419861 0
vt 18.6977482 0.529337227 0
vt 18.4646034 0.466052949 0
vt 18.4840279 0.433975279 0
vt 18.0089741 0.342531472 0
vt 17.3969479 0.342533022 0
vt 17.3028851 0.211479738 0
vt 17.1958485 0.418974608 0
vt 17.1084385 0.312547147 0
vt 17.0004101 0.499460906 0
vt 16.9531078 0.437391579 0
vt 16.8877926 0.549802303 0
vt 17.9132996 0.408105463 0
vt 17.897295 0.51530093 0
vt 17.7823944 0.60004431 0
vt 17.7147865 0.449747801 0
vt 17.9961052 0.586525142 0
vt 18.0942764 0.426391691 0
vt 17.515398 0.538640022 0
vt 17.5335331 0.567141414 0
vt 17.3544807 0.702742994 0
vt 17.3086185 0.633951545 0
vt 16.8877926 0.821428478 0
vt 17.1014576 0.725944221 0
vt 17.1209011 0.758010805 0
vt 17.576458 0.634228468 0
vt 18.2824745 0.502772093 0
vt 18.1884861 0.633879304 0
vt 18.4769764 0.603728056 0
vt 18.3896294 0.710205734 0
vt 18.6323795 0.728483617 0
vt 18.5851116 0.790580094 0
vt 18.6977596 0.840856612 0
vt 17.5307598 0.000220596034 0
vt 17.2736359 0.000209199308 0
vt 17.4287052 0.0085649183 0
vt 17.6665535 0.00857545994 0
vt 17.0431747 0.000198984329 0
vt 17.1980286 0.00855469331 0
vt 16.7858486 0.000187578655 0
vt 16.9404469 0.00854327623 0
vt 16.5082111 0.000175272595 0
vt 16.6631279 0.0085309837 0
vt 16.2557316 0.000164081692 0
vt 16.4115162 0.00851983111 0
vt 16.0910206 0.00015678104 0
vt 16.218626 0.00851128157 0
vt 15.9347353 0.000149853877 0
vt 16.0358524 0.00850318093 0
vt 15.666954 0.000137984738 0
vt 15.7731342 0.0084915366 0
vt 15.3943892 0.000125903563 0
vt 15.5033245 0.00847957749 0
vt 15.1433773 0.0001147777 0
vt 15.256422 0.00846863352 0
vt 14.872159 0.000102756247 0
vt 14.9901361 0.00845683087 0
vt 14.6075354 9.10270464e-05 0
vt 14.7290201 0.00844525732 0
vt 14.3130445 7.7974044e-05 0
vt 14.4354801 0.00843224581 0
vt 14.0088949 6.44929023e-05 0
vt 14.131525 0.0084187733 0
vt 13.7027807 5.09246784e-05 0
vt 13.7054157 0.00839988701 0
vt 13.4062319 3.77804936e-05 0
vt 13.2886391 0.0083814133 0
vt 13.1190138 2.50498106e-05 0
vt 13.0013266 0.00836867839 0
vt 12.8304958 1.22615911e-05 0
vt 12.7124214 0.00835587271 0
vt 12.5538607 0 0
vt 12.418066 0.00834282581 0
vt 17.5308762 0.0390877798 0
vt 17.2737465 0.0390763804 0
vt 17.4288197 0.0474319048 0
vt 17.6666718 0.0474424474 0
vt 16.9971046 0.0390641205 0
vt 17.1344566 0.0474188589 0
vt 16.7085819 0.0390513353 0
vt 16.8455448 0.0474060513 0
vt 16.4213562 0.0390386023 0
vt 16.5582275 0.0473933183 0
vt 16.1248016 0.0390254557 0
vt 16.1414413 0.0473748483 0
vt 15.8186808 0.0390118919 0
vt 15.7153234 0.0473559573 0
vt 15.5145226 0.0389984064 0
vt 15.4113598 0.0473424867 0
vt 15.2200251 0.0389853567 0
vt 15.1178131 0.047329478 0
vt 14.9553957 0.0389736295 0
vt 14.8566914 0.0473179035 0
vt 14.6841707 0.0389616042 0
vt 14.5903997 0.0473061018 0
vt 14.4331532 0.0389504805 0
vt 14.3434916 0.0472951569 0
vt 14.1605825 0.0389383994 0
vt 14.0736761 0.0472831987 0
vt 13.8927956 0.0389265306 0
vt 13.8109512 0.0472715497 0
vt 13.7365065 0.0389196053 0
vt 13.6281729 0.0472634509 0
vt 13.5717926 0.0389123 0
vt 13.4352789 0.0472549051 0
vt 13.3193064 0.038901113 0
vt 13.1836624 0.0472437516 0
vt 13.0416613 0.0388888046 0
vt 12.9063377 0.0472314581 0
vt 12.7843304 0.0388774015 0
vt 12.6487484 0.0472200438 0
vt 12.5538645 0.0388671868 0
vt 12.418066 0.0472098179 0
vn 0.572429836 0.12092343 0.810988009
vn 0.414976597 0.2161396 0.883786261
vn 0.0786568373 0.234487101 0.968931854
vn 0.336020261 0.357875019 0.871215224
vn 0.943434536 0.107133947 0.313773096
vn 0.561113238 0.619765222 0.548673987
vn 0.866738677 0.365846127 0.338999331
vn 0.54784745 0.801764488 0.238823846
vn 0.361709416 0.402760446 -0.840803444
vn 0.973362744 0.213868827 0.082613267
vn 0.438842386 0.898373187 0.018521551
vn 0.130434349 0.785590649 -0.604842365
vn 0.287272483 0.935220659 -0.20697093
vn -0.250833273 0.325336099 0.911723077
vn -0.173732638 0.304147959 0.936648786
vn -0.11239627 0.263966918 0.957960606
vn 0.496049762 0.128197268 0.858778179
vn 0.827466488 0.0501847081 0.559267998
vn 0.94898963 0.313167691 -0.0366711393
vn 0.879411876 0.432415575 -0.199126616
vn 0.771227658 0.370107889 -0.517907381
vn -0.572429836 0.12092343 0.810987949
vn -0.414976597 0.2161396 0.883786261
vn -0.0786572099 0.234487265 0.968931735
vn -0.336020261 0.357875019 0.871215224
vn -0.943434536 0.107133947 0.313773096
vn -0.561113238 0.619765222 0.548673987
vn -0.866738677 0.365846127 0.338999331
vn -0.54784745 0.801764488 0.238823861
vn -0.361709416 0.402760446 -0.840803444
vn -0.973362744 0.213868812 0.082613267
vn -0.438842356 0.898373127 0.018521551
vn -0.130434349 0.785590649 -0.604842365
vn -0.287272483 0.935220599 -0.20697093
vn 0.250832647 0.325336099 0.911723316
vn 0.173732638 0.304147899 0.936648786
vn 0.112396285 0.263966948 0.957960665
vn -0.496049494 0.128197461 0.858778358
vn -0.827466488 0.0501847118 0.559267998
vn -0.94898963 0.313167691 -0.0366711393
vn -0.879411876 0.432415575 -0.199126646
vn -0.771227658 0.370107919 -0.517907441
vn 0.192468524 0.746871054 0.636505663
vn 0.984006703 -0.176082224 -0.0269407947
vn -0.130072311 0.451993674 0.882486761
vn 0.97920537 -0.175987124 -0.100921586
vn 0.16610679 0.94674021 0.275846869
vn -0.467027456 0.289675742 0.835447967
vn 0.873993218 -0.0832656771 0.478750944
vn -0.538601398 0.310092032 0.783422947
vn 0.0824936703 0.201622486 0.975983083
vn -0.594820082 0.320094973 0.737379313
vn 0.779217541 -0.0469718985 0.624991059
vn 0.963130951 -0.132880569 0.233926371
vn 0.0556756854 0.998318255 0.0161532611
vn 0.993238389 -0.0787885189 -0.0852631554
vn -0.105769642 0.973209918 -0.204145208
vn 0.981200218 0.0431264639 -0.188112274
vn -0.269728929 0.766100585 -0.583383501
vn 0.906694889 0.00629937043 -0.421740234
vn 0.330624044 0.306137532 -0.892730474
vn -0.192468524 0.746871054 0.636505663
vn 0.130072311 0.451993674 0.882486761
vn -0.984006703 -0.176082224 -0.0269407947
vn -0.97920537 -0.175987124 -0.100921586
vn -0.16610679 0.94674021 0.275846869
vn 0.467027456 0.289675742 0.835447967
vn 0.538601398 0.310092032 0.783422947
vn -0.873993218 -0.0832656771 0.478750944
vn -0.0824943036 0.201622844 0.975983024
vn -0.779217124 -0.0469715409 0.624991536
vn 0.594819069 0.320095122 0.737380147
vn -0.963130951 -0.132880569 0.233926371
vn -0.993238389 -0.0787885189 -0.0852631554
vn -0.0556756854 0.998318255 0.0161532611
vn -0.981200218 0.0431264639 -0.188112274
vn 0.105769642 0.973209918 -0.204145208
vn -0.906694889 0.00629937043 -0.421740234
vn 0.269728929 0.766100585 -0.583383501
vn -0.330624044 0.306137532 -0.892730474
g 
f 6/1/6 4/2/4 5/3/5 7/4/7
f 10/5/10 8/6/8 6/1/6 7/4/7
f 16/7/16 15/8/15 1/9/1 2/10/2
f 4/2/4 16/7/16 2/10/2
f 3/11/3 17/12/17 14/13/14
f 17/12/17 1/9/1 15/8/15 14/13/14
f 1/9/1 18/14/18 2/10/2
f 18/14/18 5/3/5 4/2/4 2/10/2
f 5/3/5 10/5/10 7/4/7
f 10/5/10 19/15/19 11/16/11 8/6/8
f 19/15/19 20/17/20 13/18/13 11/16/11
f 20/17/20 21/19/21 12/20/12 13/18/13
f 21/19/21 9/21/9 12/20/12
f 27/22/27 28/23/28 26/24/26 25/25/25
f 31/26/31 28/23/28 27/22/27 29/27/29
f 37/28/37 23/29/23 22/30/22 36/31/36
f 25/25/25 23/29/23 37/28/37
f 24/32/24 35/33/35 38/34/38
f 38/34/38 35/33/35 36/31/36 22/30/22
f 22/30/22 23/29/23 39/35/39
f 39/35/39 23/29/23 25/25/25 26/24/26
f 26/24/26 28/23/28 31/26/31
f 31/26/31 29/27/29 32/36/32 40/37/40
f 40/37/40 32/36/32 34/38/34 41/39/41
f 41/39/41 34/38/34 33/40/33 42/41/42
f 42/41/42 33/40/33 30/42/30
f 4/43/4 6/44/6 43/45/43 45/46/45
f 6/44/6 8/47/8 47/48/47 43/45/43
f 8/47/8 11/49/11 55/50/55 47/48/47
f 11/49/11 13/51/13 57/52/57 55/50/55
f 13/51/13 12/53/12 59/54/59 57/52/57
f 12/53/12 9/55/9 61/56/61 59/54/59
f 9/55/9 21/57/21 60/58/60 61/56/61
f 21/57/21 20/59/20 58/60/58 60/58/60
f 20/59/20 19/61/19 56/62/56 58/60/58
f 19/61/19 10/63/10 46/64/46 56/62/56
f 10/63/10 5/65/5 44/66/44 46/64/46
f 5/65/5 18/67/18 54/68/54 44/66/44
f 18/67/18 1/69/1 49/70/49 54/68/54
f 1/69/1 17/71/17 53/72/53 49/70/49
f 17/71/17 3/73/3 51/74/51 53/72/53
f 3/73/3 14/75/14 52/76/52 51/74/51
f 14/75/14 15/77/15 50/78/50 52/76/52
f 15/77/15 16/79/16 48/80/48 50/78/50
f 16/79/16 4/81/4 45/82/45 48/80/48
f 27/83/27 25/84/25 63/85/63 62/86/62
f 25/84/25 37/87/37 67/88/67 63/85/63
f 37/87/37 36/89/36 68/90/68 67/88/67
f 36/89/36 35/91/35 72/92/72 68/90/68
f 35/91/35 24/93/24 70/94/70 72/92/72
f 24/93/24 38/95/38 71/96/71 70/94/70
f 38/95/38 22/97/22 69/98/69 71/96/71
f 22/97/22 39/99/39 73/100/73 69/98/69
f 39/99/39 26/101/26 64/102/64 73/100/73
f 26/101/26 31/103/31 65/104/65 64/102/64
f 31/103/31 40/105/40 74/106/74 65/104/65
f 40/105/40 41/107/41 76/108/76 74/106/74
f 41/107/41 42/109/42 78/110/78 76/108/76
f 42/109/42 30/111/30 80/112/80 78/110/78
f 30/111/30 33/113/33 79/114/79 80/112/80
f 33/113/33 34/115/34 77/116/77 79/114/79
f 34/115/34 32/117/32 75/118/75 77/116/77
f 32/117/32 29/119/29 66/120/66 75/118/75
f 29/119/29 27/121/27 62/122/62 66/120/66
