# File exported by Houdini 17.0.416 (www.sidefx.com)
# 168 points
# 554 vertices
# 138 primitives
# Bounds: [-12.0615129, 83.3784714, -54.2575645] to [12.4015131, 102.891472, -43.063755]
g 
v 9.82760811 92.0755692 -53.3745003
v 10.4227238 87.374176 -54.209549
v 9.27543736 96.4509735 -52.6418991
v 11.8506718 83.3784714 -50.0751228
v 8.88648796 100.296669 -51.7825356
v 11.080761 91.2391739 -43.0656776
v 11.6312218 86.9369736 -43.4374199
v 8.61474419 102.891472 -48.1165009
v 10.4172926 95.4951706 -43.2556877
v 12.0262203 84.6485977 -44.8825989
v 9.3219986 100.333916 -44.3821983
v 12.0808563 83.6701431 -47.6970062
v 8.76084709 102.48909 -46.1616783
v 8.73283577 102.519348 -49.8135681
v 11.4068689 83.5556259 -52.5449829
v 10.5903378 86.0486221 -54.2575645
v 9.95411015 97.8290558 -43.5714989
v 9.05919743 98.3184204 -52.2602768
v 11.3521223 89.1183167 -43.063755
v 10.1165981 89.7579193 -53.7861557
v 9.03083038 101.48719 -45.0284042
v 12.0628176 84.0200806 -46.2656441
v 8.78759384 101.649002 -50.9008865
v 10.884634 84.4836273 -53.9238014
v 9.58900356 94.1258698 -53.031208
v 10.7698622 93.2335205 -43.1547165
v 11.8873892 83.4249954 -49.6957817
v -9.48760796 92.0755692 -53.3745003
v -10.0827236 87.374176 -54.209549
v -8.9354372 96.4509735 -52.6418991
v -11.5106716 83.3784714 -50.0751228
v -8.54648781 100.296669 -51.7825356
v -10.7407608 91.2391739 -43.0656776
v -11.2912216 86.9369736 -43.4374199
v -8.27474403 102.891472 -48.1165009
v -10.0772924 95.4951706 -43.2556877
v -11.6862202 84.6485977 -44.8825989
v -8.98199844 100.333916 -44.3821983
v -11.7408562 83.6701431 -47.6970062
v -8.42084694 102.48909 -46.1616783
v -8.39283562 102.519348 -49.8135681
v -11.0668688 83.5556259 -52.5449829
v -10.2503376 86.0486221 -54.2575645
v -9.61410999 97.8290558 -43.5714989
v -8.71919727 98.3184204 -52.2602768
v -11.0121222 89.1183167 -43.063755
v -9.77659798 89.7579193 -53.7861557
v -8.69083023 101.48719 -45.0284042
v -11.7228174 84.0200806 -46.2656441
v -8.44759369 101.649002 -50.9008865
v -10.5446339 84.4836273 -53.9238014
v -9.24900341 94.1258698 -53.031208
v -10.429862 93.2335205 -43.1547165
v -11.547389 83.4249954 -49.6957817
v 12.0992336 87.0431061 -47.0944481
v 12.1867638 87.0943832 -49.0995674
v 12.1763735 83.7536469 -50.1192398
v 12.2155771 83.7921143 -49.7460556
v 12.4015131 84.0424805 -47.76548
v 11.7428131 83.931221 -52.5093193
v 11.5761414 87.2563477 -51.5394173
v 9.86524868 99.4351501 -48.2255859
v 10.7183208 96.1204834 -48.306282
v 10.7465343 95.8632355 -46.5324097
v 10.0282431 98.7310028 -46.5209579
v 9.17545319 102.25872 -46.3323746
v 9.03908062 102.621254 -48.127224
v 9.65766144 98.9384308 -50.1408081
v 10.2414312 96.3047256 -50.3751945
v 9.15081215 102.268829 -49.6897583
v 11.8409719 89.4325562 -48.7780991
v 11.7935686 89.3038406 -46.7704506
v 11.4880142 91.5013046 -46.5333633
v 11.5074968 91.6860275 -48.4618645
v 11.2602835 89.6115265 -51.1657486
v 10.9540367 91.8949661 -50.8028641
v 10.1171513 98.3816299 -45.1748619
v 10.3041086 97.8301163 -43.9231567
v 9.6827507 100.278877 -44.7182579
v 9.41460991 101.354729 -45.3171234
v 10.7481003 95.7356644 -44.8116455
v 10.76752 95.5287781 -43.6048012
v 11.7440357 89.2444305 -44.9707756
v 11.7058649 89.1934662 -43.4030991
v 11.4368362 91.2824783 -43.4069862
v 11.4527473 91.4109955 -44.7703171
v 12.0432816 87.0180893 -45.1765785
v 11.9674063 87.1105652 -43.7638321
v 12.37008 84.3925552 -46.3795929
v 12.3352251 84.9699173 -45.1218071
v 9.53196049 98.6400757 -51.2909927
v 9.19801998 101.468399 -50.6830101
v 9.29129887 100.207306 -51.5060883
v 9.47299099 98.3033676 -51.9878845
v 9.9519062 96.4170151 -51.6229973
v 9.70737457 96.462204 -52.3999214
v 10.9069357 89.7197189 -52.6089134
v 10.6164112 92.0226822 -52.2202225
v 10.2725325 92.093071 -53.158493
v 10.5625925 89.7759933 -53.5724602
v 11.20751 87.3422699 -53.0071945
v 10.8656549 87.4056168 -53.988636
v 11.2829905 84.7452698 -53.7263565
v 11.0242481 86.1370316 -54.0320892
v 11.1410599 93.5422516 -46.5884209
v 11.1384506 93.7597885 -48.3903351
v 10.6206598 93.958168 -50.6029434
v 10.3059311 94.0800018 -51.9385223
v 10.0292759 94.14431 -52.8058586
v 11.12325 93.4341888 -44.7901306
v 11.1242714 93.2739105 -43.4978714
v -11.7592335 87.0431061 -47.0944481
v -12.0615129 84.0424805 -47.76548
v -11.875577 83.7921143 -49.7460556
v -11.8363733 83.7536469 -50.1192398
v -11.8467636 87.0943832 -49.0995674
v -11.402813 83.931221 -52.5093193
v -11.2361412 87.2563477 -51.5394173
v -9.52524853 99.4351501 -48.2255859
v -9.68824291 98.7310028 -46.5209579
v -10.4065342 95.8632355 -46.5324097
v -10.3783207 96.1204834 -48.306282
v -8.69908047 102.621254 -48.127224
v -8.83545303 102.25872 -46.3323746
v -9.31766129 98.9384308 -50.1408081
v -9.90143108 96.3047256 -50.3751945
v -8.810812 102.268829 -49.6897583
v -11.5009718 89.4325562 -48.7780991
v -11.4535685 89.3038406 -46.7704506
v -11.1674967 91.6860275 -48.4618645
v -11.1480141 91.5013046 -46.5333633
v -10.9202833 89.6115265 -51.1657486
v -10.6140366 91.8949661 -50.8028641
v -9.77715111 98.3816299 -45.1748619
v -9.07460976 101.354729 -45.3171234
v -9.34275055 100.278877 -44.7182579
v -9.96410847 97.8301163 -43.9231567
v -10.4081001 95.7356644 -44.8116455
v -10.4275198 95.5287781 -43.6048012
v -11.4040356 89.2444305 -44.9707756
v -11.1127472 91.4109955 -44.7703171
v -11.0968361 91.2824783 -43.4069862
v -11.3658648 89.1934662 -43.4030991
v -11.7032814 87.0180893 -45.1765785
v -11.6274061 87.1105652 -43.7638321
v -12.0300798 84.3925552 -46.3795929
v -11.995225 84.9699173 -45.1218071
v -9.19196033 98.6400757 -51.2909927
v -8.85801983 101.468399 -50.6830101
v -9.13299084 98.3033676 -51.9878845
v -8.95129871 100.207306 -51.5060883
v -9.61190605 96.4170151 -51.6229973
v -9.36737442 96.462204 -52.3999214
v -10.5669355 89.7197189 -52.6089134
v -10.2764111 92.0226822 -52.2202225
v -10.2225924 89.7759933 -53.5724602
v -9.93253231 92.093071 -53.158493
v -10.8675098 87.3422699 -53.0071945
v -10.5256548 87.4056168 -53.988636
v -10.9429903 84.7452698 -53.7263565
v -10.684248 86.1370316 -54.0320892
v -10.8010597 93.5422516 -46.5884209
v -10.7984505 93.7597885 -48.3903351
v -10.2806597 93.958168 -50.6029434
v -9.96593094 94.0800018 -51.9385223
v -9.68927574 94.14431 -52.8058586
v -10.7832499 93.4341888 -44.7901306
v -10.7842712 93.2739105 -43.4978714
vt -0.132355094 -0.464006424 0
vt -0.105057001 -0.693250656 0
vt 0.0400130749 -0.725168228 0
vt 0.0674500465 -0.730473995 0
vt 0.0172142982 -0.476925373 0
vt 0.244291306 -0.731530666 0
vt 0.204693317 -0.481388092 0
vt 0.0624904633 0.481663227 0
vt -0.0730288029 0.44270134 0
vt -0.0994768143 0.218053818 0
vt 0.0377857685 0.221643448 0
vt 0.0838620663 0.729643822 0
vt -0.0525727272 0.716334343 0
vt 0.206581831 0.431968689 0
vt 0.201403141 0.224510193 0
vt 0.194836378 0.687035561 0
vt 0.0138647556 -0.297802448 0
vt -0.138620019 -0.290112972 0
vt 0.00993919373 -0.122755527 0
vt -0.138375163 -0.119818211 0
vt 0.200952291 -0.300215244 0
vt 0.19517827 -0.121664047 0
vt -0.178592563 0.428189278 0
vt -0.137533903 0.657309055 0
vt -0.194108844 0.580014706 0
vt -0.27915585 0.396051884 0
vt -0.232000828 0.224325657 0
vt -0.326465368 0.219882011 0
vt -0.275277138 -0.280107975 0
vt -0.273809433 -0.11177063 0
vt -0.379629254 -0.110714436 0
vt -0.394783974 -0.272343636 0
vt -0.276082516 -0.451154709 0
vt -0.38119483 -0.433588028 0
vt -0.205907106 -0.65747118 0
vt -0.294770002 -0.604665756 0
vt 0.29341054 0.402954102 0
vt 0.264407396 0.621453285 0
vt 0.34535265 0.373529434 0
vt 0.319494247 0.521160603 0
vt 0.3006742 0.226750851 0
vt 0.36395216 0.227228642 0
vt 0.314762354 -0.303275108 0
vt 0.308189392 -0.121617317 0
vt 0.39366889 -0.306238651 0
vt 0.386229515 -0.121640682 0
vt 0.317587852 -0.487410545 0
vt 0.395370722 -0.491388321 0
vt 0.342612505 -0.683089256 0
vt 0.382786751 -0.585550785 0
vt -0.116409063 0.0377836227 0
vt 0.0231382847 0.0382862091 0
vt 0.198801041 0.0402383804 0
vt 0.305493355 0.0415558815 0
vt 0.376587868 0.0421586037 0
vt -0.255343676 0.0456027985 0
vt -0.356698275 0.0447216034 0
vt 0.132334471 -0.464454412 0
vt -0.0172445774 -0.476926684 0
vt -0.0698238611 -0.731019258 0
vt -0.0424226522 -0.726202011 0
vt 0.103856802 -0.693330765 0
vt -0.24712944 -0.730209827 0
vt -0.20523572 -0.480080485 0
vt -0.057166934 0.482070446 0
vt -0.0340310335 0.221974611 0
vt 0.103136778 0.21756649 0
vt 0.0780620575 0.442245483 0
vt 0.059343338 0.715802908 0
vt -0.0769666433 0.730201006 0
vt -0.201513648 0.433273315 0
vt -0.197558045 0.225811958 0
vt -0.188256741 0.68838644 0
vt -0.013071537 -0.297544956 0
vt 0.139441967 -0.290608168 0
vt 0.140093565 -0.120354652 0
vt -0.00819063187 -0.122477055 0
vt -0.200281978 -0.298812389 0
vt -0.19340229 -0.120286822 0
vt 0.18346858 0.427088737 0
vt 0.28374505 0.394361258 0
vt 0.199934483 0.578680992 0
vt 0.143892765 0.656257153 0
vt 0.235605717 0.223058224 0
vt 0.329965353 0.218068838 0
vt 0.276092768 -0.281270027 0
vt 0.395554304 -0.274112225 0
vt 0.381241083 -0.112537384 0
vt 0.275496483 -0.113032579 0
vt 0.27606988 -0.452181816 0
vt 0.381179571 -0.435138941 0
vt 0.204956532 -0.657942533 0
vt 0.293984413 -0.605573177 0
vt -0.288503706 0.404764175 0
vt -0.258216143 0.623154402 0
vt -0.313892961 0.523150682 0
vt -0.340615153 0.375637531 0
vt -0.296776116 0.228629351 0
vt -0.360023141 0.229468822 0
vt -0.314139247 -0.301111221 0
vt -0.306389093 -0.119536042 0
vt -0.384399414 -0.119063258 0
vt -0.393056273 -0.303533792 0
vt -0.318275571 -0.485234499 0
vt -0.396116257 -0.488626957 0
vt -0.344914556 -0.680897355 0
vt -0.384297609 -0.582853317 0
vt 0.119015217 0.0373001099 0
vt -0.0204641819 0.0386033058 0
vt -0.196051002 0.0415940285 0
vt -0.302692533 0.0435523987 0
vt -0.373747706 0.0445845127 0
vt 0.25790453 0.0443348885 0
vt 0.359170437 0.0428915024 0
vt 0.0640923977 -0.767377853 0
vt 0.0350644588 -0.762207031 0
vt -0.11440742 -0.729330063 0
vt -0.221508741 -0.691990852 0
vt -0.322470784 -0.630659103 0
vt -0.417846799 -0.443915367 0
vt -0.432990313 -0.272313595 0
vt -0.417906523 -0.106189251 0
vt -0.394958615 0.0508022308 0
vt -0.364155769 0.227988243 0
vt -0.315205812 0.408959389 0
vt -0.227032185 0.599568844 0
vt -0.164052963 0.684706688 0
vt -0.0653574467 0.752324581 0
vt 0.0882055759 0.767463684 0
vt 0.213926792 0.719892502 0
vt 0.294203281 0.645428181 0
vt 0.355357409 0.534129143 0
vt 0.383340836 0.379057407 0
vt 0.402401924 0.23083353 0
vt 0.415303707 0.0445575714 0
vt 0.42495513 -0.119829655 0
vt 0.432019949 -0.30532074 0
vt 0.432990313 -0.4938097 0
vt 0.418711662 -0.595515728 0
vt 0.369817734 -0.70927 0
vt 0.252497911 -0.767464161 0
vt 0.113221884 -0.729639053 0
vt -0.0376698971 -0.763344169 0
vt -0.0669447184 -0.768131256 0
vt -0.255959749 -0.766091347 0
vt -0.372880936 -0.706372023 0
vt -0.42025888 -0.592419624 0
vt -0.433733821 -0.490747452 0
vt -0.431385279 -0.302352428 0
vt -0.423092484 -0.117003322 0
vt -0.412426353 0.0472183228 0
vt -0.398430526 0.233314514 0
vt -0.378580987 0.381386757 0
vt -0.349656343 0.536455631 0
vt -0.287817359 0.647426128 0
vt -0.206943512 0.721513033 0
vt -0.0807517767 0.768131256 0
vt 0.0726928711 0.751573801 0
vt 0.170660496 0.683340788 0
vt 0.232955694 0.597969055 0
vt 0.319848299 0.407011509 0
vt 0.36766839 0.22594142 0
vt 0.397429466 0.0487554073 0
vt 0.41951251 -0.108212233 0
vt 0.433733702 -0.274298668 0
vt 0.417721272 -0.445749044 0
vt 0.321274996 -0.631925821 0
vt 0.220390558 -0.692483664 0
vn 0.424339026 0.204811037 -0.882036865
vn 0.43208465 0.148720041 -0.889485955
vn 0.481022447 0.224815786 -0.847393274
vn 0.746643722 -0.658945441 -0.0911818817
vn 0.568288088 0.366062164 -0.736917317
vn 0.680339515 0.113639764 0.724033237
vn 0.726965845 -0.149461284 0.670210421
vn 0.536782384 0.843681574 -0.00812864024
vn 0.685119987 0.186160728 0.70424062
vn 0.783372521 -0.420330226 0.457875401
vn 0.644951105 0.436470419 0.627321064
vn 0.765589595 -0.637252867 0.0882120356
vn 0.560998619 0.770539999 0.302569836
vn 0.554735482 0.762587726 -0.332759112
vn 0.700606287 -0.596767068 -0.391177684
vn 0.464973152 -0.00536150206 -0.885308504
vn 0.672494173 0.305377632 0.674163282
vn 0.533601344 0.242830232 -0.810125291
vn 0.692341387 0.027299257 0.721053541
vn 0.418982267 0.209714323 -0.883444369
vn 0.60532105 0.588561475 0.53589344
vn 0.78031534 -0.58510077 0.220828027
vn 0.563714325 0.575388432 -0.592582703
vn 0.577040136 -0.316559285 -0.752871096
vn 0.443458945 0.205251202 -0.872477055
vn 0.682446539 0.139669493 0.717467308
vn 0.751388371 -0.65984422 0.00461557321
vn -0.4243384 0.204810798 -0.882037103
vn -0.43208459 0.148719653 -0.889485955
vn -0.481022745 0.22481595 -0.847392976
vn -0.746642888 -0.658946335 -0.0911817327
vn -0.568288088 0.366061896 -0.736917496
vn -0.680339515 0.113639601 0.724033237
vn -0.726965427 -0.149460897 0.670210898
vn -0.536780655 0.843682647 -0.00812856294
vn -0.685120761 0.186160922 0.704239726
vn -0.783372641 -0.420329899 0.45787546
vn -0.644951582 0.436471015 0.627320051
vn -0.765589356 -0.637253165 0.0882122144
vn -0.560997665 0.770541251 0.302568674
vn -0.554735124 0.762588203 -0.332758397
vn -0.700604498 -0.596768677 -0.39117834
vn -0.464973688 -0.0053616371 -0.885308266
vn -0.672494888 0.305377722 0.674162507
vn -0.533601344 0.24283047 -0.810125291
vn -0.69234097 0.0272992365 0.721054018
vn -0.418981671 0.209713936 -0.883444726
vn -0.605321229 0.588562548 0.535892129
vn -0.780314803 -0.585101426 0.220828205
vn -0.563714683 0.575387836 -0.59258306
vn -0.577039063 -0.316560447 -0.752871513
vn -0.443459302 0.205251157 -0.872476876
vn -0.68244648 0.139669329 0.717467248
vn -0.751388013 -0.659844577 0.00461558439
vn 0.994212747 0.106649771 0.0129195713
vn 0.987970173 0.111577429 -0.107076585
vn 0.940844655 -0.318897545 -0.114523903
vn 0.892425895 -0.451102644 -0.00907430146
vn 0.952898562 -0.300291151 0.0425388813
vn 0.903928161 -0.26489979 -0.335770577
vn 0.964422882 0.132023513 -0.229037657
vn 0.970027089 0.234499872 -0.0636974052
vn 0.973497629 0.209856391 -0.0908985958
vn 0.978671908 0.205002785 0.0132328933
vn 0.970768869 0.24001576 0.000661432277
vn 0.826867044 0.540359497 0.155892447
vn 0.817138135 0.575773001 -0.0277632158
vn 0.968730271 0.205114558 -0.139606059
vn 0.959434271 0.202941686 -0.195704952
vn 0.831013083 0.506269336 -0.230452985
vn 0.983578682 0.153802335 -0.094434768
vn 0.990472138 0.133978739 0.0318568312
vn 0.988070667 0.151798114 0.0259552225
vn 0.981729746 0.16498287 -0.0948024914
vn 0.960969925 0.164986938 -0.222072765
vn 0.961739838 0.170315564 -0.214590579
vn 0.973320246 0.22903876 -0.0137444725
vn 0.891940057 0.285749614 0.350414157
vn 0.809039295 0.394710124 0.435499072
vn 0.853208482 0.442723274 0.275737941
vn 0.981000781 0.193916976 0.00580321113
vn 0.902408719 0.201666892 0.38077423
vn 0.991167247 0.129025325 0.0306615885
vn 0.910006702 0.0833184645 0.40613541
vn 0.903604269 0.139388755 0.405055732
vn 0.988918245 0.146254033 0.0255018193
vn 0.991863251 0.125357643 0.0221985616
vn 0.928253353 -0.00840783585 0.371853471
vn 0.96019423 -0.249637634 0.125332072
vn 0.912945867 -0.245866582 0.325698525
vn 0.970689952 0.176342577 -0.163291603
vn 0.837941229 0.388640195 -0.383162349
vn 0.760926485 0.310250789 -0.569855452
vn 0.814858854 0.22155939 -0.535646021
vn 0.954206824 0.193058535 -0.228511959
vn 0.770150483 0.223032862 -0.59759897
vn 0.947361529 0.167639166 -0.27276957
vn 0.948540092 0.171017483 -0.266504616
vn 0.733585179 0.204524413 -0.648091435
vn 0.729849279 0.207023695 -0.65150696
vn 0.950052321 0.141642407 -0.278097004
vn 0.742344439 0.159312442 -0.650802851
vn 0.826649725 -0.104149222 -0.552994609
vn 0.669858098 0.0383826792 -0.741496325
vn 0.985644102 0.167748243 0.0191363823
vn 0.979843259 0.17527099 -0.0958497003
vn 0.961770713 0.176019549 -0.209795594
vn 0.950936794 0.176325858 -0.254220992
vn 0.746690929 0.206770062 -0.632217348
vn 0.986675084 0.161546201 0.0193654504
vn 0.902941346 0.161390588 0.398309052
vn -0.994212747 0.10664957 0.0129196029
vn -0.952898562 -0.3002913 0.0425388925
vn -0.892425716 -0.451103032 -0.00907435268
vn -0.940844417 -0.318898141 -0.11452391
vn -0.987970173 0.111577265 -0.107076623
vn -0.903927684 -0.264900684 -0.335771084
vn -0.964422882 0.132023647 -0.229037687
vn -0.97002697 0.234499916 -0.063697651
vn -0.970768869 0.24001579 0.000661478378
vn -0.978671908 0.205002859 0.0132330498
vn -0.973497629 0.209856436 -0.0908985734
vn -0.81713748 0.575773835 -0.0277633965
vn -0.826866746 0.540360153 0.155891865
vn -0.968730211 0.205114529 -0.139606044
vn -0.95943433 0.202941701 -0.195704743
vn -0.831013024 0.506269634 -0.230452597
vn -0.983578682 0.153802201 -0.0944347009
vn -0.990472138 0.13397862 0.0318569764
vn -0.981729627 0.1649829 -0.0948023796
vn -0.988070667 0.151798263 0.0259552989
vn -0.960969925 0.164986819 -0.22207275
vn -0.961739957 0.170315295 -0.21459052
vn -0.973320305 0.229038864 -0.0137438998
vn -0.853208482 0.442723632 0.275737554
vn -0.809039414 0.394710302 0.435498506
vn -0.891940117 0.285749674 0.350414008
vn -0.981000721 0.19391723 0.00580361439
vn -0.902408838 0.2016671 0.380773932
vn -0.991167188 0.129025117 0.0306615084
vn -0.988918304 0.146253988 0.0255016033
vn -0.903604388 0.139388606 0.405055612
vn -0.910006583 0.0833183378 0.406135589
vn -0.991863251 0.125357673 0.0221986398
vn -0.928253353 -0.00840760674 0.371853888
vn -0.960194111 -0.249637872 0.125332236
vn -0.912945867 -0.245866269 0.325698644
vn -0.970690072 0.176342621 -0.163291499
vn -0.837941289 0.388639867 -0.383162439
vn -0.814858735 0.221559599 -0.535645902
vn -0.760926485 0.31025064 -0.569855511
vn -0.954206944 0.193058491 -0.228511706
vn -0.770150602 0.223032907 -0.597598732
vn -0.947361529 0.167639107 -0.272769541
vn -0.948540151 0.171017468 -0.266504526
vn -0.729848981 0.207023457 -0.651507139
vn -0.733585 0.204524502 -0.648091733
vn -0.950052381 0.141642421 -0.278097212
vn -0.74234426 0.159312099 -0.65080297
vn -0.826649427 -0.104149833 -0.552995205
vn -0.669858277 0.0383826159 -0.741496205
vn -0.985644162 0.167748243 0.0191365499
vn -0.979843318 0.175270975 -0.0958495736
vn -0.961770773 0.176019564 -0.209795371
vn -0.950936913 0.176325858 -0.254220724
vn -0.746691048 0.206770003 -0.632217169
vn -0.986675143 0.161546275 0.0193655174
vn -0.902941287 0.161390483 0.398309082
g 
f 55/1/55 59/2/59 58/3/58 57/4/57 56/5/56
f 60/6/60 61/7/61 56/5/56 57/4/57
f 62/8/62 65/9/65 64/10/64 63/11/63
f 65/9/65 62/8/62 67/12/67 66/13/66
f 68/14/68 62/8/62 63/11/63 69/15/69
f 62/8/62 68/14/68 70/16/70 67/12/67
f 71/17/71 72/18/72 55/1/55 56/5/56
f 72/18/72 71/17/71 74/19/74 73/20/73
f 75/21/75 71/17/71 56/5/56 61/7/61
f 71/17/71 75/21/75 76/22/76 74/19/74
f 77/23/77 80/24/80 79/25/79 78/26/78
f 80/24/80 77/23/77 65/9/65 66/13/66
f 81/27/81 77/23/77 78/26/78 82/28/82
f 77/23/77 81/27/81 64/10/64 65/9/65
f 83/29/83 86/30/86 85/31/85 84/32/84
f 86/30/86 83/29/83 72/18/72 73/20/73
f 87/33/87 83/29/83 84/32/84 88/34/88
f 83/29/83 87/33/87 55/1/55 72/18/72
f 89/35/89 87/33/87 88/34/88 90/36/90
f 87/33/87 89/35/89 59/2/59 55/1/55
f 91/37/91 92/38/92 70/16/70 68/14/68
f 92/38/92 91/37/91 94/39/94 93/40/93
f 95/41/95 91/37/91 68/14/68 69/15/69
f 91/37/91 95/41/95 96/42/96 94/39/94
f 97/43/97 98/44/98 76/22/76 75/21/75
f 98/44/98 97/43/97 100/45/100 99/46/99
f 101/47/101 97/43/97 75/21/75 61/7/61
f 97/43/97 101/47/101 102/48/102 100/45/100
f 103/49/103 101/47/101 61/7/61 60/6/60
f 101/47/101 103/49/103 104/50/104 102/48/102
f 105/51/105 106/52/106 63/11/63 64/10/64
f 106/52/106 105/51/105 73/20/73 74/19/74
f 106/52/106 107/53/107 69/15/69 63/11/63
f 107/53/107 106/52/106 74/19/74 76/22/76
f 107/53/107 108/54/108 95/41/95 69/15/69
f 108/54/108 107/53/107 76/22/76 98/44/98
f 108/54/108 109/55/109 96/42/96 95/41/95
f 109/55/109 108/54/108 98/44/98 99/46/99
f 110/56/110 105/51/105 64/10/64 81/27/81
f 105/51/105 110/56/110 86/30/86 73/20/73
f 111/57/111 110/56/110 81/27/81 82/28/82
f 110/56/110 111/57/111 85/31/85 86/30/86
f 112/58/112 116/59/116 115/60/115 114/61/114 113/62/113
f 117/63/117 115/60/115 116/59/116 118/64/118
f 119/65/119 122/66/122 121/67/121 120/68/120
f 120/68/120 124/69/124 123/70/123 119/65/119
f 125/71/125 126/72/126 122/66/122 119/65/119
f 119/65/119 123/70/123 127/73/127 125/71/125
f 128/74/128 116/59/116 112/58/112 129/75/129
f 129/75/129 131/76/131 130/77/130 128/74/128
f 132/78/132 118/64/118 116/59/116 128/74/128
f 128/74/128 130/77/130 133/79/133 132/78/132
f 134/80/134 137/81/137 136/82/136 135/83/135
f 135/83/135 124/69/124 120/68/120 134/80/134
f 138/84/138 139/85/139 137/81/137 134/80/134
f 134/80/134 120/68/120 121/67/121 138/84/138
f 140/86/140 143/87/143 142/88/142 141/89/141
f 141/89/141 131/76/131 129/75/129 140/86/140
f 144/90/144 145/91/145 143/87/143 140/86/140
f 140/86/140 129/75/129 112/58/112 144/90/144
f 146/92/146 147/93/147 145/91/145 144/90/144
f 144/90/144 112/58/112 113/62/113 146/92/146
f 148/94/148 125/71/125 127/73/127 149/95/149
f 149/95/149 151/96/151 150/97/150 148/94/148
f 152/98/152 126/72/126 125/71/125 148/94/148
f 148/94/148 150/97/150 153/99/153 152/98/152
f 154/100/154 132/78/132 133/79/133 155/101/155
f 155/101/155 157/102/157 156/103/156 154/100/154
f 158/104/158 118/64/118 132/78/132 154/100/154
f 154/100/154 156/103/156 159/105/159 158/104/158
f 160/106/160 117/63/117 118/64/118 158/104/158
f 158/104/158 159/105/159 161/107/161 160/106/160
f 162/108/162 121/67/121 122/66/122 163/109/163
f 163/109/163 130/77/130 131/76/131 162/108/162
f 163/109/163 122/66/122 126/72/126 164/110/164
f 164/110/164 133/79/133 130/77/130 163/109/163
f 164/110/164 126/72/126 152/98/152 165/111/165
f 165/111/165 155/101/155 133/79/133 164/110/164
f 165/111/165 152/98/152 153/99/153 166/112/166
f 166/112/166 157/102/157 155/101/155 165/111/165
f 167/113/167 138/84/138 121/67/121 162/108/162
f 162/108/162 131/76/131 141/89/141 167/113/167
f 168/114/168 139/85/139 138/84/138 167/113/167
f 167/113/167 141/89/141 142/88/142 168/114/168
f 4/115/4 57/4/57 58/3/58 27/116/27
f 27/116/27 58/3/58 59/2/59 12/117/12
f 12/117/12 59/2/59 89/35/89 22/118/22
f 22/118/22 89/35/89 90/36/90 10/119/10
f 10/119/10 90/36/90 88/34/88 7/120/7
f 7/120/7 88/34/88 84/32/84 19/121/19
f 19/121/19 84/32/84 85/31/85 6/122/6
f 6/122/6 85/31/85 111/57/111 26/123/26
f 26/123/26 111/57/111 82/28/82 9/124/9
f 9/124/9 82/28/82 78/26/78 17/125/17
f 17/125/17 78/26/78 79/25/79 11/126/11
f 11/126/11 79/25/79 80/24/80 21/127/21
f 21/127/21 80/24/80 66/13/66 13/128/13
f 13/128/13 66/13/66 67/12/67 8/129/8
f 8/129/8 67/12/67 70/16/70 14/130/14
f 14/130/14 70/16/70 92/38/92 23/131/23
f 23/131/23 92/38/92 93/40/93 5/132/5
f 5/132/5 93/40/93 94/39/94 18/133/18
f 18/133/18 94/39/94 96/42/96 3/134/3
f 3/134/3 96/42/96 109/55/109 25/135/25
f 25/135/25 109/55/109 99/46/99 1/136/1
f 1/136/1 99/46/99 100/45/100 20/137/20
f 20/137/20 100/45/100 102/48/102 2/138/2
f 2/138/2 102/48/102 104/50/104 16/139/16
f 16/139/16 104/50/104 103/49/103 24/140/24
f 24/140/24 103/49/103 60/6/60 15/141/15
f 15/141/15 60/6/60 57/4/57 4/115/4
f 39/142/39 113/62/113 114/61/114 54/143/54
f 54/143/54 114/61/114 115/60/115 31/144/31
f 31/144/31 115/60/115 117/63/117 42/145/42
f 42/145/42 117/63/117 160/106/160 51/146/51
f 51/146/51 160/106/160 161/107/161 43/147/43
f 43/147/43 161/107/161 159/105/159 29/148/29
f 29/148/29 159/105/159 156/103/156 47/149/47
f 47/149/47 156/103/156 157/102/157 28/150/28
f 28/150/28 157/102/157 166/112/166 52/151/52
f 52/151/52 166/112/166 153/99/153 30/152/30
f 30/152/30 153/99/153 150/97/150 45/153/45
f 45/153/45 150/97/150 151/96/151 32/154/32
f 32/154/32 151/96/151 149/95/149 50/155/50
f 50/155/50 149/95/149 127/73/127 41/156/41
f 41/156/41 127/73/127 123/70/123 35/157/35
f 35/157/35 123/70/123 124/69/124 40/158/40
f 40/158/40 124/69/124 135/83/135 48/159/48
f 48/159/48 135/83/135 136/82/136 38/160/38
f 38/160/38 136/82/136 137/81/137 44/161/44
f 44/161/44 137/81/137 139/85/139 36/162/36
f 36/162/36 139/85/139 168/114/168 53/163/53
f 53/163/53 168/114/168 142/88/142 33/164/33
f 33/164/33 142/88/142 143/87/143 46/165/46
f 46/165/46 143/87/143 145/91/145 34/166/34
f 34/166/34 145/91/145 147/93/147 37/167/37
f 37/167/37 147/93/147 146/92/146 49/168/49
f 49/168/49 146/92/146 113/62/113 39/142/39
