{
	"asset":{
		"version":"2.0",
		"generator":"Houdini GLTF 2.0 Exporter"
	},
	"accessors":[
		{
			"bufferView":0,
			"componentType":5125,
			"count":85320,
			"type":"SCALAR",
			"min":[0
			],
			"max":[14237
			]
		},
		{
			"bufferView":1,
			"componentType":5126,
			"count":14238,
			"type":"VEC3",
			"min":[-1,-1,-0.999840915
			],
			"max":[1,1,0.999840915
			]
		},
		{
			"bufferView":2,
			"componentType":5126,
			"count":14238,
			"type":"VEC3",
			"min":[-137.800003,15.3481951,-241.751526
			],
			"max":[25,106.946945,-14.2238255
			]
		},
		{
			"bufferView":3,
			"componentType":5126,
			"count":14238,
			"type":"SCALAR",
			"min":[0
			],
			"max":[0
			]
		},
		{
			"bufferView":4,
			"componentType":5126,
			"count":14238,
			"type":"VEC3",
			"min":[1,1,1
			],
			"max":[1,1,1
			]
		},
		{
			"bufferView":5,
			"componentType":5125,
			"count":35208,
			"type":"SCALAR",
			"min":[0
			],
			"max":[6335
			]
		},
		{
			"bufferView":6,
			"componentType":5126,
			"count":6336,
			"type":"VEC3",
			"min":[-1,-0.999460578,-0.993675888
			],
			"max":[1,0.999460578,0.999655485
			]
		},
		{
			"bufferView":7,
			"componentType":5126,
			"count":6336,
			"type":"VEC3",
			"min":[-142.269791,6.95548344,-231.586426
			],
			"max":[29.4697857,36.6154709,28.8597164
			]
		},
		{
			"bufferView":8,
			"componentType":5126,
			"count":6336,
			"type":"SCALAR",
			"min":[0
			],
			"max":[1
			]
		},
		{
			"bufferView":9,
			"componentType":5126,
			"count":6336,
			"type":"VEC3",
			"min":[1,1,1
			],
			"max":[1,1,1
			]
		},
		{
			"bufferView":10,
			"componentType":5123,
			"count":26676,
			"type":"SCALAR",
			"min":[0
			],
			"max":[4463
			]
		},
		{
			"bufferView":11,
			"componentType":5126,
			"count":4464,
			"type":"VEC3",
			"min":[-1,-0.999028623,-0.999028623
			],
			"max":[1,0.998972476,0.999651015
			]
		},
		{
			"bufferView":12,
			"componentType":5126,
			"count":4464,
			"type":"VEC3",
			"min":[-136.300003,-4.29749489,-218.962738
			],
			"max":[23.5,13.7483788,25.5614452
			]
		},
		{
			"bufferView":13,
			"componentType":5126,
			"count":4464,
			"type":"SCALAR",
			"min":[0
			],
			"max":[0
			]
		},
		{
			"bufferView":14,
			"componentType":5126,
			"count":4464,
			"type":"VEC3",
			"min":[1,1,1
			],
			"max":[1,1,1
			]
		},
		{
			"bufferView":15,
			"componentType":5123,
			"count":2556,
			"type":"SCALAR",
			"min":[0
			],
			"max":[475
			]
		},
		{
			"bufferView":16,
			"componentType":5126,
			"count":476,
			"type":"VEC3",
			"min":[-0.869066715,-0.998244643,-0.947559714
			],
			"max":[0.999999583,1,0.947559595
			]
		},
		{
			"bufferView":17,
			"componentType":5126,
			"count":476,
			"type":"VEC3",
			"min":[-177.237366,-71.815834,-296.856201
			],
			"max":[126.808434,268.521881,93.2799683
			]
		},
		{
			"bufferView":18,
			"componentType":5126,
			"count":476,
			"type":"SCALAR",
			"min":[0
			],
			"max":[0
			]
		},
		{
			"bufferView":19,
			"componentType":5126,
			"count":476,
			"type":"VEC3",
			"min":[0,1,1
			],
			"max":[1,1,1
			]
		},
		{
			"bufferView":20,
			"componentType":5123,
			"count":29808,
			"type":"SCALAR",
			"min":[0
			],
			"max":[5435
			]
		},
		{
			"bufferView":21,
			"componentType":5126,
			"count":5436,
			"type":"VEC3",
			"min":[-1,-0.999460578,-0.993675888
			],
			"max":[1,0.999460578,0.999655485
			]
		},
		{
			"bufferView":22,
			"componentType":5126,
			"count":5436,
			"type":"VEC3",
			"min":[-144.603912,6.95548344,-231.586426
			],
			"max":[31.8039169,36.6154709,28.8597164
			]
		},
		{
			"bufferView":23,
			"componentType":5126,
			"count":5436,
			"type":"SCALAR",
			"min":[0
			],
			"max":[1
			]
		},
		{
			"bufferView":24,
			"componentType":5126,
			"count":5436,
			"type":"VEC3",
			"min":[1,1,1
			],
			"max":[1,1,1
			]
		}
	],
	"buffers":[
		{
			"uri":"__0__5tyPESPtwnB67Kqz_data.bin",
			"byteLength":1838192,
			"name":"main_buffer"
		}
	],
	"bufferViews":[
		{
			"buffer":0,
			"byteLength":341280,
			"target":34963
		},
		{
			"buffer":0,
			"byteOffset":341280,
			"byteLength":170856,
			"target":34962
		},
		{
			"buffer":0,
			"byteOffset":512136,
			"byteLength":170856,
			"target":34962
		},
		{
			"buffer":0,
			"byteOffset":682992,
			"byteLength":56952,
			"target":34962
		},
		{
			"buffer":0,
			"byteOffset":739944,
			"byteLength":170856,
			"target":34962
		},
		{
			"buffer":0,
			"byteOffset":910800,
			"byteLength":140832,
			"target":34963
		},
		{
			"buffer":0,
			"byteOffset":1051632,
			"byteLength":76032,
			"target":34962
		},
		{
			"buffer":0,
			"byteOffset":1127664,
			"byteLength":76032,
			"target":34962
		},
		{
			"buffer":0,
			"byteOffset":1203696,
			"byteLength":25344,
			"target":34962
		},
		{
			"buffer":0,
			"byteOffset":1229040,
			"byteLength":76032,
			"target":34962
		},
		{
			"buffer":0,
			"byteOffset":1305072,
			"byteLength":53352,
			"target":34963
		},
		{
			"buffer":0,
			"byteOffset":1358424,
			"byteLength":53568,
			"target":34962
		},
		{
			"buffer":0,
			"byteOffset":1411992,
			"byteLength":53568,
			"target":34962
		},
		{
			"buffer":0,
			"byteOffset":1465560,
			"byteLength":17856,
			"target":34962
		},
		{
			"buffer":0,
			"byteOffset":1483416,
			"byteLength":53568,
			"target":34962
		},
		{
			"buffer":0,
			"byteOffset":1536984,
			"byteLength":5112,
			"target":34963
		},
		{
			"buffer":0,
			"byteOffset":1542096,
			"byteLength":5712,
			"target":34962
		},
		{
			"buffer":0,
			"byteOffset":1547808,
			"byteLength":5712,
			"target":34962
		},
		{
			"buffer":0,
			"byteOffset":1553520,
			"byteLength":1904,
			"target":34962
		},
		{
			"buffer":0,
			"byteOffset":1555424,
			"byteLength":5712,
			"target":34962
		},
		{
			"buffer":0,
			"byteOffset":1561136,
			"byteLength":59616,
			"target":34963
		},
		{
			"buffer":0,
			"byteOffset":1620752,
			"byteLength":65232,
			"target":34962
		},
		{
			"buffer":0,
			"byteOffset":1685984,
			"byteLength":65232,
			"target":34962
		},
		{
			"buffer":0,
			"byteOffset":1751216,
			"byteLength":21744,
			"target":34962
		},
		{
			"buffer":0,
			"byteOffset":1772960,
			"byteLength":65232,
			"target":34962
		}
	],
	"nodes":[
		{
			"name":"geo1",
			"mesh":0
		}
	],
	"meshes":[
		{
			"primitives":[
				{
					"attributes":{
						"COLOR_0":4,
						"NORMAL":1,
						"_vis_falloff":3,
						"POSITION":2
					},
					"indices":0,
					"material":0
				},
				{
					"attributes":{
						"COLOR_0":9,
						"NORMAL":6,
						"_vis_falloff":8,
						"POSITION":7
					},
					"indices":5,
					"material":1
				},
				{
					"attributes":{
						"COLOR_0":14,
						"NORMAL":11,
						"_vis_falloff":13,
						"POSITION":12
					},
					"indices":10,
					"material":2
				},
				{
					"attributes":{
						"COLOR_0":19,
						"NORMAL":16,
						"_vis_falloff":18,
						"POSITION":17
					},
					"indices":15,
					"material":3
				},
				{
					"attributes":{
						"COLOR_0":24,
						"NORMAL":21,
						"_vis_falloff":23,
						"POSITION":22
					},
					"indices":20
				}
			]
		}
	],
	"materials":[
		{
			"name":"Material_1",
			"pbrMetallicRoughness":{
				"baseColorFactor":[0.125,0.125,0.125,1
				],
				"metallicFactor":0,
				"roughnessFactor":0.65200001
			}
		},
		{
			"name":"Material_1",
			"pbrMetallicRoughness":{
				"baseColorFactor":[0.185000002,0.185000002,0.185000002,1
				],
				"metallicFactor":0,
				"roughnessFactor":0.65200001
			}
		},
		{
			"name":"Material_1",
			"pbrMetallicRoughness":{
				"baseColorFactor":[0.0270000007,0.0270000007,0.0270000007,1
				],
				"metallicFactor":0,
				"roughnessFactor":0.65200001
			}
		},
		{
			"name":"Material_1",
			"pbrMetallicRoughness":{
				"baseColorFactor":[0.637000024,0.637000024,0.637000024,1
				],
				"metallicFactor":0,
				"roughnessFactor":0.65200001
			}
		}
	],
	"scenes":[
		{
			"nodes":[0
			]
		}
	],
	"scene":0
}
