{
	"asset":{
		"version":"2.0",
		"generator":"Houdini GLTF 2.0 Exporter"
	},
	"accessors":[
		{
			"bufferView":0,
			"componentType":5125,
			"count":47820,
			"type":"SCALAR",
			"min":[0
			],
			"max":[47819
			]
		},
		{
			"bufferView":1,
			"componentType":5126,
			"count":47820,
			"type":"VEC3",
			"min":[-27.8230743,-1.09075165,-39.730793
			],
			"max":[27.8230743,81.1008453,29.7334938
			]
		},
		{
			"bufferView":2,
			"componentType":5126,
			"count":47820,
			"type":"VEC3",
			"min":[-1,-1,-1
			],
			"max":[1,1,1
			]
		},
		{
			"bufferView":3,
			"componentType":5126,
			"count":47820,
			"type":"VEC2",
			"min":[-2.71658754,-2.20767498
			],
			"max":[3.47174978,5.66755009
			]
		},
		{
			"bufferView":4,
			"componentType":5121,
			"count":96,
			"type":"SCALAR",
			"min":[0
			],
			"max":[95
			]
		},
		{
			"bufferView":5,
			"componentType":5126,
			"count":96,
			"type":"VEC3",
			"min":[-8.58748436,79.9313049,-39.1639328
			],
			"max":[8.58748436,82.9313049,-38.1639328
			]
		},
		{
			"bufferView":6,
			"componentType":5126,
			"count":96,
			"type":"VEC3",
			"min":[-1,0,-1
			],
			"max":[1,0,1
			]
		},
		{
			"bufferView":7,
			"componentType":5126,
			"count":96,
			"type":"VEC2",
			"min":[0,1
			],
			"max":[0,1
			]
		}
	],
	"buffers":[
		{
			"uri":"__0__cwTe3HG33nFkG4IL_data.bin",
			"byteLength":1724688,
			"name":"main_buffer"
		}
	],
	"bufferViews":[
		{
			"buffer":0,
			"byteLength":191280,
			"target":34963
		},
		{
			"buffer":0,
			"byteOffset":191280,
			"byteLength":573840,
			"target":34962
		},
		{
			"buffer":0,
			"byteOffset":765120,
			"byteLength":573840,
			"target":34962
		},
		{
			"buffer":0,
			"byteOffset":1338960,
			"byteLength":382560,
			"target":34962
		},
		{
			"buffer":0,
			"byteOffset":1721520,
			"byteLength":96,
			"target":34963
		},
		{
			"buffer":0,
			"byteOffset":1721616,
			"byteLength":1152,
			"target":34962
		},
		{
			"buffer":0,
			"byteOffset":1722768,
			"byteLength":1152,
			"target":34962
		},
		{
			"buffer":0,
			"byteOffset":1723920,
			"byteLength":768,
			"target":34962
		}
	],
	"nodes":[
		{
			"name":"Br",
			"mesh":0
		}
	],
	"meshes":[
		{
			"primitives":[
				{
					"attributes":{
						"TEXCOORD_0":3,
						"NORMAL":2,
						"POSITION":1
					},
					"indices":0,
					"material":0
				},
				{
					"attributes":{
						"TEXCOORD_0":7,
						"NORMAL":6,
						"POSITION":5
					},
					"indices":4,
					"material":1
				}
			]
		}
	],
	"materials":[
		{
			"name":"Material_1",
			"pbrMetallicRoughness":{
				"baseColorFactor":[0.100000001,0.100000001,0.100000001,1
				],
				"metallicFactor":0,
				"roughnessFactor":0.65200001
			}
		},
		{
			"name":"Material_1",
			"pbrMetallicRoughness":{
				"roughnessFactor":0.300000012
			}
		}
	],
	"scenes":[
		{
			"nodes":[0
			]
		}
	],
	"scene":0
}
