{
	"asset":{
		"version":"2.0",
		"generator":"Houdini GLTF 2.0 Exporter"
	},
	"accessors":[
		{
			"bufferView":0,
			"componentType":5123,
			"count":7008,
			"type":"SCALAR",
			"min":[0
			],
			"max":[7007
			]
		},
		{
			"bufferView":1,
			"componentType":5126,
			"count":7008,
			"type":"VEC3",
			"min":[-1,-0.947891414,-0.999876738
			],
			"max":[1,0.999996662,0.999876738
			]
		},
		{
			"bufferView":2,
			"componentType":5126,
			"count":7008,
			"type":"VEC3",
			"min":[-24.6113968,-16.5068989,-25.4906998
			],
			"max":[24.6114006,10.3069,36.2905998
			]
		},
		{
			"bufferView":3,
			"componentType":5126,
			"count":7008,
			"type":"VEC3",
			"min":[1,1,1
			],
			"max":[1,1,1
			]
		},
		{
			"bufferView":4,
			"componentType":5126,
			"count":7008,
			"type":"VEC2",
			"min":[0.473632812,-1.85064578
			],
			"max":[4.85283041,0.301757812
			]
		}
	],
	"buffers":[
		{
			"uri":"__0__Xv0PtaDBgtvLx5k6_data.bin",
			"byteLength":322368
		}
	],
	"bufferViews":[
		{
			"buffer":0,
			"byteLength":14016,
			"target":34963
		},
		{
			"buffer":0,
			"byteOffset":14016,
			"byteLength":84096,
			"target":34962
		},
		{
			"buffer":0,
			"byteOffset":98112,
			"byteLength":84096,
			"target":34962
		},
		{
			"buffer":0,
			"byteOffset":182208,
			"byteLength":84096,
			"target":34962
		},
		{
			"buffer":0,
			"byteOffset":266304,
			"byteLength":56064,
			"target":34962
		}
	],
	"nodes":[
		{
			"mesh":0
		}
	],
	"meshes":[
		{
			"primitives":[
				{
					"attributes":{
						"TEXCOORD_0":4,
						"COLOR_0":3,
						"NORMAL":1,
						"POSITION":2
					},
					"indices":0,
					"material":0
				}
			]
		}
	],
	"materials":[
		{
			"pbrMetallicRoughness":{
				"baseColorFactor":[0.074000001,0.074000001,0.074000001,1
				],
				"metallicFactor":0,
				"roughnessFactor":0.469000012
			}
		}
	],
	"scenes":[
		{
			"nodes":[0
			]
		}
	],
	"scene":0
}
