{
	"asset":{
		"version":"2.0",
		"generator":"Houdini GLTF 2.0 Exporter"
	},
	"accessors":[
		{
			"bufferView":0,
			"componentType":5123,
			"count":12120,
			"type":"SCALAR",
			"min":[0
			],
			"max":[12119
			]
		},
		{
			"bufferView":1,
			"componentType":5126,
			"count":12120,
			"type":"VEC3",
			"min":[-28.987709,-0.118349865,-28.9580975
			],
			"max":[28.987709,27.053669,28.670332
			]
		},
		{
			"bufferView":2,
			"componentType":5126,
			"count":12120,
			"type":"VEC3",
			"min":[-0.999999523,-0.999993682,-0.999986827
			],
			"max":[0.999999523,0.999266386,0.999986768
			]
		},
		{
			"bufferView":3,
			"componentType":5126,
			"count":12120,
			"type":"VEC3",
			"min":[1,1,1
			],
			"max":[1,1,1
			]
		},
		{
			"bufferView":4,
			"componentType":5126,
			"count":12120,
			"type":"VEC2",
			"min":[-2.73454595,-2.20947146
			],
			"max":[3.47056079,5.6930213
			]
		},
		{
			"bufferView":5,
			"componentType":5125,
			"count":12120,
			"type":"SCALAR",
			"min":[0
			],
			"max":[590
			]
		}
	],
	"buffers":[
		{
			"uri":"__0__OJnWm9NzqEDm3qdE_data.bin",
			"byteLength":606000,
			"name":"main_buffer"
		}
	],
	"bufferViews":[
		{
			"buffer":0,
			"byteLength":24240,
			"target":34963
		},
		{
			"buffer":0,
			"byteOffset":24240,
			"byteLength":145440,
			"target":34962
		},
		{
			"buffer":0,
			"byteOffset":169680,
			"byteLength":145440,
			"target":34962
		},
		{
			"buffer":0,
			"byteOffset":315120,
			"byteLength":145440,
			"target":34962
		},
		{
			"buffer":0,
			"byteOffset":460560,
			"byteLength":96960,
			"target":34962
		},
		{
			"buffer":0,
			"byteOffset":557520,
			"byteLength":48480,
			"target":34962
		}
	],
	"nodes":[
		{
			"name":"backrest",
			"mesh":0
		}
	],
	"meshes":[
		{
			"primitives":[
				{
					"attributes":{
						"TEXCOORD_0":4,
						"COLOR_0":3,
						"NORMAL":2,
						"_island":5,
						"POSITION":1
					},
					"indices":0,
					"material":0
				}
			]
		}
	],
	"materials":[
		{
			"name":"Material_1",
			"pbrMetallicRoughness":{
				"baseColorFactor":[0.127000004,0.127000004,0.127000004,1
				],
				"metallicFactor":0,
				"roughnessFactor":0.65200001
			}
		}
	],
	"scenes":[
		{
			"nodes":[0
			]
		}
	],
	"scene":0
}
