{
	"asset":{
		"version":"2.0",
		"generator":"Houdini GLTF 2.0 Exporter"
	},
	"accessors":[
		{
			"bufferView":0,
			"componentType":5121,
			"count":96,
			"type":"SCALAR",
			"min":[0
			],
			"max":[95
			]
		},
		{
			"bufferView":1,
			"componentType":5126,
			"count":96,
			"type":"VEC3",
			"min":[-8.58748436,86.355011,-36.5207596
			],
			"max":[8.58748436,89.355011,-35.5207596
			]
		},
		{
			"bufferView":2,
			"componentType":5126,
			"count":96,
			"type":"VEC3",
			"min":[0,0,0
			],
			"max":[0,0,0
			]
		},
		{
			"bufferView":3,
			"componentType":5126,
			"count":96,
			"type":"VEC3",
			"min":[1,1,1
			],
			"max":[1,1,1
			]
		},
		{
			"bufferView":4,
			"componentType":5126,
			"count":96,
			"type":"VEC2",
			"min":[0,1
			],
			"max":[0,1
			]
		},
		{
			"bufferView":5,
			"componentType":5125,
			"count":96,
			"type":"SCALAR",
			"min":[0
			],
			"max":[0
			]
		},
		{
			"bufferView":6,
			"componentType":5123,
			"count":396,
			"type":"SCALAR",
			"min":[0
			],
			"max":[395
			]
		},
		{
			"bufferView":7,
			"componentType":5126,
			"count":396,
			"type":"VEC3",
			"min":[-8.88748455,86.1435547,-37.087616
			],
			"max":[8.88748455,87.5245514,-34.9538956
			]
		},
		{
			"bufferView":8,
			"componentType":5126,
			"count":396,
			"type":"VEC3",
			"min":[0,0,0
			],
			"max":[0,0,0
			]
		},
		{
			"bufferView":9,
			"componentType":5126,
			"count":396,
			"type":"VEC3",
			"min":[1,1,1
			],
			"max":[1,1,1
			]
		},
		{
			"bufferView":10,
			"componentType":5126,
			"count":396,
			"type":"VEC2",
			"min":[0,1
			],
			"max":[0,1
			]
		},
		{
			"bufferView":11,
			"componentType":5125,
			"count":396,
			"type":"SCALAR",
			"min":[0
			],
			"max":[0
			]
		},
		{
			"bufferView":12,
			"componentType":5123,
			"count":12120,
			"type":"SCALAR",
			"min":[0
			],
			"max":[12119
			]
		},
		{
			"bufferView":13,
			"componentType":5126,
			"count":12120,
			"type":"VEC3",
			"min":[-28.3709488,-0.133239746,-28.9580975
			],
			"max":[28.3709488,27.0387802,28.670332
			]
		},
		{
			"bufferView":14,
			"componentType":5126,
			"count":12120,
			"type":"VEC3",
			"min":[-0.999999523,-0.999993563,-0.999986827
			],
			"max":[0.999999523,0.999263525,0.999986768
			]
		},
		{
			"bufferView":15,
			"componentType":5126,
			"count":12120,
			"type":"VEC3",
			"min":[1,1,1
			],
			"max":[1,1,1
			]
		},
		{
			"bufferView":16,
			"componentType":5126,
			"count":12120,
			"type":"VEC2",
			"min":[-2.73454595,-2.20947146
			],
			"max":[3.47056079,5.6930213
			]
		},
		{
			"bufferView":17,
			"componentType":5125,
			"count":12120,
			"type":"SCALAR",
			"min":[0
			],
			"max":[590
			]
		}
	],
	"buffers":[
		{
			"uri":"__0__K1FDkp3IsdD9asqh_data.bin",
			"byteLength":630504,
			"name":"main_buffer"
		}
	],
	"bufferViews":[
		{
			"buffer":0,
			"byteLength":96,
			"target":34963
		},
		{
			"buffer":0,
			"byteOffset":96,
			"byteLength":1152,
			"target":34962
		},
		{
			"buffer":0,
			"byteOffset":1248,
			"byteLength":1152,
			"target":34962
		},
		{
			"buffer":0,
			"byteOffset":2400,
			"byteLength":1152,
			"target":34962
		},
		{
			"buffer":0,
			"byteOffset":3552,
			"byteLength":768,
			"target":34962
		},
		{
			"buffer":0,
			"byteOffset":4320,
			"byteLength":384,
			"target":34962
		},
		{
			"buffer":0,
			"byteOffset":4704,
			"byteLength":792,
			"target":34963
		},
		{
			"buffer":0,
			"byteOffset":5496,
			"byteLength":4752,
			"target":34962
		},
		{
			"buffer":0,
			"byteOffset":10248,
			"byteLength":4752,
			"target":34962
		},
		{
			"buffer":0,
			"byteOffset":15000,
			"byteLength":4752,
			"target":34962
		},
		{
			"buffer":0,
			"byteOffset":19752,
			"byteLength":3168,
			"target":34962
		},
		{
			"buffer":0,
			"byteOffset":22920,
			"byteLength":1584,
			"target":34962
		},
		{
			"buffer":0,
			"byteOffset":24504,
			"byteLength":24240,
			"target":34963
		},
		{
			"buffer":0,
			"byteOffset":48744,
			"byteLength":145440,
			"target":34962
		},
		{
			"buffer":0,
			"byteOffset":194184,
			"byteLength":145440,
			"target":34962
		},
		{
			"buffer":0,
			"byteOffset":339624,
			"byteLength":145440,
			"target":34962
		},
		{
			"buffer":0,
			"byteOffset":485064,
			"byteLength":96960,
			"target":34962
		},
		{
			"buffer":0,
			"byteOffset":582024,
			"byteLength":48480,
			"target":34962
		}
	],
	"nodes":[
		{
			"name":"geo1",
			"mesh":0
		}
	],
	"meshes":[
		{
			"primitives":[
				{
					"attributes":{
						"TEXCOORD_0":4,
						"COLOR_0":3,
						"NORMAL":2,
						"_island":5,
						"POSITION":1
					},
					"indices":0,
					"material":0
				},
				{
					"attributes":{
						"TEXCOORD_0":10,
						"COLOR_0":9,
						"NORMAL":8,
						"_island":11,
						"POSITION":7
					},
					"indices":6,
					"material":1
				},
				{
					"attributes":{
						"TEXCOORD_0":16,
						"COLOR_0":15,
						"NORMAL":14,
						"_island":17,
						"POSITION":13
					},
					"indices":12,
					"material":2
				}
			]
		}
	],
	"materials":[
		{
			"name":"Material_1",
			"pbrMetallicRoughness":{
				"roughnessFactor":0.200000003
			}
		},
		{
			"name":"Material_1",
			"pbrMetallicRoughness":{
				"baseColorFactor":[0.143000007,0.143000007,0.143000007,1
				],
				"metallicFactor":0,
				"roughnessFactor":0.65200001
			}
		},
		{
			"name":"Material_1",
			"pbrMetallicRoughness":{
				"baseColorFactor":[0.133000001,0.133000001,0.133000001,1
				],
				"metallicFactor":0,
				"roughnessFactor":0.65200001
			}
		}
	],
	"scenes":[
		{
			"nodes":[0
			]
		}
	],
	"scene":0
}
