{
	"asset":{
		"version":"2.0",
		"generator":"Houdini GLTF 2.0 Exporter 17.0 Alpha"
	},
	"accessors":[
		{
			"bufferView":0,
			"componentType":5123,
			"count":432,
			"type":"SCALAR",
			"min":[0
			],
			"max":[431
			]
		},
		{
			"bufferView":1,
			"componentType":5126,
			"count":432,
			"type":"VEC3",
			"min":[24.0864983,25.350769,-3.19849968
			],
			"max":[25.8221054,28.5452766,0.488541603
			]
		},
		{
			"bufferView":2,
			"componentType":5126,
			"count":432,
			"type":"VEC3",
			"min":[1,1,1
			],
			"max":[1,1,1
			]
		},
		{
			"bufferView":3,
			"componentType":5126,
			"count":432,
			"type":"VEC3",
			"min":[-0.997065067,-0.524893761,-0.839847147
			],
			"max":[0.997019827,0.979823411,0.880818665
			]
		},
		{
			"bufferView":4,
			"componentType":5126,
			"count":432,
			"type":"VEC2",
			"min":[0.146528482,0.0845226645
			],
			"max":[0.874578595,0.598541319
			]
		},
		{
			"bufferView":5,
			"componentType":5123,
			"count":144,
			"type":"SCALAR",
			"min":[0
			],
			"max":[143
			]
		},
		{
			"bufferView":6,
			"componentType":5126,
			"count":144,
			"type":"VEC3",
			"min":[-5.49268532,82.0756302,-25.9673615
			],
			"max":[5.50731468,92.0756302,-24.7673645
			]
		},
		{
			"bufferView":7,
			"componentType":5126,
			"count":144,
			"type":"VEC3",
			"min":[1,1,1
			],
			"max":[1,1,1
			]
		},
		{
			"bufferView":8,
			"componentType":5126,
			"count":144,
			"type":"VEC3",
			"min":[-1,0,-1
			],
			"max":[1,0,1
			]
		},
		{
			"bufferView":9,
			"componentType":5126,
			"count":144,
			"type":"VEC2",
			"min":[0.118706673,0.0297033191
			],
			"max":[0.868761539,0.165317118
			]
		},
		{
			"bufferView":10,
			"componentType":5123,
			"count":8490,
			"type":"SCALAR",
			"min":[0
			],
			"max":[8489
			]
		},
		{
			"bufferView":11,
			"componentType":5126,
			"count":8490,
			"type":"VEC3",
			"min":[-24.8103848,0,-26.9332428
			],
			"max":[26.0556355,87.673378,37.1887894
			]
		},
		{
			"bufferView":12,
			"componentType":5126,
			"count":8490,
			"type":"VEC3",
			"min":[1,1,1
			],
			"max":[1,1,1
			]
		},
		{
			"bufferView":13,
			"componentType":5126,
			"count":8490,
			"type":"VEC3",
			"min":[-0.999987602,-0.915176034,-1
			],
			"max":[0.999987602,0.999999404,0.999759495
			]
		},
		{
			"bufferView":14,
			"componentType":5126,
			"count":8490,
			"type":"VEC2",
			"min":[0,0.0414150953
			],
			"max":[0.998996675,1
			]
		}
	],
	"buffers":[
		{
			"uri":"__0__liPtbUWa1qPeBhkg_data.bin",
			"byteLength":417036
		}
	],
	"bufferViews":[
		{
			"buffer":0,
			"byteLength":864,
			"target":34963
		},
		{
			"buffer":0,
			"byteOffset":864,
			"byteLength":5184,
			"target":34962
		},
		{
			"buffer":0,
			"byteOffset":6048,
			"byteLength":5184,
			"target":34962
		},
		{
			"buffer":0,
			"byteOffset":11232,
			"byteLength":5184,
			"target":34962
		},
		{
			"buffer":0,
			"byteOffset":16416,
			"byteLength":3456,
			"target":34962
		},
		{
			"buffer":0,
			"byteOffset":19872,
			"byteLength":288,
			"target":34963
		},
		{
			"buffer":0,
			"byteOffset":20160,
			"byteLength":1728,
			"target":34962
		},
		{
			"buffer":0,
			"byteOffset":21888,
			"byteLength":1728,
			"target":34962
		},
		{
			"buffer":0,
			"byteOffset":23616,
			"byteLength":1728,
			"target":34962
		},
		{
			"buffer":0,
			"byteOffset":25344,
			"byteLength":1152,
			"target":34962
		},
		{
			"buffer":0,
			"byteOffset":26496,
			"byteLength":16980,
			"target":34963
		},
		{
			"buffer":0,
			"byteOffset":43476,
			"byteLength":101880,
			"target":34962
		},
		{
			"buffer":0,
			"byteOffset":145356,
			"byteLength":101880,
			"target":34962
		},
		{
			"buffer":0,
			"byteOffset":247236,
			"byteLength":101880,
			"target":34962
		},
		{
			"buffer":0,
			"byteOffset":349116,
			"byteLength":67920,
			"target":34962
		}
	],
	"nodes":[
		{
			"mesh":0
		}
	],
	"meshes":[
		{
			"primitives":[
				{
					"attributes":{
						"TEXCOORD_0":4,
						"NORMAL":3,
						"COLOR_0":2,
						"POSITION":1
					},
					"indices":0,
					"material":0
				},
				{
					"attributes":{
						"TEXCOORD_0":9,
						"NORMAL":8,
						"COLOR_0":7,
						"POSITION":6
					},
					"indices":5,
					"material":1
				},
				{
					"attributes":{
						"TEXCOORD_0":14,
						"NORMAL":13,
						"COLOR_0":12,
						"POSITION":11
					},
					"indices":10,
					"material":2
				}
			]
		}
	],
	"materials":[
		{
			"pbrMetallicRoughness":{
				"baseColorFactor":[0.550000012,0,0,1
				],
				"metallicFactor":0,
				"roughnessFactor":0.469000012
			}
		},
		{
			"pbrMetallicRoughness":{
				"roughnessFactor":0.231999993
			}
		},
		{
			"pbrMetallicRoughness":{
				"baseColorFactor":[0.0949999988,0.0949999988,0.0949999988,1
				],
				"metallicFactor":0,
				"roughnessFactor":0.469000012
			}
		}
	],
	"scenes":[
		{
			"nodes":[0
			]
		}
	],
	"scene":0
}
