# File exported by Houdini 17.0.416 (www.sidefx.com)
# 41 points
# 128 vertices
# 32 primitives
# Bounds: [-5.42386627, 89.6809158, -24.5606804] to [5.38386631, 105.442787, -22.586813]
g 
v 1.99095047 89.7254257 -22.9087868
v 5.38386631 95.4679794 -23.2600613
v 5.24464989 98.8358612 -23.4243317
v 5.21533966 90.1385345 -22.9242058
v 1.56573242e-05 89.6809158 -22.9247723
v 4.93189383 102.444466 -24.0382347
v 4.42795467 105.039215 -24.5606804
v 1.69486094 105.375977 -24.4977093
v -3.75761608e-08 105.442787 -24.4103374
v -2.03095055 89.7254257 -22.9087868
v -5.42386627 95.4679794 -23.2600613
v -5.28464985 98.8358612 -23.4243317
v -5.25533962 90.1385345 -22.9242058
v -4.97189379 102.444466 -24.0382347
v -4.46795464 105.039215 -24.5606804
v -1.7348609 105.375977 -24.4977093
v 5.0645957 95.4842758 -22.9136505
v 4.90186739 90.4472504 -22.5945587
v 1.9686923 90.0695572 -22.586813
v 1.9826051 95.45755 -22.7259464
v 1.90565002 98.7806931 -22.9327888
v 4.93189907 98.853157 -23.0716743
v -0.000100193989 90.0229874 -22.6007748
v -5.01361428e-05 95.4525681 -22.7555943
v 9.28802183e-05 98.7743683 -22.8924503
v 3.83038387e-05 102.526611 -23.4315414
v 1.80624294 102.522522 -23.4503727
v 4.62383509 102.468117 -23.6814003
v 4.16979599 104.823868 -24.1496925
v 1.68843293 105.128075 -24.0966339
v 2.79688102e-05 105.194206 -24.0096474
v -5.10459566 95.4842758 -22.9136505
v -2.02265453 95.45755 -22.7259483
v -2.00880742 90.0695648 -22.586813
v -4.94186735 90.4472504 -22.5945587
v -4.97189903 98.853157 -23.0716743
v -1.94557846 98.7806931 -22.932785
v -1.84620452 102.522522 -23.4503708
v -4.66383505 102.468117 -23.6814003
v -4.20979595 104.823868 -24.1496906
v -1.72840571 105.128067 -24.096632
vt 0.365461886 -0.156037152 0
vt 0.142279804 -0.156668842 0
vt 0.130164564 -0.539428115 0
vt 0.330372393 -0.505974829 0
vt 0.354909599 0.0815965533 0
vt 0.141669989 0.0793945491 0
vt 0.0012306571 -0.153966963 0
vt -0.00814211369 -0.541020691 0
vt 0.00695484877 0.081625253 0
vt 0.13991791 0.344733775 0
vt 0.0133925378 0.348210275 0
vt 0.339596063 0.339576274 0
vt 0.304797351 0.503338814 0
vt 0.135984719 0.534640253 0
vt 0.0180261768 0.539203882 0
vt -0.365484357 -0.138318479 0
vt -0.347382069 -0.489546239 0
vt -0.149036169 -0.532655776 0
vt -0.142598331 -0.149751961 0
vt -0.130555272 0.085994035 0
vt -0.343434721 0.0985246599 0
vt -0.115935221 0.350922644 0
vt -0.315641671 0.355459183 0
vt -0.272952318 0.517344356 0
vt -0.102828801 0.540428758 0
vt 0.399077475 -0.156381726 0
vt 0.360076725 -0.533921957 0
vt 0.132572174 -0.572667301 0
vt -0.00892496109 -0.573825836 0
vt -0.153043509 -0.56574291 0
vt -0.378404856 -0.516021073 0
vt -0.399077475 -0.137034714 0
vt -0.375980496 0.101804011 0
vt -0.348617464 0.36139816 0
vt -0.298457682 0.546172857 0
vt -0.104703367 0.573825777 0
vt 0.0188304167 0.571796894 0
vt 0.139482379 0.567903996 0
vt 0.33166939 0.530898154 0
vt 0.372820675 0.343910486 0
vt 0.387576282 0.0832953453 0
vn 0.0501981005 -0.683147371 0.728553176
vn 0.738400817 0.0406412892 0.673136294
vn 0.745204091 0.117649861 0.656376064
vn 0.468904048 -0.375614375 0.799401522
vn 0.000100579178 -0.685263574 0.728295267
vn 0.745314419 0.220104754 0.629333258
vn 0.475198179 0.616099596 0.628178358
vn 0.0880446807 0.847591698 0.523293734
vn 0.000696398027 0.849971771 0.526827812
vn -0.0500990301 -0.683148921 0.7285586
vn -0.738401055 0.0406413153 0.673136055
vn -0.745204628 0.117649928 0.656375349
vn -0.468905598 -0.375616521 0.799399734
vn -0.745313942 0.220104635 0.629333794
vn -0.475196064 0.616097331 0.628182173
vn -0.0873500258 0.847640038 0.523332
vn 0.422144651 0.0489386655 0.905206621
vn 0.325366348 -0.235094622 0.915897012
vn 0.0320972018 -0.350784242 0.935906112
vn 0.0182918627 0.0445806347 0.998838365
vn 0.0332059935 0.100648522 0.994367719
vn 0.434260726 0.120724767 0.892660797
vn -6.61432978e-06 -0.35591644 0.93451786
vn -4.31501867e-05 0.0394342728 0.999222219
vn 9.69252942e-05 0.0958444104 0.995396316
vn 0.000274068356 0.183524713 0.983015001
vn 0.0448138192 0.186989963 0.981339097
vn 0.438347936 0.222206756 0.870904803
vn 0.347739905 0.502950311 0.791276097
vn 0.0751343295 0.581515491 0.810058415
vn 0.00058290275 0.582785428 0.812625885
vn -0.422145039 0.0489388406 0.905206442
vn -0.0183352549 0.0445803553 0.998837531
vn -0.0321046598 -0.350782901 0.935906351
vn -0.325367719 -0.235095993 0.915896118
vn -0.434261233 0.120724894 0.892660499
vn -0.0331092253 0.100647531 0.994371116
vn -0.0445396304 0.186987266 0.981352091
vn -0.43834728 0.222206771 0.870905161
vn -0.3477377 0.502948523 0.791278243
vn -0.0745521784 0.581539512 0.810094893
g 
f 17/1/17 20/2/20 19/3/19 18/4/18
f 20/2/20 17/1/17 22/5/22 21/6/21
f 20/2/20 24/7/24 23/8/23 19/3/19
f 24/7/24 20/2/20 21/6/21 25/9/25
f 21/6/21 27/10/27 26/11/26 25/9/25
f 22/5/22 28/12/28 27/10/27 21/6/21
f 29/13/29 30/14/30 27/10/27 28/12/28
f 30/14/30 31/15/31 26/11/26 27/10/27
f 32/16/32 35/17/35 34/18/34 33/19/33
f 33/19/33 37/20/37 36/21/36 32/16/32
f 33/19/33 34/18/34 23/8/23 24/7/24
f 24/7/24 25/9/25 37/20/37 33/19/33
f 37/20/37 25/9/25 26/11/26 38/22/38
f 36/21/36 37/20/37 38/22/38 39/23/39
f 40/24/40 39/23/39 38/22/38 41/25/41
f 41/25/41 38/22/38 26/11/26 31/15/31
f 2/26/2 17/1/17 18/4/18 4/27/4
f 4/27/4 18/4/18 19/3/19 1/28/1
f 1/28/1 19/3/19 23/8/23 5/29/5
f 5/29/5 23/8/23 34/18/34 10/30/10
f 10/30/10 34/18/34 35/17/35 13/31/13
f 13/31/13 35/17/35 32/16/32 11/32/11
f 11/32/11 32/16/32 36/21/36 12/33/12
f 12/33/12 36/21/36 39/23/39 14/34/14
f 14/34/14 39/23/39 40/24/40 15/35/15
f 15/35/15 40/24/40 41/25/41 16/36/16
f 16/36/16 41/25/41 31/15/31 9/37/9
f 9/37/9 31/15/31 30/14/30 8/38/8
f 8/38/8 30/14/30 29/13/29 7/39/7
f 7/39/7 29/13/29 28/12/28 6/40/6
f 6/40/6 28/12/28 22/5/22 3/41/3
f 3/41/3 22/5/22 17/1/17 2/26/2
