# File exported by Houdini 17.0.416 (www.sidefx.com)
# 132 points
# 440 vertices
# 110 primitives
# Bounds: [-11.3838205, 87.8222122, -33.7492523] to [11.2838202, 109.456139, -22.5208626]
g 
v 8.85845947 92.2672806 -33.3340454
v 8.1869812 96.0392303 -32.7402992
v 9.16167164 95.240509 -24.8521175
v 8.7265749 98.9795914 -25.0385456
v 8.09447575 102.425423 -25.2319508
v 9.79975033 95.9452972 -29.3252106
v 9.78914928 95.6740799 -27.1901379
v 9.12330818 95.9974213 -31.4295444
v -7.6382527e-09 109.456139 -25.6943722
v 1.5681597 109.392433 -25.6809464
v 4.08744621 109.094223 -25.6099586
v 6.96965933 105.764359 -25.4342747
v 9.24211693 90.7750015 -33.7492523
v 10.5025349 90.7798386 -32.4153061
v 11.1002293 90.9952316 -30.2268867
v 11.1395397 90.7666321 -27.7751274
v 10.5187626 90.0492096 -25.1742668
v 8.12698174 88.5333252 -23.3687859
v 5.65950632 87.8222122 -22.9603844
v 0.00293990644 87.9209061 -22.8034897
v 2.05792308 87.8835068 -22.8249874
v 5.91570807 107.986107 -25.5239372
v -8.95845985 92.2672806 -33.3340454
v -8.28698158 96.0392303 -32.7402992
v -9.26167202 95.240509 -24.8521175
v -8.82657528 98.9795914 -25.0385456
v -8.19447613 102.425423 -25.2319508
v -9.89975071 95.9452972 -29.3252106
v -9.88914967 95.6740799 -27.1901379
v -9.22330856 95.9974213 -31.4295444
v -1.6681596 109.392433 -25.6809464
v -4.18744659 109.094223 -25.6099586
v -7.06965971 105.764359 -25.4342747
v -9.34211731 90.7750015 -33.7492523
v -10.6025352 90.7798386 -32.4153061
v -11.2002296 90.9952316 -30.2268867
v -11.2395401 90.7666321 -27.7751274
v -10.618763 90.0492096 -25.1742668
v -8.22698212 88.5333252 -23.3687859
v -5.7595067 87.8222122 -22.9603844
v -2.15792298 87.8835068 -22.8249874
v -6.01570845 107.986107 -25.5239372
v 10.7248363 92.5926971 -29.9658985
v 10.7342758 92.3261185 -27.5654774
v 10.139924 95.4329681 -27.1812687
v 10.151372 95.7140427 -29.401329
v 10.121316 91.4812088 -24.9431477
v 9.45747566 94.9796295 -24.6401081
v 9.96598911 92.4112473 -32.2399559
v 9.44207478 95.7730484 -31.5995674
v 5.4415431 95.4851151 -22.966156
v 5.56426334 89.8192749 -22.6525364
v 1.99110496 89.7362518 -22.6089821
v 1.98187375 95.4560699 -22.7592049
v 1.90455747 98.7773666 -22.9659023
v 5.29164124 98.8707047 -23.1300907
v -4.59004586e-05 89.8470688 -22.6314507
v -0.000109467212 95.451355 -22.7888737
v 0.000177498208 98.7713165 -22.9256115
v 8.65103531 95.8088531 -32.711628
v 9.27105904 92.3529205 -33.2726555
v 8.35339597e-05 102.520676 -23.4643097
v 1.80469823 102.516205 -23.4830322
v 4.98424578 102.504944 -23.7490959
v 4.61123323 105.36747 -24.3501167
v 1.71204209 105.453339 -24.2083645
v 0.000499230344 105.520844 -24.1206703
v 1.64439464 107.336678 -24.7432899
v 1.54767263 109.193413 -25.3066463
v 4.0256052 108.900826 -25.2260818
v 4.35848284 107.095909 -24.7300568
v 0.000209889899 107.365273 -24.7104397
v -0.000256533676 109.258957 -25.3183517
v 10.62041 91.188118 -32.5015984
v 9.56119633 91.1669083 -33.6040154
v 11.2381897 91.3975983 -30.2466507
v 11.2838202 91.1570663 -27.687479
v 10.6241951 90.4281158 -24.9795265
v 5.65169191 88.1380539 -22.6682186
v 2.06715989 88.1947556 -22.536808
v 0.00310105761 88.2373657 -22.5208626
v 8.11452961 88.8579636 -23.0814018
v 7.48834515 90.8860626 -23.2806396
v 7.11844921 95.5022583 -23.5347118
v 6.92126417 98.9308319 -23.5901394
v 8.60881329 98.978775 -24.6307468
v 6.49343157 102.493713 -24.1691456
v 7.96472597 102.418831 -24.8271656
v 5.71789408 105.567474 -24.5437355
v 6.80226088 105.729752 -25.0433044
v 5.76079321 107.865906 -25.1385365
v -10.8248367 92.5926971 -29.9658985
v -10.2513723 95.7140427 -29.401329
v -10.2399244 95.4329681 -27.1812687
v -10.8342762 92.3261185 -27.5654774
v -9.55747604 94.9796295 -24.6401081
v -10.2213163 91.4812088 -24.9431477
v -10.0659895 92.4112473 -32.2399559
v -9.54207516 95.7730484 -31.5995674
v -5.54154348 95.4851151 -22.966156
v -2.08198261 95.4560699 -22.7592087
v -2.09117198 89.7362518 -22.6089821
v -5.66426373 89.8192749 -22.6525364
v -5.39164162 98.8707047 -23.1300907
v -2.00440145 98.777359 -22.9658966
v -8.75103569 95.8088531 -32.711628
v -9.37105942 92.3529205 -33.2726555
v -1.90461445 102.516205 -23.4830284
v -5.08424616 102.504944 -23.7490959
v -4.71123362 105.36747 -24.3501167
v -1.81154227 105.453331 -24.208334
v -1.74418604 107.33667 -24.7432842
v -4.45848322 107.095909 -24.7300568
v -4.12560654 108.900826 -25.2260818
v -1.64792752 109.193359 -25.3066425
v -10.7204103 91.188118 -32.5015984
v -9.66119671 91.1669083 -33.6040154
v -11.3381901 91.3975983 -30.2466507
v -11.3838205 91.1570663 -27.687479
v -10.7241955 90.4281158 -24.9795265
v -2.16699862 88.1947556 -22.5368042
v -5.7516923 88.1380539 -22.6682186
v -8.21452999 88.8579636 -23.0814018
v -7.58834553 90.8860626 -23.2806396
v -7.21844959 95.5022583 -23.5347118
v -7.02126455 98.9308319 -23.5901394
v -8.70881367 98.978775 -24.6307468
v -6.59343195 102.493713 -24.1691456
v -8.06472683 102.418831 -24.8271656
v -5.81789446 105.567474 -24.5437355
v -6.90226126 105.729752 -25.0433044
v -5.86079359 107.865906 -25.1385365
vt 1.22108936 -0.441008896 0
vt 1.15144253 -0.206171334 0
vt 0.985645294 -0.239938855 0
vt 1.03616333 -0.47961235 0
vt 0.775028229 -0.264512599 0
vt 0.827925682 -0.555207014 0
vt 1.40721321 -0.417951792 0
vt 1.31988335 -0.169467628 0
vt 0.423057079 -0.242414474 0
vt 0.155119896 -0.250561953 0
vt 0.156677723 -0.689858615 0
vt 0.42819643 -0.680825472 0
vt 0.403233528 0.0153756142 0
vt 0.146564484 0.00313425064 0
vt 0.00300312042 -0.251835048 0
vt 0.00459432602 -0.682171583 0
vt 0.00209712982 0.00144040585 0
vt 1.41454029 -0.144425988 0
vt 1.50632477 -0.398160458 0
vt 0.136635303 0.287408352 0
vt 0.00124454498 0.287006378 0
vt 0.375845432 0.291671991 0
vt 0.345812321 0.510731459 0
vt 0.129170418 0.513927698 0
vt 0.0010061264 0.5171597 0
vt 0.124508858 0.660422802 0
vt 0.325850487 0.641878843 0
vt 0.302245617 0.778441429 0
vt 0.118141651 0.807193279 0
vt 0.00109958649 0.662467957 0
vt 0.00145244598 0.812573075 0
vt 1.42470455 -0.522813678 0
vt 1.53117561 -0.49063915 0
vt 1.250597 -0.539832473 0
vt 1.05956173 -0.577814937 0
vt 0.853982925 -0.640711486 0
vt 0.16294384 -0.80799222 0
vt 0.435051918 -0.808590651 0
vt 0.00532531738 -0.805795491 0
vt 0.620160103 -0.755702317 0
vt 0.584423065 -0.598388255 0
vt 0.561749458 -0.23468864 0
vt 0.530444145 0.0272491574 0
vt 0.680234909 0.045184195 0
vt 0.493511677 0.298185229 0
vt 0.614315987 0.304055691 0
vt 0.42888546 0.529519558 0
vt 0.518650055 0.551789403 0
vt 0.42976284 0.703613997 0
vt -1.2215538 -0.450337589 0
vt -1.03628731 -0.487511188 0
vt -0.987621784 -0.247391701 0
vt -1.15371847 -0.214905202 0
vt -0.827419281 -0.56150496 0
vt -0.776755333 -0.270335913 0
vt -1.40789843 -0.428723872 0
vt -1.32248497 -0.179504335 0
vt -0.424844742 -0.245518804 0
vt -0.426654816 -0.684070706 0
vt -0.155043125 -0.691030443 0
vt -0.156791687 -0.251681685 0
vt -0.150020599 0.00213575363 0
vt -0.406937599 0.0125622749 0
vt -1.41735649 -0.155193746 0
vt -1.50718737 -0.409699529 0
vt -0.141781807 0.286729336 0
vt -0.381689548 0.289467812 0
vt -0.352942467 0.509751916 0
vt -0.134884834 0.513845801 0
vt -0.130008221 0.660912037 0
vt -0.122933865 0.807957053 0
vt -0.308822155 0.781247616 0
vt -0.332776546 0.64231801 0
vt -1.42457771 -0.533745646 0
vt -1.53132296 -0.502392292 0
vt -1.2502985 -0.549412489 0
vt -1.05892706 -0.585916102 0
vt -0.852817059 -0.647227883 0
vt -0.432532787 -0.811900556 0
vt -0.160403728 -0.809228659 0
vt -0.618068695 -0.760429263 0
vt -0.583535671 -0.602816284 0
vt -0.563646317 -0.238844514 0
vt -0.534337044 0.0234751105 0
vt -0.684382439 0.0402418375 0
vt -0.499612808 0.295058012 0
vt -0.620630741 0.299826741 0
vt -0.437129974 0.528136492 0
vt -0.527351856 0.550065756 0
vt -0.440834522 0.707911134 0
vt 0.980428696 -0.207706749 0
vt 1.14456844 -0.174629033 0
vt 1.31236458 -0.138127685 0
vt 1.43368435 -0.107979953 0
vt 1.5390749 -0.389782429 0
vt 1.56691551 -0.510758638 0
vt 1.43141842 -0.555269778 0
vt 1.25512886 -0.571853876 0
vt 1.06788063 -0.609336734 0
vt 0.863247871 -0.671887338 0
vt 0.631253242 -0.786528707 0
vt 0.439144611 -0.84109199 0
vt 0.162928104 -0.84011662 0
vt 0.00543498993 -0.837888718 0
vt -0.160151482 -0.841353893 0
vt -0.436376095 -0.844435692 0
vt -0.628924847 -0.791345239 0
vt -0.861843109 -0.678481877 0
vt -1.0670023 -0.617509902 0
vt -1.25458193 -0.581476152 0
vt -1.43104076 -0.566260934 0
vt -1.56691551 -0.522794962 0
vt -1.5400095 -0.401574999 0
vt -1.43678856 -0.118888557 0
vt -1.315207 -0.14809835 0
vt -1.147089 -0.183302641 0
vt -0.982653618 -0.215110481 0
vt -0.790334702 -0.23661989 0
vt -0.712875366 0.0479437113 0
vt -0.652051926 0.309321523 0
vt -0.557490826 0.562509298 0
vt -0.464753628 0.731797218 0
vt -0.318063259 0.813411236 0
vt -0.125521183 0.839781165 0
vt 0.00159645081 0.844435692 0
vt 0.121012688 0.838970065 0
vt 0.312062263 0.809775114 0
vt 0.452967644 0.726912498 0
vt 0.547916889 0.564756393 0
vt 0.645680428 0.313868761 0
vt 0.708634377 0.0531182885 0
vt 0.788339615 -0.230702937 0
vn 0.106246434 0.233301878 -0.966582537
vn 0.331030577 0.595958352 -0.731609583
vn 0.840573788 0.540044785 0.0422791392
vn 0.983167887 0.178437367 0.039256569
vn 0.912388206 0.258220434 0.317600548
vn 0.544981897 0.838222444 -0.0194364693
vn 0.545536578 0.81447047 0.197554156
vn 0.481966317 0.848823726 -0.21727103
vn 0.000982541242 0.883916676 0.46764335
vn 0.0614504069 0.882313192 0.466633797
vn 0.272817224 0.843786061 0.462164372
vn 0.84780848 0.367058158 0.382738888
vn 0.431945205 -0.0225213971 -0.9016186
vn 0.828866482 -0.333388954 -0.449257344
vn 0.935421467 -0.326849222 -0.13474524
vn 0.939023554 -0.341385543 0.0411183722
vn 0.839821696 -0.418696821 0.345532149
vn 0.516091049 -0.564497888 0.644198835
vn 0.1610789 -0.663740695 0.730412066
vn -0.000154716821 -0.672729373 0.739888608
vn 0.00487653771 -0.675982416 0.7369017
vn 0.65129596 0.61400944 0.445876747
vn -0.106246434 0.233301878 -0.966582537
vn -0.331030577 0.595958352 -0.731609583
vn -0.840573788 0.540044785 0.0422791392
vn -0.983167827 0.178437307 0.0392563343
vn -0.912388325 0.258220434 0.317600131
vn -0.544981897 0.838222444 -0.0194364693
vn -0.545536578 0.81447047 0.197554156
vn -0.481966317 0.848823726 -0.21727103
vn -0.0604664311 0.882365763 0.466663271
vn -0.272814125 0.843780577 0.462175906
vn -0.84780848 0.367058188 0.382738709
vn -0.431945205 -0.0225213971 -0.9016186
vn -0.828866482 -0.333388954 -0.449257344
vn -0.935421467 -0.326849222 -0.13474524
vn -0.939023554 -0.341385543 0.0411183722
vn -0.839821696 -0.418696821 0.345532149
vn -0.516091049 -0.564497888 0.644198835
vn -0.161078915 -0.663740814 0.730411947
vn -0.00503126392 -0.675985694 0.736897588
vn -0.651296079 0.6140095 0.445876539
vn 0.782892108 0.269707739 -0.120908827
vn 0.787410438 0.216239005 0.157206282
vn 0.703821421 0.476656407 0.170203343
vn 0.686118841 0.537805915 -0.0775934532
vn 0.680588901 0.11375571 0.454328924
vn 0.699885547 0.292375237 0.388734102
vn 0.678348064 0.288860232 -0.403975874
vn 0.605302751 0.545175612 -0.330619901
vn 0.2345898 0.0483395569 0.864386499
vn 0.22656557 -0.0737250149 0.849121392
vn 0.0809951052 -0.104608648 0.902077377
vn 0.0878736377 0.0217077099 0.923186004
vn 0.090565078 0.110651061 0.927617192
vn 0.231602475 0.127496511 0.872626781
vn -4.93332154e-05 -0.111034162 0.915564358
vn 1.05721638e-05 0.0144425668 0.938152671
vn 0.000164805999 0.105414435 0.941817403
vn 0.473671496 0.475263566 -0.605064452
vn 0.453060627 0.279173702 -0.696736455
vn 0.000353908865 0.193576202 0.931023002
vn 0.0882413611 0.195643276 0.919482172
vn 0.214219257 0.202955991 0.875670075
vn 0.188411891 0.275616258 0.865329027
vn 0.0821310729 0.281769603 0.894264042
vn 0.000505926611 0.285543203 0.90172714
vn 0.0806220695 0.397122711 0.831822753
vn 0.0897986144 0.628338397 0.678331614
vn 0.255981833 0.591648996 0.657749772
vn 0.193389118 0.366247743 0.816274881
vn 0.000520391914 0.406713516 0.835918367
vn 0.000605983369 0.637235701 0.682380676
vn 0.751703382 0.0210793931 -0.434965879
vn 0.546287656 0.100735329 -0.702006221
vn 0.857764363 -0.00801817421 -0.143353999
vn 0.857227802 -0.0511214025 0.118677825
vn 0.736457944 -0.136590421 0.420276999
vn 0.218166873 -0.338037133 0.801852226
vn 0.0648895949 -0.3680574 0.842680693
vn -7.4570904e-05 -0.372217923 0.853130341
vn 0.476947874 -0.253532231 0.680553257
vn 0.442481011 -0.00244047632 0.716406882
vn 0.442814708 0.114087343 0.71711266
vn 0.436370343 0.16079247 0.737642527
vn 0.718929291 0.213783026 0.446347415
vn 0.398589998 0.221667737 0.770138383
vn 0.66730082 0.257958293 0.552257955
vn 0.325863838 0.290603995 0.793281436
vn 0.593456745 0.353230417 0.599666476
vn 0.50631547 0.520691395 0.583100438
vn -0.78289181 0.269707739 -0.120908827
vn -0.686118424 0.537805915 -0.0775934458
vn -0.703819811 0.476656407 0.170203373
vn -0.787409663 0.21623899 0.157206297
vn -0.699878812 0.292375207 0.388734192
vn -0.680587292 0.113755681 0.454328984
vn -0.678347945 0.288860232 -0.403975844
vn -0.605302632 0.545175612 -0.330619901
vn -0.234559536 0.0483394489 0.864387095
vn -0.0878448859 0.0217074305 0.923186481
vn -0.0810548589 -0.104609035 0.9020769
vn -0.226576254 -0.073725231 0.849121332
vn -0.231493428 0.127496347 0.872628689
vn -0.0903252736 0.110650428 0.927621126
vn -0.473671466 0.475263566 -0.605064452
vn -0.453060597 0.279173702 -0.696736455
vn -0.0877446979 0.195642605 0.919491887
vn -0.214015543 0.202955931 0.875674009
vn -0.188131407 0.275616676 0.865334511
vn -0.0814297199 0.281769395 0.89427793
vn -0.079896532 0.397124559 0.831833899
vn -0.193097636 0.366248876 0.816280484
vn -0.255738467 0.591650605 0.657757401
vn -0.0890101269 0.628353298 0.67834574
vn -0.751703322 0.021079395 -0.434965879
vn -0.546287656 0.100735329 -0.702006221
vn -0.857764304 -0.00801817328 -0.143353999
vn -0.857227743 -0.05112141 0.118677832
vn -0.73645854 -0.136590451 0.420276999
vn -0.0649826974 -0.368058681 0.842679381
vn -0.218189463 -0.338037521 0.801851869
vn -0.476952523 -0.25353235 0.680553257
vn -0.442480057 -0.00244055944 0.716406941
vn -0.442796528 0.114087291 0.717112958
vn -0.436320901 0.16079244 0.737643421
vn -0.718910396 0.213782996 0.446347654
vn -0.398498893 0.221667811 0.770140111
vn -0.667266369 0.257958323 0.552258492
vn -0.325714082 0.290604353 0.793284297
vn -0.593401074 0.353230625 0.599667668
vn -0.50623244 0.520691931 0.583102822
g 
f 43/1/43 46/2/46 45/3/45 44/4/44
f 44/4/44 45/3/45 48/5/48 47/6/47
f 49/7/49 50/8/50 46/2/46 43/1/43
f 51/9/51 54/10/54 53/11/53 52/12/52
f 54/10/54 51/9/51 56/13/56 55/14/55
f 54/10/54 58/15/58 57/16/57 53/11/53
f 58/15/58 54/10/54 55/14/55 59/17/59
f 60/18/60 50/8/50 49/7/49 61/19/61
f 55/14/55 63/20/63 62/21/62 59/17/59
f 56/13/56 64/22/64 63/20/63 55/14/55
f 65/23/65 66/24/66 63/20/63 64/22/64
f 66/24/66 67/25/67 62/21/62 63/20/63
f 68/26/68 71/27/71 70/28/70 69/29/69
f 71/27/71 68/26/68 66/24/66 65/23/65
f 72/30/72 68/26/68 69/29/69 73/31/73
f 68/26/68 72/30/72 67/25/67 66/24/66
f 74/32/74 75/33/75 61/19/61 49/7/49
f 76/34/76 74/32/74 49/7/49 43/1/43
f 77/35/77 76/34/76 43/1/43 44/4/44
f 78/36/78 77/35/77 44/4/44 47/6/47
f 53/11/53 80/37/80 79/38/79 52/12/52
f 80/37/80 53/11/53 57/16/57 81/39/81
f 82/40/82 83/41/83 52/12/52 79/38/79
f 83/41/83 82/40/82 78/36/78 47/6/47
f 84/42/84 83/41/83 47/6/47 48/5/48
f 83/41/83 84/42/84 51/9/51 52/12/52
f 85/43/85 84/42/84 48/5/48 86/44/86
f 84/42/84 85/43/85 56/13/56 51/9/51
f 87/45/87 85/43/85 86/44/86 88/46/88
f 85/43/85 87/45/87 64/22/64 56/13/56
f 87/45/87 89/47/89 65/23/65 64/22/64
f 89/47/89 87/45/87 88/46/88 90/48/90
f 71/27/71 89/47/89 90/48/90 91/49/91 70/28/70
f 89/47/89 71/27/71 65/23/65
f 92/50/92 95/51/95 94/52/94 93/53/93
f 95/51/95 97/54/97 96/55/96 94/52/94
f 98/56/98 92/50/92 93/53/93 99/57/99
f 100/58/100 103/59/103 102/60/102 101/61/101
f 101/61/101 105/62/105 104/63/104 100/58/100
f 101/61/101 102/60/102 57/16/57 58/15/58
f 58/15/58 59/17/59 105/62/105 101/61/101
f 106/64/106 107/65/107 98/56/98 99/57/99
f 105/62/105 59/17/59 62/21/62 108/66/108
f 104/63/104 105/62/105 108/66/108 109/67/109
f 110/68/110 109/67/109 108/66/108 111/69/111
f 111/69/111 108/66/108 62/21/62 67/25/67
f 112/70/112 115/71/115 114/72/114 113/73/113
f 113/73/113 110/68/110 111/69/111 112/70/112
f 72/30/72 73/31/73 115/71/115 112/70/112
f 112/70/112 111/69/111 67/25/67 72/30/72
f 116/74/116 98/56/98 107/65/107 117/75/117
f 118/76/118 92/50/92 98/56/98 116/74/116
f 119/77/119 95/51/95 92/50/92 118/76/118
f 120/78/120 97/54/97 95/51/95 119/77/119
f 102/60/102 103/59/103 122/79/122 121/80/121
f 121/80/121 81/39/81 57/16/57 102/60/102
f 123/81/123 122/79/122 103/59/103 124/82/124
f 124/82/124 97/54/97 120/78/120 123/81/123
f 125/83/125 96/55/96 97/54/97 124/82/124
f 124/82/124 103/59/103 100/58/100 125/83/125
f 126/84/126 127/85/127 96/55/96 125/83/125
f 125/83/125 100/58/100 104/63/104 126/84/126
f 128/86/128 129/87/129 127/85/127 126/84/126
f 126/84/126 104/63/104 109/67/109 128/86/128
f 128/86/128 109/67/109 110/68/110 130/88/130
f 130/88/130 131/89/131 129/87/129 128/86/128
f 113/73/113 114/72/114 132/90/132 131/89/131 130/88/130
f 130/88/130 110/68/110 113/73/113
f 7/91/7 45/3/45 46/2/46 6/92/6
f 6/92/6 46/2/46 50/8/50 8/93/8
f 8/93/8 50/8/50 60/18/60 2/94/2
f 2/94/2 60/18/60 61/19/61 1/95/1
f 1/95/1 61/19/61 75/33/75 13/96/13
f 13/96/13 75/33/75 74/32/74 14/97/14
f 14/97/14 74/32/74 76/34/76 15/98/15
f 15/98/15 76/34/76 77/35/77 16/99/16
f 16/99/16 77/35/77 78/36/78 17/100/17
f 17/100/17 78/36/78 82/40/82 18/101/18
f 18/101/18 82/40/82 79/38/79 19/102/19
f 19/102/19 79/38/79 80/37/80 21/103/21
f 21/103/21 80/37/80 81/39/81 20/104/20
f 20/104/20 81/39/81 121/80/121 41/105/41
f 41/105/41 121/80/121 122/79/122 40/106/40
f 40/106/40 122/79/122 123/81/123 39/107/39
f 39/107/39 123/81/123 120/78/120 38/108/38
f 38/108/38 120/78/120 119/77/119 37/109/37
f 37/109/37 119/77/119 118/76/118 36/110/36
f 36/110/36 118/76/118 116/74/116 35/111/35
f 35/111/35 116/74/116 117/75/117 34/112/34
f 34/112/34 117/75/117 107/65/107 23/113/23
f 23/113/23 107/65/107 106/64/106 24/114/24
f 24/114/24 106/64/106 99/57/99 30/115/30
f 30/115/30 99/57/99 93/53/93 28/116/28
f 28/116/28 93/53/93 94/52/94 29/117/29
f 29/117/29 94/52/94 96/55/96 25/118/25
f 25/118/25 96/55/96 127/85/127 26/119/26
f 26/119/26 127/85/127 129/87/129 27/120/27
f 27/120/27 129/87/129 131/89/131 33/121/33
f 33/121/33 131/89/131 132/90/132 42/122/42
f 42/122/42 132/90/132 114/72/114 32/123/32
f 32/123/32 114/72/114 115/71/115 31/124/31
f 31/124/31 115/71/115 73/31/73 9/125/9
f 9/125/9 73/31/73 69/29/69 10/126/10
f 10/126/10 69/29/69 70/28/70 11/127/11
f 11/127/11 70/28/70 91/49/91 22/128/22
f 22/128/22 91/49/91 90/48/90 12/129/12
f 12/129/12 90/48/90 88/46/88 5/130/5
f 5/130/5 88/46/88 86/44/86 4/131/4
f 4/131/4 86/44/86 48/5/48 3/132/3
f 3/132/3 48/5/48 45/3/45 7/91/7
