{
	"asset":{
		"version":"2.0",
		"generator":"Houdini GLTF 2.0 Exporter"
	},
	"accessors":[
		{
			"bufferView":0,
			"componentType":5123,
			"count":12120,
			"type":"SCALAR",
			"min":[0
			],
			"max":[12119
			]
		},
		{
			"bufferView":1,
			"componentType":5126,
			"count":12120,
			"type":"VEC3",
			"min":[-29.6044674,9.07114315,-41.0524101
			],
			"max":[29.6044674,36.2431641,16.5760193
			]
		},
		{
			"bufferView":2,
			"componentType":5126,
			"count":12120,
			"type":"VEC3",
			"min":[1,1,1
			],
			"max":[1,1,1
			]
		},
		{
			"bufferView":3,
			"componentType":5126,
			"count":12120,
			"type":"VEC2",
			"min":[-2.73454595,-2.20947146
			],
			"max":[3.47056079,5.6930213
			]
		},
		{
			"bufferView":4,
			"componentType":5126,
			"count":12120,
			"type":"VEC3",
			"min":[-1,-0.999956787,-0.999986768
			],
			"max":[1,0.998111546,0.999986768
			]
		},
		{
			"bufferView":5,
			"componentType":5125,
			"count":12120,
			"type":"SCALAR",
			"min":[0
			],
			"max":[590
			]
		},
		{
			"bufferView":6,
			"componentType":5121,
			"count":96,
			"type":"SCALAR",
			"min":[0
			],
			"max":[95
			]
		},
		{
			"bufferView":7,
			"componentType":5126,
			"count":96,
			"type":"VEC3",
			"min":[-8.58748436,81.3449249,-50.2163162
			],
			"max":[8.58748436,84.3449249,-49.2163162
			]
		},
		{
			"bufferView":8,
			"componentType":5126,
			"count":96,
			"type":"VEC3",
			"min":[1,1,1
			],
			"max":[1,1,1
			]
		},
		{
			"bufferView":9,
			"componentType":5126,
			"count":96,
			"type":"VEC2",
			"min":[0,1
			],
			"max":[0,1
			]
		},
		{
			"bufferView":10,
			"componentType":5126,
			"count":96,
			"type":"VEC3",
			"min":[-1,0,-1
			],
			"max":[1,0,1
			]
		},
		{
			"bufferView":11,
			"componentType":5125,
			"count":96,
			"type":"SCALAR",
			"min":[0
			],
			"max":[0
			]
		},
		{
			"bufferView":12,
			"componentType":5123,
			"count":396,
			"type":"SCALAR",
			"min":[0
			],
			"max":[395
			]
		},
		{
			"bufferView":13,
			"componentType":5126,
			"count":396,
			"type":"VEC3",
			"min":[-8.88748455,81.1334686,-50.7831764
			],
			"max":[8.88748455,82.5144653,-48.649456
			]
		},
		{
			"bufferView":14,
			"componentType":5126,
			"count":396,
			"type":"VEC3",
			"min":[1,1,1
			],
			"max":[1,1,1
			]
		},
		{
			"bufferView":15,
			"componentType":5126,
			"count":396,
			"type":"VEC2",
			"min":[0,1
			],
			"max":[0,1
			]
		},
		{
			"bufferView":16,
			"componentType":5126,
			"count":396,
			"type":"VEC3",
			"min":[-0.980784714,0,-0.980785131
			],
			"max":[0.980784714,0.964130998,0.980785131
			]
		},
		{
			"bufferView":17,
			"componentType":5125,
			"count":396,
			"type":"SCALAR",
			"min":[0
			],
			"max":[0
			]
		}
	],
	"buffers":[
		{
			"uri":"__0__gJLW9AgRtxRWfaay_data.bin",
			"byteLength":630504,
			"name":"main_buffer"
		}
	],
	"bufferViews":[
		{
			"buffer":0,
			"byteLength":24240,
			"target":34963
		},
		{
			"buffer":0,
			"byteOffset":24240,
			"byteLength":145440,
			"target":34962
		},
		{
			"buffer":0,
			"byteOffset":169680,
			"byteLength":145440,
			"target":34962
		},
		{
			"buffer":0,
			"byteOffset":315120,
			"byteLength":96960,
			"target":34962
		},
		{
			"buffer":0,
			"byteOffset":412080,
			"byteLength":145440,
			"target":34962
		},
		{
			"buffer":0,
			"byteOffset":557520,
			"byteLength":48480,
			"target":34962
		},
		{
			"buffer":0,
			"byteOffset":606000,
			"byteLength":96,
			"target":34963
		},
		{
			"buffer":0,
			"byteOffset":606096,
			"byteLength":1152,
			"target":34962
		},
		{
			"buffer":0,
			"byteOffset":607248,
			"byteLength":1152,
			"target":34962
		},
		{
			"buffer":0,
			"byteOffset":608400,
			"byteLength":768,
			"target":34962
		},
		{
			"buffer":0,
			"byteOffset":609168,
			"byteLength":1152,
			"target":34962
		},
		{
			"buffer":0,
			"byteOffset":610320,
			"byteLength":384,
			"target":34962
		},
		{
			"buffer":0,
			"byteOffset":610704,
			"byteLength":792,
			"target":34963
		},
		{
			"buffer":0,
			"byteOffset":611496,
			"byteLength":4752,
			"target":34962
		},
		{
			"buffer":0,
			"byteOffset":616248,
			"byteLength":4752,
			"target":34962
		},
		{
			"buffer":0,
			"byteOffset":621000,
			"byteLength":3168,
			"target":34962
		},
		{
			"buffer":0,
			"byteOffset":624168,
			"byteLength":4752,
			"target":34962
		},
		{
			"buffer":0,
			"byteOffset":628920,
			"byteLength":1584,
			"target":34962
		}
	],
	"nodes":[
		{
			"name":"Br",
			"mesh":0
		}
	],
	"meshes":[
		{
			"primitives":[
				{
					"attributes":{
						"NORMAL":4,
						"COLOR_0":2,
						"TEXCOORD_0":3,
						"_island":5,
						"POSITION":1
					},
					"indices":0,
					"material":0
				},
				{
					"attributes":{
						"NORMAL":10,
						"COLOR_0":8,
						"TEXCOORD_0":9,
						"_island":11,
						"POSITION":7
					},
					"indices":6,
					"material":1
				},
				{
					"attributes":{
						"NORMAL":16,
						"COLOR_0":14,
						"TEXCOORD_0":15,
						"_island":17,
						"POSITION":13
					},
					"indices":12,
					"material":2
				}
			]
		}
	],
	"materials":[
		{
			"name":"Material_1",
			"pbrMetallicRoughness":{
				"baseColorFactor":[0.0850000009,0.0850000009,0.0850000009,1
				],
				"metallicFactor":0.00499999989,
				"roughnessFactor":0.65200001
			}
		},
		{
			"name":"Material_1",
			"pbrMetallicRoughness":{
				"roughnessFactor":0.200000003
			}
		},
		{
			"name":"Material_1",
			"pbrMetallicRoughness":{
				"baseColorFactor":[0.074000001,0.074000001,0.074000001,1
				],
				"metallicFactor":0,
				"roughnessFactor":0.433999985
			}
		}
	],
	"scenes":[
		{
			"nodes":[0
			]
		}
	],
	"scene":0
}
