{
	"asset":{
		"version":"2.0",
		"generator":"Houdini GLTF 2.0 Exporter"
	},
	"accessors":[
		{
			"bufferView":0,
			"componentType":5123,
			"count":10872,
			"type":"SCALAR",
			"min":[0
			],
			"max":[10871
			]
		},
		{
			"bufferView":1,
			"componentType":5126,
			"count":10872,
			"type":"VEC3",
			"min":[-25.2607841,-6.77716351,-6.66201973
			],
			"max":[25.2607841,15.6165295,40.8321838
			]
		},
		{
			"bufferView":2,
			"componentType":5126,
			"count":10872,
			"type":"VEC3",
			"min":[-0.999999583,-0.99999404,-0.999715567
			],
			"max":[0.999999583,0.999273002,0.97632134
			]
		},
		{
			"bufferView":3,
			"componentType":5126,
			"count":10872,
			"type":"VEC3",
			"min":[1,1,1
			],
			"max":[1,1,1
			]
		},
		{
			"bufferView":4,
			"componentType":5126,
			"count":10872,
			"type":"VEC2",
			"min":[-2.73454595,-2.20947146
			],
			"max":[3.47056079,5.6930213
			]
		},
		{
			"bufferView":5,
			"componentType":5125,
			"count":10872,
			"type":"SCALAR",
			"min":[589
			],
			"max":[590
			]
		},
		{
			"bufferView":6,
			"componentType":5123,
			"count":1248,
			"type":"SCALAR",
			"min":[0
			],
			"max":[1247
			]
		},
		{
			"bufferView":7,
			"componentType":5126,
			"count":1248,
			"type":"VEC3",
			"min":[-25.1038551,3.59896326,12.7968111
			],
			"max":[25.1038551,6.22430277,15.5186749
			]
		},
		{
			"bufferView":8,
			"componentType":5126,
			"count":1248,
			"type":"VEC3",
			"min":[-0.854465306,-0.988479316,-0.999986827
			],
			"max":[0.854465306,0.988480031,0.999986768
			]
		},
		{
			"bufferView":9,
			"componentType":5126,
			"count":1248,
			"type":"VEC3",
			"min":[1,1,1
			],
			"max":[1,1,1
			]
		},
		{
			"bufferView":10,
			"componentType":5126,
			"count":1248,
			"type":"VEC2",
			"min":[0,1
			],
			"max":[0,1
			]
		},
		{
			"bufferView":11,
			"componentType":5125,
			"count":1248,
			"type":"SCALAR",
			"min":[0
			],
			"max":[0
			]
		}
	],
	"buffers":[
		{
			"uri":"__0__y2lZ4zpThfC2xzew_data.bin",
			"byteLength":606000,
			"name":"main_buffer"
		}
	],
	"bufferViews":[
		{
			"buffer":0,
			"byteLength":21744,
			"target":34963
		},
		{
			"buffer":0,
			"byteOffset":21744,
			"byteLength":130464,
			"target":34962
		},
		{
			"buffer":0,
			"byteOffset":152208,
			"byteLength":130464,
			"target":34962
		},
		{
			"buffer":0,
			"byteOffset":282672,
			"byteLength":130464,
			"target":34962
		},
		{
			"buffer":0,
			"byteOffset":413136,
			"byteLength":86976,
			"target":34962
		},
		{
			"buffer":0,
			"byteOffset":500112,
			"byteLength":43488,
			"target":34962
		},
		{
			"buffer":0,
			"byteOffset":543600,
			"byteLength":2496,
			"target":34963
		},
		{
			"buffer":0,
			"byteOffset":546096,
			"byteLength":14976,
			"target":34962
		},
		{
			"buffer":0,
			"byteOffset":561072,
			"byteLength":14976,
			"target":34962
		},
		{
			"buffer":0,
			"byteOffset":576048,
			"byteLength":14976,
			"target":34962
		},
		{
			"buffer":0,
			"byteOffset":591024,
			"byteLength":9984,
			"target":34962
		},
		{
			"buffer":0,
			"byteOffset":601008,
			"byteLength":4992,
			"target":34962
		}
	],
	"nodes":[
		{
			"name":"geo1",
			"mesh":0
		}
	],
	"meshes":[
		{
			"primitives":[
				{
					"attributes":{
						"TEXCOORD_0":4,
						"COLOR_0":3,
						"NORMAL":2,
						"_island":5,
						"POSITION":1
					},
					"indices":0,
					"material":0
				},
				{
					"attributes":{
						"TEXCOORD_0":10,
						"COLOR_0":9,
						"NORMAL":8,
						"_island":11,
						"POSITION":7
					},
					"indices":6
				}
			]
		}
	],
	"materials":[
		{
			"name":"Material_1",
			"pbrMetallicRoughness":{
				"baseColorFactor":[0.158999994,0.158999994,0.158999994,1
				],
				"metallicFactor":0,
				"roughnessFactor":0.65200001
			}
		}
	],
	"scenes":[
		{
			"nodes":[0
			]
		}
	],
	"scene":0
}
