{
	"asset":{
		"version":"2.0",
		"generator":"Houdini GLTF 2.0 Exporter"
	},
	"accessors":[
		{
			"bufferView":0,
			"componentType":5123,
			"count":396,
			"type":"SCALAR",
			"min":[0
			],
			"max":[395
			]
		},
		{
			"bufferView":1,
			"componentType":5126,
			"count":396,
			"type":"VEC3",
			"min":[-6.88748455,72.4073105,-23.1678772
			],
			"max":[6.88748455,73.7883072,-21.0341568
			]
		},
		{
			"bufferView":2,
			"componentType":5126,
			"count":396,
			"type":"VEC3",
			"min":[0,0,0
			],
			"max":[0,0,0
			]
		},
		{
			"bufferView":3,
			"componentType":5126,
			"count":396,
			"type":"VEC3",
			"min":[1,1,1
			],
			"max":[1,1,1
			]
		},
		{
			"bufferView":4,
			"componentType":5126,
			"count":396,
			"type":"VEC2",
			"min":[0,1
			],
			"max":[0,1
			]
		},
		{
			"bufferView":5,
			"componentType":5125,
			"count":396,
			"type":"SCALAR",
			"min":[0
			],
			"max":[0
			]
		},
		{
			"bufferView":6,
			"componentType":5121,
			"count":96,
			"type":"SCALAR",
			"min":[0
			],
			"max":[95
			]
		},
		{
			"bufferView":7,
			"componentType":5126,
			"count":96,
			"type":"VEC3",
			"min":[-6.58748436,72.8795547,-22.6205444
			],
			"max":[6.58748436,78.2795639,-21.6205444
			]
		},
		{
			"bufferView":8,
			"componentType":5126,
			"count":96,
			"type":"VEC3",
			"min":[0,0,0
			],
			"max":[0,0,0
			]
		},
		{
			"bufferView":9,
			"componentType":5126,
			"count":96,
			"type":"VEC3",
			"min":[1,1,1
			],
			"max":[1,1,1
			]
		},
		{
			"bufferView":10,
			"componentType":5126,
			"count":96,
			"type":"VEC2",
			"min":[0,1
			],
			"max":[0,1
			]
		},
		{
			"bufferView":11,
			"componentType":5125,
			"count":96,
			"type":"SCALAR",
			"min":[0
			],
			"max":[0
			]
		},
		{
			"bufferView":12,
			"componentType":5123,
			"count":12120,
			"type":"SCALAR",
			"min":[0
			],
			"max":[12119
			]
		},
		{
			"bufferView":13,
			"componentType":5126,
			"count":12120,
			"type":"VEC3",
			"min":[-27.7267113,-8.52845955,-21.4183102
			],
			"max":[27.7267113,18.6435585,36.2101212
			]
		},
		{
			"bufferView":14,
			"componentType":5126,
			"count":12120,
			"type":"VEC3",
			"min":[-0.999999642,-0.999993443,-0.999986827
			],
			"max":[0.999999642,0.999260426,0.999986768
			]
		},
		{
			"bufferView":15,
			"componentType":5126,
			"count":12120,
			"type":"VEC3",
			"min":[1,1,1
			],
			"max":[1,1,1
			]
		},
		{
			"bufferView":16,
			"componentType":5126,
			"count":12120,
			"type":"VEC2",
			"min":[-2.73454595,-2.20947146
			],
			"max":[3.47056079,5.6930213
			]
		},
		{
			"bufferView":17,
			"componentType":5125,
			"count":12120,
			"type":"SCALAR",
			"min":[0
			],
			"max":[590
			]
		}
	],
	"buffers":[
		{
			"uri":"__0__kV5gBNvVapDf9HN2_data.bin",
			"byteLength":630504,
			"name":"main_buffer"
		}
	],
	"bufferViews":[
		{
			"buffer":0,
			"byteLength":792,
			"target":34963
		},
		{
			"buffer":0,
			"byteOffset":792,
			"byteLength":4752,
			"target":34962
		},
		{
			"buffer":0,
			"byteOffset":5544,
			"byteLength":4752,
			"target":34962
		},
		{
			"buffer":0,
			"byteOffset":10296,
			"byteLength":4752,
			"target":34962
		},
		{
			"buffer":0,
			"byteOffset":15048,
			"byteLength":3168,
			"target":34962
		},
		{
			"buffer":0,
			"byteOffset":18216,
			"byteLength":1584,
			"target":34962
		},
		{
			"buffer":0,
			"byteOffset":19800,
			"byteLength":96,
			"target":34963
		},
		{
			"buffer":0,
			"byteOffset":19896,
			"byteLength":1152,
			"target":34962
		},
		{
			"buffer":0,
			"byteOffset":21048,
			"byteLength":1152,
			"target":34962
		},
		{
			"buffer":0,
			"byteOffset":22200,
			"byteLength":1152,
			"target":34962
		},
		{
			"buffer":0,
			"byteOffset":23352,
			"byteLength":768,
			"target":34962
		},
		{
			"buffer":0,
			"byteOffset":24120,
			"byteLength":384,
			"target":34962
		},
		{
			"buffer":0,
			"byteOffset":24504,
			"byteLength":24240,
			"target":34963
		},
		{
			"buffer":0,
			"byteOffset":48744,
			"byteLength":145440,
			"target":34962
		},
		{
			"buffer":0,
			"byteOffset":194184,
			"byteLength":145440,
			"target":34962
		},
		{
			"buffer":0,
			"byteOffset":339624,
			"byteLength":145440,
			"target":34962
		},
		{
			"buffer":0,
			"byteOffset":485064,
			"byteLength":96960,
			"target":34962
		},
		{
			"buffer":0,
			"byteOffset":582024,
			"byteLength":48480,
			"target":34962
		}
	],
	"nodes":[
		{
			"name":"geo1",
			"mesh":0
		}
	],
	"meshes":[
		{
			"primitives":[
				{
					"attributes":{
						"TEXCOORD_0":4,
						"COLOR_0":3,
						"NORMAL":2,
						"_island":5,
						"POSITION":1
					},
					"indices":0,
					"material":0
				},
				{
					"attributes":{
						"TEXCOORD_0":10,
						"COLOR_0":9,
						"NORMAL":8,
						"_island":11,
						"POSITION":7
					},
					"indices":6,
					"material":1
				},
				{
					"attributes":{
						"TEXCOORD_0":16,
						"COLOR_0":15,
						"NORMAL":14,
						"_island":17,
						"POSITION":13
					},
					"indices":12,
					"material":2
				}
			]
		}
	],
	"materials":[
		{
			"name":"Material_1",
			"pbrMetallicRoughness":{
				"baseColorFactor":[0.156000003,0.156000003,0.156000003,1
				],
				"metallicFactor":0,
				"roughnessFactor":0.754000008
			}
		},
		{
			"name":"Material_1",
			"pbrMetallicRoughness":{
				"roughnessFactor":0.200000003
			}
		},
		{
			"name":"Material_1",
			"pbrMetallicRoughness":{
				"baseColorFactor":[0.166999996,0.166999996,0.166999996,1
				],
				"metallicFactor":0,
				"roughnessFactor":0.65200001
			}
		}
	],
	"scenes":[
		{
			"nodes":[0
			]
		}
	],
	"scene":0
}
