{
	"asset":{
		"version":"2.0",
		"generator":"Houdini GLTF 2.0 Exporter"
	},
	"accessors":[
		{
			"bufferView":0,
			"componentType":5123,
			"count":396,
			"type":"SCALAR",
			"min":[0
			],
			"max":[395
			]
		},
		{
			"bufferView":1,
			"componentType":5126,
			"count":396,
			"type":"VEC3",
			"min":[-9.45628357,94.3263397,-43.9267044
			],
			"max":[9.45628357,96.163063,-41.0888519
			]
		},
		{
			"bufferView":2,
			"componentType":5126,
			"count":396,
			"type":"VEC3",
			"min":[-0.987228274,0,-0.971603215
			],
			"max":[0.987228274,0.956642568,0.971603215
			]
		},
		{
			"bufferView":3,
			"componentType":5126,
			"count":396,
			"type":"VEC3",
			"min":[1,1,1
			],
			"max":[1,1,1
			]
		},
		{
			"bufferView":4,
			"componentType":5126,
			"count":396,
			"type":"VEC2",
			"min":[0,1
			],
			"max":[0,1
			]
		},
		{
			"bufferView":5,
			"componentType":5125,
			"count":396,
			"type":"SCALAR",
			"min":[0
			],
			"max":[0
			]
		},
		{
			"bufferView":6,
			"componentType":5123,
			"count":12120,
			"type":"SCALAR",
			"min":[0
			],
			"max":[12119
			]
		},
		{
			"bufferView":7,
			"componentType":5126,
			"count":12120,
			"type":"VEC3",
			"min":[-30.2212296,6.29201412,-40.4253616
			],
			"max":[30.2212296,33.464035,17.2030678
			]
		},
		{
			"bufferView":8,
			"componentType":5126,
			"count":12120,
			"type":"VEC3",
			"min":[-0.999999404,-0.999993026,-0.999857724
			],
			"max":[0.999999404,0.99982655,0.999857724
			]
		},
		{
			"bufferView":9,
			"componentType":5126,
			"count":12120,
			"type":"VEC3",
			"min":[1,1,1
			],
			"max":[1,1,1
			]
		},
		{
			"bufferView":10,
			"componentType":5126,
			"count":12120,
			"type":"VEC2",
			"min":[-2.73454595,-2.20947146
			],
			"max":[3.47056079,5.6930213
			]
		},
		{
			"bufferView":11,
			"componentType":5125,
			"count":12120,
			"type":"SCALAR",
			"min":[0
			],
			"max":[590
			]
		}
	],
	"buffers":[
		{
			"uri":"__0__94IM6uUic4SWtIlR_data.bin",
			"byteLength":625800,
			"name":"main_buffer"
		}
	],
	"bufferViews":[
		{
			"buffer":0,
			"byteLength":792,
			"target":34963
		},
		{
			"buffer":0,
			"byteOffset":792,
			"byteLength":4752,
			"target":34962
		},
		{
			"buffer":0,
			"byteOffset":5544,
			"byteLength":4752,
			"target":34962
		},
		{
			"buffer":0,
			"byteOffset":10296,
			"byteLength":4752,
			"target":34962
		},
		{
			"buffer":0,
			"byteOffset":15048,
			"byteLength":3168,
			"target":34962
		},
		{
			"buffer":0,
			"byteOffset":18216,
			"byteLength":1584,
			"target":34962
		},
		{
			"buffer":0,
			"byteOffset":19800,
			"byteLength":24240,
			"target":34963
		},
		{
			"buffer":0,
			"byteOffset":44040,
			"byteLength":145440,
			"target":34962
		},
		{
			"buffer":0,
			"byteOffset":189480,
			"byteLength":145440,
			"target":34962
		},
		{
			"buffer":0,
			"byteOffset":334920,
			"byteLength":145440,
			"target":34962
		},
		{
			"buffer":0,
			"byteOffset":480360,
			"byteLength":96960,
			"target":34962
		},
		{
			"buffer":0,
			"byteOffset":577320,
			"byteLength":48480,
			"target":34962
		}
	],
	"nodes":[
		{
			"name":"geo1",
			"mesh":0
		}
	],
	"meshes":[
		{
			"primitives":[
				{
					"attributes":{
						"TEXCOORD_0":4,
						"COLOR_0":3,
						"NORMAL":2,
						"_island":5,
						"POSITION":1
					},
					"indices":0,
					"material":0
				},
				{
					"attributes":{
						"TEXCOORD_0":10,
						"COLOR_0":9,
						"NORMAL":8,
						"_island":11,
						"POSITION":7
					},
					"indices":6,
					"material":1
				}
			]
		}
	],
	"materials":[
		{
			"name":"Material_1",
			"pbrMetallicRoughness":{
				"baseColorFactor":[0.111000001,0.111000001,0.111000001,1
				],
				"metallicFactor":0,
				"roughnessFactor":0.65200001
			}
		},
		{
			"name":"Material_1",
			"pbrMetallicRoughness":{
				"baseColorFactor":[0.141000003,0.141000003,0.141000003,1
				],
				"metallicFactor":0,
				"roughnessFactor":0.65200001
			}
		}
	],
	"scenes":[
		{
			"nodes":[0
			]
		}
	],
	"scene":0
}
