# File exported by Houdini 17.0.416 (www.sidefx.com)
# 142 points
# 488 vertices
# 122 primitives
# Bounds: [-14.3412189, 49.1140633, -32.0918274] to [14.3212185, 74.3854294, -25.1034851]
g 
v 14.1868515 61.2002716 -28.2899284
v 14.279108 53.8143387 -26.3503323
v 14.2229176 70.0919189 -30.3387184
v 10.7620049 72.4624939 -31.4101467
v 5.24905014 73.9177856 -31.9637947
v 0.00767749688 74.3854294 -32.0918274
v 14.1873722 66.9072342 -29.6194153
v 8.27478123 49.2253342 -26.6509781
v 2.56855726 49.1216202 -27.1312103
v 12.8530407 49.476368 -25.7197437
v 5.27939224 49.151329 -26.9848061
v 10.9881783 49.3361664 -26.2043991
v -2.2605245e-07 49.1140633 -27.1839027
v 14.2272739 57.6871681 -27.3876934
v 14.3212185 49.6342125 -25.2064037
v 14.1789722 64.3012085 -29.0284824
v 14.1957817 68.935585 -30.0787888
v 12.6964502 71.4699249 -30.9384651
v 8.12852764 73.3039322 -31.7499199
v 2.5766058 74.2276154 -32.0577812
v -14.206852 61.2002716 -28.2899284
v -14.2991085 53.8143387 -26.3503323
v -14.242918 70.0919189 -30.3387184
v -10.7820053 72.4624939 -31.4101467
v -5.2690506 73.9177856 -31.9637947
v -14.2073727 66.9072342 -29.6194153
v -8.29478168 49.2253342 -26.6509781
v -2.58855724 49.1216202 -27.1312103
v -12.8730412 49.476368 -25.7197437
v -5.2993927 49.151329 -26.9848061
v -11.0081787 49.3361664 -26.2043991
v -14.2472744 57.6871681 -27.3876934
v -14.3412189 49.6342125 -25.2064037
v -14.1989727 64.3012085 -29.0284824
v -14.2157822 68.935585 -30.0787888
v -12.7164507 71.4699249 -30.9384651
v -8.1485281 73.3039322 -31.7499199
v -2.59660578 74.2276154 -32.0577812
v 8.2352047 49.5837212 -26.427269
v 5.25594091 49.5073586 -26.7551231
v 5.25554895 53.4874992 -27.5992661
v 8.22814655 53.5437546 -27.3239365
v 10.9255381 49.6968422 -25.9895859
v 10.9100161 53.6310539 -26.9489651
v 2.55815268 49.4762878 -26.8985748
v -2.12853356e-05 49.4683685 -26.9504452
v -2.1264399e-05 53.4514122 -27.7665329
v 2.55890989 53.4618034 -27.7212315
v 10.8665905 61.0615234 -28.7647228
v 10.8913975 57.5257034 -27.9144955
v 8.22307587 57.4708939 -28.2147446
v 8.2123785 61.0340729 -29.0025921
v 5.25760126 57.4429016 -28.418911
v 5.25828218 61.0296707 -29.1456184
v 2.56074166 57.4196091 -28.5129395
v 2.5629971 61.0106659 -29.2153072
v -1.90407427e-05 57.3987045 -28.5518188
v 0.000531049329 60.9844322 -29.2482204
v 13.8999109 53.8588829 -26.1653328
v 12.7397919 53.7499466 -26.5277634
v 12.7076664 57.629631 -27.5316677
v 13.8521738 57.7325897 -27.1947727
v 12.6779118 61.150074 -28.4102345
v 13.8152142 61.2462273 -28.0904884
v 12.7628794 49.8380585 -25.5168171
v 13.9363556 49.9667053 -25.1034851
v 13.8257647 66.9560547 -29.4029408
v 13.8118944 64.3482819 -28.8210125
v 12.6624737 64.2786407 -29.1204414
v 12.6537008 67.0044022 -29.7000751
v 10.8341131 64.2163544 -29.4495163
v 10.7974348 67.1347809 -30.0408916
v 10.7599316 69.9556656 -30.6096668
v 12.6440954 69.3124008 -30.1858654
v 10.6097698 72.2476273 -31.0771179
v 12.469203 71.284996 -30.6300907
v 13.8661451 70.0183334 -30.0838985
v 13.8394871 68.9886627 -29.8546162
v 8.19092941 64.1980438 -29.6568184
v 8.16409683 67.2580032 -30.2619896
v 5.25556517 64.1973114 -29.7734756
v 5.25118351 67.3544846 -30.3892536
v 5.24684763 70.9092255 -31.0796585
v 8.13714695 70.5055923 -30.90205
v 5.19121408 73.6834259 -31.6146889
v 8.03242016 73.0762329 -31.4049072
v 2.56596088 64.1885223 -29.8306007
v 2.56929111 67.4056931 -30.4485569
v 0.00217791321 64.175766 -29.8578815
v 0.00437643193 67.4343185 -30.4738197
v 0.0065798494 71.2214966 -31.1890316
v 2.57264113 71.1148529 -31.158947
v 0.00754451798 74.1460266 -31.7411003
v 2.5467844 73.9901428 -31.7073994
v -8.25520515 49.5837212 -26.427269
v -8.24814701 53.5437546 -27.3239365
v -5.27554941 53.4874992 -27.5992661
v -5.27594185 49.5073586 -26.7551231
v -10.9455385 49.6968422 -25.9895859
v -10.9300165 53.6310539 -26.9489651
v -2.57817388 49.4762917 -26.8985767
v -2.57893085 53.4618034 -27.7212315
v -10.886591 61.0615234 -28.7647228
v -8.23237896 61.0340729 -29.0025921
v -8.24307632 57.4708939 -28.2147446
v -10.9113979 57.5257034 -27.9144955
v -5.27760172 57.4429016 -28.418911
v -5.27828264 61.0296707 -29.1456184
v -2.58301473 61.0106659 -29.2153072
v -2.58076072 57.4196129 -28.5129375
v -13.9199114 53.8588829 -26.1653328
v -13.8721743 57.7325897 -27.1947727
v -12.7276669 57.629631 -27.5316677
v -12.7597923 53.7499466 -26.5277634
v -12.6979122 61.150074 -28.4102345
v -13.8352146 61.2462273 -28.0904884
v -12.7828798 49.8380585 -25.5168171
v -13.956356 49.9667053 -25.1034851
v -13.8457651 66.9560547 -29.4029408
v -12.6737013 67.0044022 -29.7000751
v -12.6824741 64.2786407 -29.1204414
v -13.8318949 64.3482819 -28.8210125
v -10.8541136 64.2163544 -29.4495163
v -10.8174353 67.1347809 -30.0408916
v -12.6640959 69.3124008 -30.1858654
v -10.779932 69.9556656 -30.6096668
v -12.4892035 71.284996 -30.6300907
v -10.6297703 72.2476273 -31.0771179
v -13.8594875 68.9886627 -29.8546162
v -13.8861456 70.0183334 -30.0838985
v -8.18409729 67.2580032 -30.2619896
v -8.21092987 64.1980438 -29.6568184
v -5.27556562 64.1973114 -29.7734756
v -5.27118397 67.3544846 -30.3892536
v -8.15714741 70.5055923 -30.90205
v -5.26684809 70.9092255 -31.0796585
v -8.05242062 73.0762329 -31.4049072
v -5.21121454 73.6834259 -31.6146889
v -2.58930373 67.4056931 -30.4485569
v -2.58597708 64.1885223 -29.8305988
v -2.59264827 71.1148529 -31.158947
v -2.56691623 73.9901276 -31.7073956
vt 0.436132789 -0.645367265 0
vt 0.430221677 -0.434306204 0
vt 0.274893165 -0.437068373 0
vt 0.279082656 -0.649837554 0
vt 0.577804208 -0.639971554 0
vt 0.570295453 -0.431116939 0
vt 0.13705492 -0.652189791 0
vt 0.133975983 -0.439160287 0
vt 0.000177025795 -0.440787464 0
vt 0.00240147114 -0.653948426 0
vt 0.5612818 -0.0358995795 0
vt 0.42315948 -0.0363442898 0
vt 0.426250577 -0.225545883 0
vt 0.565317154 -0.224146664 0
vt 0.271899104 -0.226883352 0
vt 0.26968801 -0.0367802382 0
vt 0.129602015 -0.0384896398 0
vt 0.131498516 -0.228788853 0
vt -0.00188732147 -0.230850369 0
vt -0.00364416838 -0.0407784581 0
vt 0.729092956 -0.425804019 0
vt 0.723112464 -0.220356166 0
vt 0.661344171 -0.222140878 0
vt 0.666853189 -0.427931428 0
vt 0.65705502 -0.0342810154 0
vt 0.718565822 -0.0324149728 0
vt 0.674138069 -0.632355928 0
vt 0.733696342 -0.622478962 0
vt 0.713587642 0.272141635 0
vt 0.651161551 0.276451468 0
vt 0.653941274 0.13222295 0
vt 0.715741277 0.133389771 0
vt 0.557587028 0.13134855 0
vt 0.55391562 0.285287678 0
vt 0.648214221 0.397159159 0
vt 0.550796151 0.433569729 0
vt 0.639466405 0.500257432 0
vt 0.543759823 0.554454863 0
vt 0.711091042 0.379159272 0
vt 0.709237456 0.431691945 0
vt 0.417379022 0.292707026 0
vt 0.420227885 0.131135046 0
vt 0.267863035 0.130853951 0
vt 0.266222835 0.297811449 0
vt 0.415085912 0.464214623 0
vt 0.264831901 0.485962451 0
vt 0.409644008 0.600326955 0
vt 0.261316419 0.633105814 0
vt 0.126864731 0.299935281 0
vt 0.128154337 0.129707456 0
vt -0.00509315729 0.128126323 0
vt -0.00650441647 0.300515115 0
vt 0.125563622 0.496402562 0
vt -0.00812190771 0.501018584 0
vt 0.123148978 0.649118841 0
vt -0.00938940048 0.655876696 0
vt -0.433126032 -0.654656947 0
vt -0.275608599 -0.655782878 0
vt -0.275815934 -0.44259423 0
vt -0.431488097 -0.442888975 0
vt -0.575559139 -0.652238548 0
vt -0.572013736 -0.442361951 0
vt -0.133369148 -0.655092597 0
vt -0.13472271 -0.44186607 0
vt -0.570167601 -0.0462032557 0
vt -0.570817411 -0.234828621 0
vt -0.431477249 -0.233670413 0
vt -0.43185246 -0.0441637635 0
vt -0.276901364 -0.232111365 0
vt -0.2782242 -0.0418102145 0
vt -0.136368155 -0.231348515 0
vt -0.138036966 -0.0409517288 0
vt -0.731406033 -0.439803123 0
vt -0.668946505 -0.44090724 0
vt -0.667072058 -0.234548807 0
vt -0.728994489 -0.23385638 0
vt -0.666117489 -0.0462890267 0
vt -0.727760911 -0.0455102324 0
vt -0.673052669 -0.646606326 0
vt -0.733203948 -0.63814801 0
vt -0.728137255 0.259621859 0
vt -0.727857947 0.120599389 0
vt -0.665941298 0.120521367 0
vt -0.66567415 0.265033484 0
vt -0.569434643 0.121340811 0
vt -0.56843859 0.275550663 0
vt -0.567813396 0.424054086 0
vt -0.664786875 0.386024773 0
vt -0.562751234 0.545125544 0
vt -0.657596231 0.48936218 0
vt -0.726514578 0.419617712 0
vt -0.727486253 0.366996229 0
vt -0.431913018 0.123547018 0
vt -0.431885719 0.285317242 0
vt -0.279422939 0.125966728 0
vt -0.280720174 0.293039739 0
vt -0.282566071 0.481282532 0
vt -0.432514995 0.456981957 0
vt -0.281540632 0.628515065 0
vt -0.429352105 0.593239605 0
vt -0.139638543 0.127311766 0
vt -0.141357541 0.297591627 0
vt -0.143450856 0.494100153 0
vt -0.143639982 0.646857798 0
vt 0.4367311 -0.66745019 0
vt 0.279494762 -0.672061563 0
vt 0.137350678 -0.674458385 0
vt 0.00264286995 -0.676242828 0
vt -0.133183956 -0.677383006 0
vt -0.27554065 -0.678054988 0
vt -0.433249474 -0.676827371 0
vt -0.576226175 -0.674203277 0
vt -0.675144136 -0.668068171 0
vt -0.752684593 -0.654288709 0
vt -0.752805591 -0.439617068 0
vt -0.750907302 -0.233654916 0
vt -0.749830782 -0.0454100966 0
vt -0.749955773 0.120640695 0
vt -0.750152528 0.259768307 0
vt -0.749259233 0.367516577 0
vt -0.74696219 0.428446591 0
vt -0.671097755 0.506336033 0
vt -0.572234511 0.564978182 0
vt -0.435733169 0.61443156 0
vt -0.285601348 0.650320709 0
vt -0.145862579 0.668934166 0
vt -0.00956571102 0.678054988 0
vt 0.125007629 0.671225965 0
vt 0.265012026 0.654970229 0
vt 0.415670156 0.621613443 0
vt 0.552916169 0.574449003 0
vt 0.652703404 0.517429292 0
vt 0.729631305 0.440547287 0
vt 0.732735991 0.380090535 0
vt 0.735545158 0.272674024 0
vt 0.737795949 0.133818209 0
vt 0.74059093 -0.031927824 0
vt 0.744974494 -0.219771266 0
vt 0.750461936 -0.425233185 0
vt 0.752805591 -0.63874054 0
vt 0.676763654 -0.653384686 0
vt 0.578953385 -0.661761224 0
vn 0.483345598 0.212305844 0.849295855
vn 0.450773686 0.237462178 0.860473573
vn 0.463180542 0.435588449 0.771833181
vn 0.209919199 0.773633659 0.597850323
vn 0.103345171 0.817248106 0.566943765
vn 0.000292518584 0.826007783 0.563658774
vn 0.522684932 0.18443799 0.832335889
vn -0.0974802151 -0.534210145 0.839712501
vn -0.0270449333 -0.547843218 0.836143851
vn -0.204221249 -0.520764232 0.828913927
vn -0.0590117797 -0.542766631 0.837807775
vn -0.146131843 -0.525034726 0.838441491
vn -5.98063125e-05 -0.549494624 0.83549726
vn 0.466192186 0.228900552 0.854558051
vn 0.12320251 -0.162913039 0.978918016
vn 0.502148092 0.193961009 0.842749357
vn 0.539584756 0.176296398 0.823266685
vn 0.292539686 0.711822271 0.638537109
vn 0.15524295 0.802328527 0.576340854
vn 0.0593823679 0.823844194 0.563697278
vn -0.483345598 0.212305844 0.849295855
vn -0.450773686 0.237462178 0.860473573
vn -0.463180542 0.435588449 0.771833181
vn -0.209919199 0.773633659 0.597850323
vn -0.103345104 0.817247987 0.566943944
vn -0.522684932 0.18443799 0.832335889
vn 0.0974802151 -0.534210145 0.839712441
vn 0.0269856639 -0.547838926 0.8361485
vn 0.204221249 -0.520764232 0.828913927
vn 0.0590123013 -0.542764485 0.837809205
vn 0.146131843 -0.525034726 0.838441491
vn -0.466192186 0.228900552 0.854558051
vn -0.12320251 -0.162913039 0.978918016
vn -0.502148092 0.193961009 0.842749357
vn -0.539584756 0.176296398 0.823266685
vn -0.292539686 0.711822271 0.638537109
vn -0.15524295 0.802328527 0.576340854
vn -0.0590902939 0.823866367 0.56369549
vn -0.122350529 -0.170393124 0.977750778
vn -0.0734582543 -0.180717692 0.980787992
vn -0.0690547526 0.207112446 0.975876987
vn -0.116713539 0.219743907 0.968550742
vn -0.187425688 -0.159507766 0.969241321
vn -0.187913999 0.232121825 0.954362512
vn -0.0334556326 -0.186591119 0.98186779
vn -7.29074382e-05 -0.188349262 0.982102156
vn -7.08653024e-05 0.198539346 0.980092883
vn -0.0319798514 0.200258732 0.979220927
vn -0.145115823 0.218311787 0.96502924
vn -0.164698377 0.230627358 0.959002256
vn -0.0923839733 0.217573196 0.971662045
vn -0.071756646 0.208563805 0.975372791
vn -0.0531046763 0.203212216 0.977693558
vn -0.0392921194 0.198093519 0.97939527
vn -0.0262876824 0.195376724 0.980375946
vn -0.0209679008 0.191886395 0.981193244
vn -6.4104468e-05 0.193473846 0.981105447
vn -5.91126591e-05 0.190088451 0.981766999
vn 0.0734770745 0.258317381 0.963261724
vn -0.275038838 0.238237783 0.931448519
vn -0.254784971 0.235213369 0.937954903
vn 0.0927130431 0.251173228 0.963491797
vn -0.238183454 0.222889557 0.945298254
vn 0.110776365 0.236172557 0.965376139
vn -0.266244382 -0.15340662 0.951619864
vn -0.044623103 -0.0154805575 0.998883903
vn 0.156774759 0.211471006 0.964728892
vn 0.132409677 0.219413891 0.966605008
vn -0.219107226 0.20841983 0.953180552
vn -0.198797271 0.202374712 0.958918154
vn -0.130135745 0.203042284 0.970483661
vn -0.118862994 0.196559504 0.973260462
vn -0.10881982 0.195228681 0.97470212
vn -0.179455742 0.201473936 0.962914228
vn 0.0574071109 0.523188412 0.850281298
vn 0.0660064593 0.493393868 0.867297888
vn 0.251985312 0.379887342 0.890050054
vn 0.178439289 0.206531614 0.962031245
vn -0.0600956082 0.197871104 0.978384078
vn -0.0547589846 0.193316907 0.979607105
vn -0.0312441699 0.193180203 0.980665743
vn -0.0272161346 0.190851167 0.981241643
vn -0.0244668536 0.189689174 0.981539369
vn -0.0511375815 0.191863462 0.980088413
vn 0.0433087647 0.544217587 0.837825477
vn 0.0572125092 0.536906421 0.84169966
vn -0.0165809449 0.189556316 0.981729865
vn -0.012814478 0.188329726 0.982022285
vn -5.26217154e-05 0.188024253 0.982164443
vn -4.11022556e-05 0.187003076 0.982359409
vn -2.57181418e-05 0.186620072 0.982432187
vn -0.00958025642 0.187680572 0.982183456
vn 0.000148646082 0.547654867 0.836704314
vn 0.0277149193 0.547132492 0.836587131
vn 0.122350529 -0.170393124 0.977750778
vn 0.116713539 0.219743907 0.968550742
vn 0.069054842 0.207112342 0.975876987
vn 0.0734586418 -0.18071641 0.980788171
vn 0.187425688 -0.159507766 0.969241381
vn 0.187913999 0.232121825 0.954362512
vn 0.033383172 -0.186588541 0.98187083
vn 0.0319091268 0.200258985 0.979223311
vn 0.145115823 0.218311787 0.96502924
vn 0.071756646 0.208563805 0.975372791
vn 0.0923839733 0.217573196 0.971662045
vn 0.164698377 0.230627358 0.959002256
vn 0.0531045608 0.203212216 0.977693558
vn 0.0392920002 0.198093534 0.97939527
vn 0.0209086854 0.191884443 0.981194794
vn 0.0262234844 0.195376515 0.980377734
vn -0.073477082 0.258317411 0.963261783
vn -0.0927130431 0.251173228 0.963491797
vn 0.254784971 0.235213369 0.937954903
vn 0.275038838 0.238237783 0.931448519
vn 0.238183454 0.222889557 0.945298254
vn -0.110776365 0.236172557 0.965376139
vn 0.266244382 -0.15340662 0.951619864
vn 0.0446231067 -0.0154805509 0.998883903
vn -0.156774759 0.211470991 0.964728892
vn 0.198797271 0.202374712 0.958918154
vn 0.219107226 0.20841983 0.953180552
vn -0.132409677 0.219413891 0.966605008
vn 0.130135745 0.203042284 0.970483661
vn 0.118862994 0.196559504 0.973260462
vn 0.179455742 0.201473936 0.962914228
vn 0.10881982 0.195228681 0.97470212
vn -0.0660064593 0.493393868 0.867297828
vn -0.0574071109 0.523188412 0.850281358
vn -0.17843926 0.206531584 0.962031186
vn -0.251985341 0.379887372 0.890050054
vn 0.0547589846 0.193316907 0.979607105
vn 0.0600956082 0.197871104 0.978384078
vn 0.0312440563 0.193180189 0.980665743
vn 0.0272160899 0.190851256 0.981241584
vn 0.0511375815 0.191863462 0.980088413
vn 0.0244669076 0.189689174 0.981539309
vn -0.0572125092 0.536906421 0.84169966
vn -0.0433086753 0.544217467 0.837825537
vn 0.0127733322 0.188327625 0.982023239
vn 0.0165282208 0.189553291 0.981731296
vn 0.00955459569 0.187679633 0.982183874
vn -0.0275662597 0.547142565 0.836585402
g 
f 39/1/39 42/2/42 41/3/41 40/4/40
f 43/5/43 44/6/44 42/2/42 39/1/39
f 45/7/45 48/8/48 47/9/47 46/10/46
f 40/4/40 41/3/41 48/8/48 45/7/45
f 49/11/49 52/12/52 51/13/51 50/14/50
f 50/14/50 51/13/51 42/2/42 44/6/44
f 51/13/51 53/15/53 41/3/41 42/2/42
f 52/12/52 54/16/54 53/15/53 51/13/51
f 54/16/54 56/17/56 55/18/55 53/15/53
f 53/15/53 55/18/55 48/8/48 41/3/41
f 55/18/55 57/19/57 47/9/47 48/8/48
f 56/17/56 58/20/58 57/19/57 55/18/55
f 59/21/59 62/22/62 61/23/61 60/24/60
f 60/24/60 61/23/61 50/14/50 44/6/44
f 61/23/61 63/25/63 49/11/49 50/14/50
f 62/22/62 64/26/64 63/25/63 61/23/61
f 65/27/65 60/24/60 44/6/44 43/5/43
f 66/28/66 59/21/59 60/24/60 65/27/65
f 67/29/67 70/30/70 69/31/69 68/32/68
f 68/32/68 69/31/69 63/25/63 64/26/64
f 69/31/69 71/33/71 49/11/49 63/25/63
f 70/30/70 72/34/72 71/33/71 69/31/69
f 72/34/72 70/30/70 74/35/74 73/36/73
f 73/36/73 74/35/74 76/37/76 75/38/75
f 74/35/74 78/39/78 77/40/77 76/37/76
f 70/30/70 67/29/67 78/39/78 74/35/74
f 72/34/72 80/41/80 79/42/79 71/33/71
f 71/33/71 79/42/79 52/12/52 49/11/49
f 79/42/79 81/43/81 54/16/54 52/12/52
f 80/41/80 82/44/82 81/43/81 79/42/79
f 82/44/82 80/41/80 84/45/84 83/46/83
f 83/46/83 84/45/84 86/47/86 85/48/85
f 84/45/84 73/36/73 75/38/75 86/47/86
f 80/41/80 72/34/72 73/36/73 84/45/84
f 82/44/82 88/49/88 87/50/87 81/43/81
f 81/43/81 87/50/87 56/17/56 54/16/54
f 87/50/87 89/51/89 58/20/58 56/17/56
f 88/49/88 90/52/90 89/51/89 87/50/87
f 90/52/90 88/49/88 92/53/92 91/54/91
f 91/54/91 92/53/92 94/55/94 93/56/93
f 92/53/92 83/46/83 85/48/85 94/55/94
f 88/49/88 82/44/82 83/46/83 92/53/92
f 95/57/95 98/58/98 97/59/97 96/60/96
f 99/61/99 95/57/95 96/60/96 100/62/100
f 101/63/101 46/10/46 47/9/47 102/64/102
f 98/58/98 101/63/101 102/64/102 97/59/97
f 103/65/103 106/66/106 105/67/105 104/68/104
f 106/66/106 100/62/100 96/60/96 105/67/105
f 105/67/105 96/60/96 97/59/97 107/69/107
f 104/68/104 105/67/105 107/69/107 108/70/108
f 108/70/108 107/69/107 110/71/110 109/72/109
f 107/69/107 97/59/97 102/64/102 110/71/110
f 110/71/110 102/64/102 47/9/47 57/19/57
f 109/72/109 110/71/110 57/19/57 58/20/58
f 111/73/111 114/74/114 113/75/113 112/76/112
f 114/74/114 100/62/100 106/66/106 113/75/113
f 113/75/113 106/66/106 103/65/103 115/77/115
f 112/76/112 113/75/113 115/77/115 116/78/116
f 117/79/117 99/61/99 100/62/100 114/74/114
f 118/80/118 117/79/117 114/74/114 111/73/111
f 119/81/119 122/82/122 121/83/121 120/84/120
f 122/82/122 116/78/116 115/77/115 121/83/121
f 121/83/121 115/77/115 103/65/103 123/85/123
f 120/84/120 121/83/121 123/85/123 124/86/124
f 124/86/124 126/87/126 125/88/125 120/84/120
f 126/87/126 128/89/128 127/90/127 125/88/125
f 125/88/125 127/90/127 130/91/130 129/92/129
f 120/84/120 125/88/125 129/92/129 119/81/119
f 124/86/124 123/85/123 132/93/132 131/94/131
f 123/85/123 103/65/103 104/68/104 132/93/132
f 132/93/132 104/68/104 108/70/108 133/95/133
f 131/94/131 132/93/132 133/95/133 134/96/134
f 134/96/134 136/97/136 135/98/135 131/94/131
f 136/97/136 138/99/138 137/100/137 135/98/135
f 135/98/135 137/100/137 128/89/128 126/87/126
f 131/94/131 135/98/135 126/87/126 124/86/124
f 134/96/134 133/95/133 140/101/140 139/102/139
f 133/95/133 108/70/108 109/72/109 140/101/140
f 140/101/140 109/72/109 58/20/58 89/51/89
f 139/102/139 140/101/140 89/51/89 90/52/90
f 90/52/90 91/54/91 141/103/141 139/102/139
f 91/54/91 93/56/93 142/104/142 141/103/141
f 141/103/141 142/104/142 138/99/138 136/97/136
f 139/102/139 141/103/141 136/97/136 134/96/134
f 8/105/8 39/1/39 40/4/40 11/106/11
f 11/106/11 40/4/40 45/7/45 9/107/9
f 9/107/9 45/7/45 46/10/46 13/108/13
f 13/108/13 46/10/46 101/63/101 28/109/28
f 28/109/28 101/63/101 98/58/98 30/110/30
f 30/110/30 98/58/98 95/57/95 27/111/27
f 27/111/27 95/57/95 99/61/99 31/112/31
f 31/112/31 99/61/99 117/79/117 29/113/29
f 29/113/29 117/79/117 118/80/118 33/114/33
f 33/114/33 118/80/118 111/73/111 22/115/22
f 22/115/22 111/73/111 112/76/112 32/116/32
f 32/116/32 112/76/112 116/78/116 21/117/21
f 21/117/21 116/78/116 122/82/122 34/118/34
f 34/118/34 122/82/122 119/81/119 26/119/26
f 26/119/26 119/81/119 129/92/129 35/120/35
f 35/120/35 129/92/129 130/91/130 23/121/23
f 23/121/23 130/91/130 127/90/127 36/122/36
f 36/122/36 127/90/127 128/89/128 24/123/24
f 24/123/24 128/89/128 137/100/137 37/124/37
f 37/124/37 137/100/137 138/99/138 25/125/25
f 25/125/25 138/99/138 142/104/142 38/126/38
f 38/126/38 142/104/142 93/56/93 6/127/6
f 6/127/6 93/56/93 94/55/94 20/128/20
f 20/128/20 94/55/94 85/48/85 5/129/5
f 5/129/5 85/48/85 86/47/86 19/130/19
f 19/130/19 86/47/86 75/38/75 4/131/4
f 4/131/4 75/38/75 76/37/76 18/132/18
f 18/132/18 76/37/76 77/40/77 3/133/3
f 3/133/3 77/40/77 78/39/78 17/134/17
f 17/134/17 78/39/78 67/29/67 7/135/7
f 7/135/7 67/29/67 68/32/68 16/136/16
f 16/136/16 68/32/68 64/26/64 1/137/1
f 1/137/1 64/26/64 62/22/62 14/138/14
f 14/138/14 62/22/62 59/21/59 2/139/2
f 2/139/2 59/21/59 66/28/66 15/140/15
f 15/140/15 66/28/66 65/27/65 10/141/10
f 10/141/10 65/27/65 43/5/43 12/142/12
f 12/142/12 43/5/43 39/1/39 8/105/8
