{
	"asset":{
		"version":"2.0",
		"generator":"Houdini GLTF 2.0 Exporter"
	},
	"accessors":[
		{
			"bufferView":0,
			"componentType":5123,
			"count":11220,
			"type":"SCALAR",
			"min":[0
			],
			"max":[11219
			]
		},
		{
			"bufferView":1,
			"componentType":5126,
			"count":11220,
			"type":"VEC3",
			"min":[-30.5598164,-0.0974840894,-27.678257
			],
			"max":[30.5590286,27.039444,22.2020702
			]
		},
		{
			"bufferView":2,
			"componentType":5126,
			"count":11220,
			"type":"VEC3",
			"min":[-1,-0.999915659,-0.998691618
			],
			"max":[1,0.999972224,0.999990821
			]
		},
		{
			"bufferView":3,
			"componentType":5126,
			"count":11220,
			"type":"VEC3",
			"min":[1,1,1
			],
			"max":[1,1,1
			]
		},
		{
			"bufferView":4,
			"componentType":5126,
			"count":11220,
			"type":"VEC2",
			"min":[-2.73566246,-2.20953178
			],
			"max":[3.47056723,5.6930213
			]
		},
		{
			"bufferView":5,
			"componentType":5125,
			"count":11220,
			"type":"SCALAR",
			"min":[589
			],
			"max":[590
			]
		},
		{
			"bufferView":6,
			"componentType":5121,
			"count":96,
			"type":"SCALAR",
			"min":[0
			],
			"max":[95
			]
		},
		{
			"bufferView":7,
			"componentType":5126,
			"count":96,
			"type":"VEC3",
			"min":[-8.58746338,80.7411804,-48.2082329
			],
			"max":[8.58750534,85.3587952,-47.2082329
			]
		},
		{
			"bufferView":8,
			"componentType":5126,
			"count":96,
			"type":"VEC3",
			"min":[-1,0,-1
			],
			"max":[1,0,1
			]
		},
		{
			"bufferView":9,
			"componentType":5126,
			"count":96,
			"type":"VEC3",
			"min":[1,1,1
			],
			"max":[1,1,1
			]
		},
		{
			"bufferView":10,
			"componentType":5126,
			"count":96,
			"type":"VEC2",
			"min":[0,1
			],
			"max":[0,1
			]
		},
		{
			"bufferView":11,
			"componentType":5125,
			"count":96,
			"type":"SCALAR",
			"min":[0
			],
			"max":[0
			]
		},
		{
			"bufferView":12,
			"componentType":5123,
			"count":396,
			"type":"SCALAR",
			"min":[0
			],
			"max":[395
			]
		},
		{
			"bufferView":13,
			"componentType":5126,
			"count":396,
			"type":"VEC3",
			"min":[-8.88746357,80.2762756,-48.7750931
			],
			"max":[8.88750553,81.6572723,-46.6413727
			]
		},
		{
			"bufferView":14,
			"componentType":5126,
			"count":396,
			"type":"VEC3",
			"min":[-0.980784714,0,-0.980785131
			],
			"max":[0.980784714,0.965013266,0.980785131
			]
		},
		{
			"bufferView":15,
			"componentType":5126,
			"count":396,
			"type":"VEC3",
			"min":[1,1,1
			],
			"max":[1,1,1
			]
		},
		{
			"bufferView":16,
			"componentType":5126,
			"count":396,
			"type":"VEC2",
			"min":[0,1
			],
			"max":[0,1
			]
		},
		{
			"bufferView":17,
			"componentType":5125,
			"count":396,
			"type":"SCALAR",
			"min":[0
			],
			"max":[0
			]
		}
	],
	"buffers":[
		{
			"uri":"__0__D0opCoBwL91GsSp0_data.bin",
			"byteLength":585504,
			"name":"main_buffer"
		}
	],
	"bufferViews":[
		{
			"buffer":0,
			"byteLength":22440,
			"target":34963
		},
		{
			"buffer":0,
			"byteOffset":22440,
			"byteLength":134640,
			"target":34962
		},
		{
			"buffer":0,
			"byteOffset":157080,
			"byteLength":134640,
			"target":34962
		},
		{
			"buffer":0,
			"byteOffset":291720,
			"byteLength":134640,
			"target":34962
		},
		{
			"buffer":0,
			"byteOffset":426360,
			"byteLength":89760,
			"target":34962
		},
		{
			"buffer":0,
			"byteOffset":516120,
			"byteLength":44880,
			"target":34962
		},
		{
			"buffer":0,
			"byteOffset":561000,
			"byteLength":96,
			"target":34963
		},
		{
			"buffer":0,
			"byteOffset":561096,
			"byteLength":1152,
			"target":34962
		},
		{
			"buffer":0,
			"byteOffset":562248,
			"byteLength":1152,
			"target":34962
		},
		{
			"buffer":0,
			"byteOffset":563400,
			"byteLength":1152,
			"target":34962
		},
		{
			"buffer":0,
			"byteOffset":564552,
			"byteLength":768,
			"target":34962
		},
		{
			"buffer":0,
			"byteOffset":565320,
			"byteLength":384,
			"target":34962
		},
		{
			"buffer":0,
			"byteOffset":565704,
			"byteLength":792,
			"target":34963
		},
		{
			"buffer":0,
			"byteOffset":566496,
			"byteLength":4752,
			"target":34962
		},
		{
			"buffer":0,
			"byteOffset":571248,
			"byteLength":4752,
			"target":34962
		},
		{
			"buffer":0,
			"byteOffset":576000,
			"byteLength":4752,
			"target":34962
		},
		{
			"buffer":0,
			"byteOffset":580752,
			"byteLength":3168,
			"target":34962
		},
		{
			"buffer":0,
			"byteOffset":583920,
			"byteLength":1584,
			"target":34962
		}
	],
	"nodes":[
		{
			"name":"Br",
			"mesh":0
		}
	],
	"meshes":[
		{
			"primitives":[
				{
					"attributes":{
						"TEXCOORD_0":4,
						"COLOR_0":3,
						"NORMAL":2,
						"_island":5,
						"POSITION":1
					},
					"indices":0,
					"material":0
				},
				{
					"attributes":{
						"TEXCOORD_0":10,
						"COLOR_0":9,
						"NORMAL":8,
						"_island":11,
						"POSITION":7
					},
					"indices":6,
					"material":1
				},
				{
					"attributes":{
						"TEXCOORD_0":16,
						"COLOR_0":15,
						"NORMAL":14,
						"_island":17,
						"POSITION":13
					},
					"indices":12,
					"material":2
				}
			]
		}
	],
	"materials":[
		{
			"name":"Material_1",
			"pbrMetallicRoughness":{
				"baseColorFactor":[0.200000003,0.200000003,0.200000003,1
				],
				"metallicFactor":0,
				"roughnessFactor":0.5
			}
		},
		{
			"name":"Material_1",
			"pbrMetallicRoughness":{
				"roughnessFactor":0.200000003
			}
		},
		{
			"name":"Material_2",
			"pbrMetallicRoughness":{
				"baseColorFactor":[0.200000003,0.200000003,0.200000003,1
				],
				"metallicFactor":0,
				"roughnessFactor":0.65200001
			}
		}
	],
	"scenes":[
		{
			"nodes":[0
			]
		}
	],
	"scene":0
}
