# File exported by Houdini 17.0.416 (www.sidefx.com)
# 164 points
# 552 vertices
# 138 primitives
# Bounds: [-11.6654701, 84.9000015, -51.9356804] to [11.6854706, 108.191193, -37.2415314]
g 
v 10.5433359 88.3639984 -38.841774
v 10.1917696 91.8480072 -37.6329422
v 9.89845943 95.4440002 -37.2415314
v 10.7910461 86.1189194 -40.3206711
v 9.60782623 98.9069977 -37.5891113
v 10.9368 84.9000015 -42.3862
v 9.38647842 101.781158 -38.7108192
v 10.9657001 84.9749985 -46.0251007
v 9.17990398 105.12706 -40.2364807
v 10.7379999 85.3740005 -49.5150986
v 10.3287182 89.3320007 -51.9356804
v 10.0790997 92.7160034 -51.6194992
v 9.87930965 96.0149994 -51.0046997
v 8.83134747 107.30661 -42.4317169
v 10.3732986 86.5400238 -51.3859825
v 9.64336967 99.1390076 -50.2949982
v 8.68341255 108.191193 -44.8004684
v 9.40227985 102.143005 -49.4836006
v 8.84412766 107.30925 -46.8029633
v 9.14855003 104.874252 -48.360466
v 8.74151421 107.957626 -43.7170296
v 10.5298882 85.9294052 -50.7193756
v 8.69867897 108.042496 -45.9103622
v 10.8739853 85.4160767 -41.2989349
v -10.5233355 88.3639984 -38.841774
v -10.1717691 91.8480072 -37.6329422
v -9.87845898 95.4440002 -37.2415314
v -10.7710457 86.1189194 -40.3206711
v -9.58782578 98.9069977 -37.5891113
v -10.9167995 84.9000015 -42.3862
v -9.36647797 101.781158 -38.7108192
v -10.9456997 84.9749985 -46.0251007
v -9.15990353 105.12706 -40.2364807
v -10.7179995 85.3740005 -49.5150986
v -10.3087177 89.3320007 -51.9356804
v -10.0590992 92.7160034 -51.6194992
v -9.8593092 96.0149994 -51.0046997
v -8.81134701 107.30661 -42.4317169
v -10.3532982 86.5400238 -51.3859825
v -9.62336922 99.1390076 -50.2949982
v -8.66341209 108.191193 -44.8004684
v -9.3822794 102.143005 -49.4836006
v -8.8241272 107.30925 -46.8029633
v -9.12854958 104.874252 -48.360466
v -8.72151375 107.957626 -43.7170296
v -10.5098877 85.9294052 -50.7193756
v -8.67867851 108.042496 -45.9103622
v -10.8539848 85.4160767 -41.2989349
v 11.6163054 88.704483 -45.5278015
v 11.6854706 88.4874268 -42.0055122
v 11.4233179 92.0808411 -41.5070038
v 11.4391184 92.1963806 -44.9700241
v 11.1539736 95.3981781 -41.087738
v 11.1828737 95.4306183 -44.4429398
v 11.3726225 85.1650162 -42.4143143
v 11.3881054 85.2432556 -46.0191917
v 11.3507967 92.4156647 -48.3761253
v 11.4735126 88.9413452 -48.962677
v 11.1770372 95.6794739 -47.8262444
v 10.8924217 98.5760193 -40.9209976
v 10.9018631 98.4890442 -44.0264282
v 11.1663399 85.642746 -49.4951935
v 10.9202003 98.743042 -47.2035484
v 10.6348305 101.527588 -41.1716003
v 10.6581001 101.176895 -43.7355537
v 10.6236639 101.554749 -46.5053749
v 10.3775578 103.986862 -42.1057205
v 10.4684 103.072495 -43.695816
v 10.3340874 103.929672 -45.724823
v 10.0648365 105.918839 -44.240181
v 9.87285805 104.522263 -47.2873993
v 9.57974148 106.793182 -45.7410622
v 9.31287289 107.238129 -46.6257782
v 9.61472607 104.831497 -48.1809273
v 10.1425123 101.931427 -48.2732506
v 9.86748028 102.121521 -49.2998009
v 10.4064302 99.0042877 -49.0437813
v 10.1086597 99.1303558 -50.111927
v 10.6517591 95.9012756 -49.7168846
v 10.3445644 96.0085602 -50.8213768
v 10.8420124 92.6124573 -50.299221
v 10.5416842 92.7196655 -51.429142
v 11.0394363 89.1759796 -50.7267036
v 10.79249 89.3615875 -51.7407036
v 10.9669628 86.1690598 -50.6554565
v 10.8334894 86.6840439 -51.2194405
v 9.34189606 107.356766 -44.7686386
v 9.21391106 107.8134 -43.8064461
v 9.15189266 108.0112 -44.8161697
v 9.1710453 107.893311 -45.799305
v 9.63570023 106.685913 -43.3200912
v 9.31174469 107.216324 -42.5600128
v 9.97087193 104.604172 -41.1316681
v 9.6626606 105.076019 -40.382103
v 10.2025566 101.693192 -39.8898239
v 9.8608942 101.746902 -38.8654823
v 10.4505949 98.7636414 -39.2315254
v 10.0743399 98.8974457 -37.7759781
v 10.7298002 95.434082 -39.1565018
v 10.3540974 95.4815521 -37.4475212
v 11.0114574 91.9727325 -39.5625458
v 10.6428595 91.9346924 -37.8341599
v 11.3154917 88.4230347 -40.3984222
v 10.9922132 88.4966888 -39.0250626
v 11.3117552 85.6475449 -41.3761063
v 11.2334538 86.3119354 -40.4613609
v -11.5963049 88.704483 -45.5278015
v -11.4191179 92.1963806 -44.9700241
v -11.4033175 92.0808411 -41.5070038
v -11.6654701 88.4874268 -42.0055122
v -11.1628733 95.4306183 -44.4429398
v -11.1339731 95.3981781 -41.087738
v -11.352622 85.1650162 -42.4143143
v -11.3681049 85.2432556 -46.0191917
v -11.3307962 92.4156647 -48.3761253
v -11.4535122 88.9413452 -48.962677
v -11.1570368 95.6794739 -47.8262444
v -10.8818626 98.4890442 -44.0264282
v -10.8724213 98.5760193 -40.9209976
v -11.1463394 85.642746 -49.4951935
v -10.9001999 98.743042 -47.2035484
v -10.6380997 101.176895 -43.7355537
v -10.61483 101.527588 -41.1716003
v -10.6036634 101.554749 -46.5053749
v -10.4483995 103.072495 -43.695816
v -10.3575573 103.986862 -42.1057205
v -10.3140869 103.929672 -45.724823
v -10.044836 105.918839 -44.240181
v -9.85285759 104.522263 -47.2873993
v -9.55974102 106.793182 -45.7410622
v -9.59472561 104.831497 -48.1809273
v -9.29287243 107.238129 -46.6257782
v -10.1225119 101.931427 -48.2732506
v -9.84747982 102.121521 -49.2998009
v -10.3864298 99.0042877 -49.0437813
v -10.0886593 99.1303558 -50.111927
v -10.6317587 95.9012756 -49.7168846
v -10.324564 96.0085602 -50.8213768
v -10.8220119 92.6124573 -50.299221
v -10.5216837 92.7196655 -51.429142
v -11.0194359 89.1759796 -50.7267036
v -10.7724895 89.3615875 -51.7407036
v -10.9469624 86.1690598 -50.6554565
v -10.813489 86.6840439 -51.2194405
v -9.3218956 107.356766 -44.7686386
v -9.15104485 107.893311 -45.799305
v -9.1318922 108.0112 -44.8161697
v -9.1939106 107.8134 -43.8064461
v -9.61569977 106.685913 -43.3200912
v -9.29174423 107.216324 -42.5600128
v -9.95087147 104.604172 -41.1316681
v -9.64266014 105.076019 -40.382103
v -10.1825562 101.693192 -39.8898239
v -9.84089375 101.746902 -38.8654823
v -10.4305944 98.7636414 -39.2315254
v -10.0543394 98.8974457 -37.7759781
v -10.7097998 95.434082 -39.1565018
v -10.3340969 95.4815521 -37.4475212
v -10.991457 91.9727325 -39.5625458
v -10.622859 91.9346924 -37.8341599
v -11.2954912 88.4230347 -40.3984222
v -10.9722128 88.4966888 -39.0250626
v -11.2917547 85.6475449 -41.3761063
v -11.2134533 86.3119354 -40.4613609
vt 0.039131403 -0.596936464 0
vt 0.0262049437 -0.335371494 0
vt -0.230786681 -0.317690372 0
vt -0.217790484 -0.585806131 0
vt 0.0136125088 -0.089972496 0
vt -0.237276673 -0.0663511753 0
vt -0.213026762 -0.831606388 0
vt 0.051492095 -0.855760574 0
vt 0.280116081 -0.347659111 0
vt 0.290545702 -0.605678082 0
vt 0.26875627 -0.0990219116 0
vt 0.00655311346 0.142858744 0
vt -0.224618673 0.172994137 0
vt 0.305685401 -0.843247652 0
vt 0.247311115 0.138358116 0
vt 0.00475370884 0.34646821 0
vt -0.183295488 0.39150238 0
vt 0.213562012 0.356770039 0
vt 0.0137221217 0.486904621 0
vt -0.0970460773 0.564188004 0
vt 0.167340279 0.539099693 0
vt 0.0676548183 0.693272114 0
vt 0.289279342 0.583042383 0
vt 0.180719763 0.757288933 0
vt 0.359424323 0.608141184 0
vt 0.246352047 0.790117025 0
vt 0.354184687 0.380715132 0
vt 0.437024832 0.393116474 0
vt 0.395130277 0.148622036 0
vt 0.482250452 0.152743578 0
vt 0.419074535 -0.0963180065 0
vt 0.507696033 -0.0972602367 0
vt 0.429059744 -0.349692345 0
vt 0.516909361 -0.35272789 0
vt 0.422310591 -0.604118109 0
vt 0.498361588 -0.599257946 0
vt 0.392722249 -0.814618349 0
vt 0.438663125 -0.783607006 0
vt 0.113691881 0.806584597 0
vt 0.18972078 0.840456724 0
vt 0.120224714 0.855612993 0
vt 0.0460615754 0.846566677 0
vt 0.00518798828 0.760904551 0
vt -0.0486477613 0.809611797 0
vt -0.165318936 0.62033391 0
vt -0.217863113 0.663015842 0
vt -0.281493962 0.418369293 0
vt -0.361099899 0.433951616 0
vt -0.35265696 0.203323126 0
vt -0.46346426 0.227705002 0
vt -0.384958863 -0.0463581085 0
vt -0.51634872 -0.028023243 0
vt -0.380015969 -0.310700893 0
vt -0.513344765 -0.300937176 0
vt -0.339125156 -0.580307007 0
vt -0.442640305 -0.567895412 0
vt -0.284719825 -0.790205002 0
vt -0.347286582 -0.735033512 0
vt -0.026403904 -0.585108757 0
vt 0.233831763 -0.567703247 0
vt 0.240326166 -0.298970699 0
vt -0.0176974535 -0.321500301 0
vt 0.2432096 -0.0478925705 0
vt -0.0070797205 -0.0747208595 0
vt 0.234359264 -0.809034824 0
vt -0.0277022123 -0.846134663 0
vt -0.274275422 -0.336997986 0
vt -0.279070377 -0.600870132 0
vt -0.263147235 -0.0855016708 0
vt 0.227881968 0.191002369 0
vt -0.00184088945 0.157565594 0
vt -0.288181186 -0.847509861 0
vt -0.240407467 0.151041746 0
vt 0.18255204 0.406707764 0
vt -0.002209723 0.359052658 0
vt -0.208256304 0.365539312 0
vt 0.0902098119 0.574961901 0
vt -0.0154595971 0.496819735 0
vt -0.167681038 0.543694735 0
vt -0.0758612156 0.694449186 0
vt -0.285949111 0.581839323 0
vt -0.187820792 0.751847506 0
vt -0.253825307 0.781799078 0
vt -0.353760421 0.60148406 0
vt -0.344556391 0.386648893 0
vt -0.423906505 0.397988796 0
vt -0.386093318 0.161865234 0
vt -0.471502066 0.166902781 0
vt -0.414519787 -0.0818252563 0
vt -0.504250526 -0.0811808109 0
vt -0.427290916 -0.340981722 0
vt -0.518849611 -0.344964266 0
vt -0.414449215 -0.604123116 0
vt -0.493649006 -0.604758739 0
vt -0.376758456 -0.821504354 0
vt -0.421776295 -0.790818691 0
vt -0.125160083 0.80194211 0
vt -0.0625850558 0.842424154 0
vt -0.134904921 0.848738909 0
vt -0.201097772 0.832290888 0
vt -0.0184258521 0.762607336 0
vt 0.0294225812 0.811199903 0
vt 0.154825032 0.633829832 0
vt 0.203980148 0.67996335 0
vt 0.279345632 0.436748028 0
vt 0.358944297 0.457130432 0
vt 0.355297446 0.223720074 0
vt 0.46530807 0.249505043 0
vt 0.389921069 -0.0259814262 0
vt 0.520290613 -0.00474786758 0
vt 0.388338327 -0.288499355 0
vt 0.520078301 -0.275036812 0
vt 0.354622006 -0.55901432 0
vt 0.457878351 -0.540720463 0
vt 0.307044983 -0.767302513 0
vt 0.369617581 -0.713062763 0
vt 0.0510662794 -0.892811298 0
vt -0.223599792 -0.867786646 0
vt -0.30511713 -0.821961403 0
vt -0.375578523 -0.759302139 0
vt -0.477737069 -0.582239628 0
vt -0.551383853 -0.305909634 0
vt -0.554525018 -0.0242135525 0
vt -0.499462426 0.240598679 0
vt -0.39378953 0.452486515 0
vt -0.246333867 0.686834335 0
vt -0.0689463317 0.841728687 0
vt 0.036378473 0.882938147 0
vt 0.121934891 0.89281106 0
vt 0.206789881 0.873389959 0
vt 0.274780333 0.81440568 0
vt 0.394348115 0.625151157 0
vt 0.475179493 0.403116226 0
vt 0.521446764 0.157890797 0
vt 0.546509027 -0.0951631069 0
vt 0.554524183 -0.353913307 0
vt 0.534175992 -0.605649948 0
vt 0.468450069 -0.8058424 0
vt 0.40940845 -0.847524166 0
vt 0.312410116 -0.879515648 0
vt 0.245867133 -0.844947815 0
vt -0.0246403217 -0.883486271 0
vt -0.29332757 -0.884768009 0
vt -0.392427087 -0.85495019 0
vt -0.449891329 -0.814368486 0
vt -0.530946493 -0.6143682 0
vt -0.558270693 -0.345330238 0
vt -0.543445826 -0.0769600868 0
vt -0.50957793 0.173824549 0
vt -0.460008681 0.408331871 0
vt -0.387000054 0.616287947 0
vt -0.282992125 0.803540468 0
vt -0.219090551 0.863168478 0
vt -0.138302326 0.884767771 0
vt -0.0546901077 0.877757311 0
vt 0.0462265015 0.842928171 0
vt 0.23030591 0.70601058 0
vt 0.391769469 0.476885796 0
vt 0.501356006 0.262303829 0
vt 0.558270693 -0.000674247742 0
vt 0.55766964 -0.27964592 0
vt 0.4934026 -0.553231239 0
vt 0.3988235 -0.736597538 0
vt 0.327593684 -0.799166203 0
vn 0.442007124 -0.35874331 0.822151363
vn 0.426113725 -0.161255881 0.890181899
vn 0.402850926 0.028624896 0.91481787
vn 0.464690715 -0.584515035 0.665135086
vn 0.362230033 0.243694633 0.899667859
vn 0.519915283 -0.831928134 0.19386518
vn 0.319626659 0.386076868 0.865322769
vn 0.530644536 -0.844478965 -0.0726072267
vn 0.301984847 0.566355467 0.766842008
vn 0.516272664 -0.807863712 -0.284286678
vn 0.386373639 -0.0291806944 -0.921880603
vn 0.372934818 0.152450487 -0.915247858
vn 0.363472819 0.21182479 -0.907203138
vn 0.299471885 0.792103648 0.531872571
vn 0.423115283 -0.405114353 -0.810466349
vn 0.360202789 0.251657575 -0.898288548
vn 0.341666013 0.939366221 0.0292451791
vn 0.360213548 0.327947736 -0.873324871
vn 0.356136918 0.654445171 -0.66698426
vn 0.359154344 0.461940259 -0.810937345
vn 0.323646694 0.900883615 0.289243072
vn 0.464354634 -0.692533553 -0.552061498
vn 0.352631718 0.870515525 -0.343298137
vn 0.481562525 -0.739676356 0.4700813
vn -0.442007124 -0.35874331 0.822151363
vn -0.426113725 -0.161255881 0.890181899
vn -0.402850926 0.028624896 0.91481787
vn -0.464690715 -0.584515035 0.665135086
vn -0.362230033 0.243694633 0.899667859
vn -0.519915283 -0.831928134 0.19386518
vn -0.319626659 0.386076868 0.865322769
vn -0.530644536 -0.844478965 -0.0726072267
vn -0.301984847 0.566355467 0.766842008
vn -0.516272664 -0.807863712 -0.284286678
vn -0.386373639 -0.0291806944 -0.921880603
vn -0.372934818 0.152450487 -0.915247858
vn -0.363472819 0.21182479 -0.907203138
vn -0.299471885 0.792103648 0.531872571
vn -0.423115283 -0.405114353 -0.810466349
vn -0.360202789 0.251657575 -0.898288548
vn -0.341666013 0.939366221 0.0292451791
vn -0.360213548 0.327947736 -0.873324871
vn -0.356136918 0.654445171 -0.66698426
vn -0.359154344 0.461940259 -0.810937345
vn -0.323646694 0.900883615 0.289243072
vn -0.464354634 -0.692533553 -0.552061498
vn -0.352631718 0.870515525 -0.343298137
vn -0.481562525 -0.739676356 0.4700813
vn 0.976787031 -0.113522992 -0.0268519837
vn 0.96154207 -0.125553921 0.120593265
vn 1.01677167 0.0335034765 0.116913103
vn 1.03356278 0.0473116115 -0.0124425851
vn 1.02101886 0.0875688046 0.123998486
vn 1.03887594 0.0940182209 -0.00250826497
vn 0.792512953 -0.449637055 0.149924099
vn 0.804570735 -0.45067364 -0.0463009104
vn 1.01110077 0.0600610971 -0.143518537
vn 0.955474913 -0.097503148 -0.171855703
vn 1.01683486 0.108934753 -0.13214539
vn 1.01255035 0.110824898 0.133263677
vn 1.03288651 0.103547662 0.00402433285
vn 0.786572635 -0.42273137 -0.229000092
vn 1.0120585 0.12197879 -0.125700802
vn 1.0050658 0.141491115 0.131644025
vn 1.02876925 0.116160244 0.00642418023
vn 1.00909233 0.139389038 -0.115659267
vn 0.998388052 0.194435716 0.096801199
vn 1.02486587 0.144328222 0.00482918089
vn 1.00395656 0.182760105 -0.086292319
vn 0.975946665 0.266199499 0.000527515484
vn 0.916388631 0.254066974 -0.247002333
vn 0.895028293 0.356073767 -0.150646493
vn 0.682934225 0.50022614 -0.383315533
vn 0.693732679 0.365329206 -0.508136809
vn 0.919901669 0.191351116 -0.292235672
vn 0.695568323 0.269709885 -0.569442809
vn 0.921711981 0.158790112 -0.310161173
vn 0.696695089 0.212565616 -0.59521383
vn 0.925662518 0.134146765 -0.317715555
vn 0.700642884 0.172110587 -0.605178595
vn 0.921657205 0.0781855583 -0.327668607
vn 0.703281581 0.104693651 -0.612509906
vn 0.87573427 -0.0727967843 -0.358518511
vn 0.688470066 -0.0470873639 -0.623875678
vn 0.72958523 -0.358578652 -0.433191121
vn 0.641576648 -0.266690075 -0.624426901
vn 0.820632339 0.487337589 -0.00791321974
vn 0.631307304 0.673185945 0.157783672
vn 0.571216762 0.753233194 0.00264111278
vn 0.647443652 0.64559114 -0.185349032
vn 0.881301165 0.387823701 0.139762372
vn 0.650435209 0.57297945 0.334138453
vn 0.898760438 0.289559156 0.25395301
vn 0.658992231 0.431942642 0.49107185
vn 0.908230543 0.203683645 0.308576763
vn 0.67238903 0.300480902 0.572953284
vn 0.922377527 0.139243886 0.315465868
vn 0.697619975 0.187732056 0.59674716
vn 0.936629474 0.0802957267 0.30526492
vn 0.722878218 0.0621419288 0.595378995
vn 0.93684411 0.00213732081 0.296718776
vn 0.734916031 -0.0681213662 0.578229785
vn 0.891936958 -0.151744097 0.303127199
vn 0.721961498 -0.228199393 0.550776839
vn 0.746279538 -0.425664276 0.354074389
vn 0.672383547 -0.40715763 0.522738576
vn -0.976787031 -0.113522992 -0.0268519837
vn -1.03356278 0.0473116115 -0.0124425851
vn -1.01677167 0.0335034765 0.116913103
vn -0.96154207 -0.125553921 0.120593265
vn -1.03887594 0.0940182209 -0.0025082659
vn -1.02101886 0.0875688046 0.123998486
vn -0.792512953 -0.449637055 0.149924099
vn -0.804570735 -0.45067364 -0.0463009067
vn -1.01110077 0.0600610971 -0.143518537
vn -0.955474913 -0.097503148 -0.171855703
vn -1.01683486 0.108934753 -0.13214539
vn -1.03288651 0.103547662 0.00402433239
vn -1.01255035 0.110824898 0.133263677
vn -0.786572635 -0.42273137 -0.229000092
vn -1.0120585 0.12197879 -0.125700802
vn -1.02876925 0.116160244 0.0064241807
vn -1.0050658 0.141491115 0.131644025
vn -1.00909233 0.139389038 -0.115659267
vn -1.02486587 0.144328222 0.00482918136
vn -0.998388052 0.194435716 0.096801199
vn -1.00395656 0.182760105 -0.086292319
vn -0.975946665 0.266199499 0.00052751461
vn -0.916388631 0.254066974 -0.247002333
vn -0.895028293 0.356073767 -0.150646493
vn -0.693732679 0.365329206 -0.508136868
vn -0.682934225 0.50022614 -0.383315533
vn -0.919901669 0.191351116 -0.292235672
vn -0.695568323 0.269709885 -0.569442809
vn -0.921711981 0.158790112 -0.310161173
vn -0.696695089 0.212565616 -0.59521383
vn -0.925662518 0.134146765 -0.317715555
vn -0.700642884 0.172110587 -0.605178595
vn -0.921657205 0.0781855583 -0.327668607
vn -0.703281581 0.104693651 -0.612509906
vn -0.87573427 -0.0727967843 -0.358518511
vn -0.688470066 -0.0470873639 -0.623875678
vn -0.72958523 -0.358578652 -0.433191121
vn -0.641576648 -0.266690075 -0.624426901
vn -0.820632339 0.487337589 -0.00791322347
vn -0.647443652 0.64559114 -0.185349032
vn -0.571216762 0.753233194 0.00264110859
vn -0.631307304 0.673185945 0.157783672
vn -0.881301165 0.387823701 0.139762372
vn -0.650435209 0.57297945 0.334138453
vn -0.898760438 0.289559156 0.25395301
vn -0.658992231 0.431942642 0.49107185
vn -0.908230603 0.203683645 0.308576763
vn -0.67238903 0.300480902 0.572953284
vn -0.922377527 0.139243886 0.315465838
vn -0.697619975 0.187732056 0.59674716
vn -0.936629474 0.0802957267 0.30526492
vn -0.722878218 0.0621419325 0.595378935
vn -0.93684411 0.00213732151 0.296718776
vn -0.734916031 -0.0681213662 0.578229785
vn -0.891936958 -0.151744097 0.303127199
vn -0.721961498 -0.228199393 0.550776839
vn -0.746279538 -0.425664276 0.354074389
vn -0.672383547 -0.40715763 0.522738576
g 
f 49/1/49 52/2/52 51/3/51 50/4/50
f 51/3/51 52/2/52 54/5/54 53/6/53
f 55/7/55 56/8/56 49/1/49 50/4/50
f 57/9/57 52/2/52 49/1/49 58/10/58
f 54/5/54 52/2/52 57/9/57 59/11/59
f 54/5/54 61/12/61 60/13/60 53/6/53
f 49/1/49 56/8/56 62/14/62 58/10/58
f 63/15/63 61/12/61 54/5/54 59/11/59
f 60/13/60 61/12/61 65/16/65 64/17/64
f 65/16/65 61/12/61 63/15/63 66/18/66
f 65/16/65 68/19/68 67/20/67 64/17/64
f 69/21/69 68/19/68 65/16/65 66/18/66
f 67/20/67 68/19/68 69/21/69 70/22/70
f 71/23/71 72/24/72 70/22/70 69/21/69
f 72/24/72 71/23/71 74/25/74 73/26/73
f 75/27/75 71/23/71 69/21/69 66/18/66
f 71/23/71 75/27/75 76/28/76 74/25/74
f 77/29/77 75/27/75 66/18/66 63/15/63
f 75/27/75 77/29/77 78/30/78 76/28/76
f 79/31/79 77/29/77 63/15/63 59/11/59
f 77/29/77 79/31/79 80/32/80 78/30/78
f 81/33/81 79/31/79 59/11/59 57/9/57
f 79/31/79 81/33/81 82/34/82 80/32/80
f 83/35/83 81/33/81 57/9/57 58/10/58
f 81/33/81 83/35/83 84/36/84 82/34/82
f 85/37/85 83/35/83 58/10/58 62/14/62
f 83/35/83 85/37/85 86/38/86 84/36/84
f 87/39/87 90/40/90 89/41/89 88/42/88
f 90/40/90 87/39/87 72/24/72 73/26/73
f 91/43/91 87/39/87 88/42/88 92/44/92
f 87/39/87 91/43/91 70/22/70 72/24/72
f 93/45/93 91/43/91 92/44/92 94/46/94
f 91/43/91 93/45/93 67/20/67 70/22/70
f 95/47/95 93/45/93 94/46/94 96/48/96
f 93/45/93 95/47/95 64/17/64 67/20/67
f 97/49/97 95/47/95 96/48/96 98/50/98
f 95/47/95 97/49/97 60/13/60 64/17/64
f 99/51/99 97/49/97 98/50/98 100/52/100
f 97/49/97 99/51/99 53/6/53 60/13/60
f 101/53/101 99/51/99 100/52/100 102/54/102
f 99/51/99 101/53/101 51/3/51 53/6/53
f 103/55/103 101/53/101 102/54/102 104/56/104
f 101/53/101 103/55/103 50/4/50 51/3/51
f 105/57/105 103/55/103 104/56/104 106/58/106
f 103/55/103 105/57/105 55/7/55 50/4/50
f 107/59/107 110/60/110 109/61/109 108/62/108
f 109/61/109 112/63/112 111/64/111 108/62/108
f 113/65/113 110/60/110 107/59/107 114/66/114
f 115/67/115 116/68/116 107/59/107 108/62/108
f 111/64/111 117/69/117 115/67/115 108/62/108
f 111/64/111 112/63/112 119/70/119 118/71/118
f 107/59/107 116/68/116 120/72/120 114/66/114
f 121/73/121 117/69/117 111/64/111 118/71/118
f 119/70/119 123/74/123 122/75/122 118/71/118
f 122/75/122 124/76/124 121/73/121 118/71/118
f 122/75/122 123/74/123 126/77/126 125/78/125
f 127/79/127 124/76/124 122/75/122 125/78/125
f 126/77/126 128/80/128 127/79/127 125/78/125
f 129/81/129 127/79/127 128/80/128 130/82/130
f 130/82/130 132/83/132 131/84/131 129/81/129
f 133/85/133 124/76/124 127/79/127 129/81/129
f 129/81/129 131/84/131 134/86/134 133/85/133
f 135/87/135 121/73/121 124/76/124 133/85/133
f 133/85/133 134/86/134 136/88/136 135/87/135
f 137/89/137 117/69/117 121/73/121 135/87/135
f 135/87/135 136/88/136 138/90/138 137/89/137
f 139/91/139 115/67/115 117/69/117 137/89/137
f 137/89/137 138/90/138 140/92/140 139/91/139
f 141/93/141 116/68/116 115/67/115 139/91/139
f 139/91/139 140/92/140 142/94/142 141/93/141
f 143/95/143 120/72/120 116/68/116 141/93/141
f 141/93/141 142/94/142 144/96/144 143/95/143
f 145/97/145 148/98/148 147/99/147 146/100/146
f 146/100/146 132/83/132 130/82/130 145/97/145
f 149/101/149 150/102/150 148/98/148 145/97/145
f 145/97/145 130/82/130 128/80/128 149/101/149
f 151/103/151 152/104/152 150/102/150 149/101/149
f 149/101/149 128/80/128 126/77/126 151/103/151
f 153/105/153 154/106/154 152/104/152 151/103/151
f 151/103/151 126/77/126 123/74/123 153/105/153
f 155/107/155 156/108/156 154/106/154 153/105/153
f 153/105/153 123/74/123 119/70/119 155/107/155
f 157/109/157 158/110/158 156/108/156 155/107/155
f 155/107/155 119/70/119 112/63/112 157/109/157
f 159/111/159 160/112/160 158/110/158 157/109/157
f 157/109/157 112/63/112 109/61/109 159/111/159
f 161/113/161 162/114/162 160/112/160 159/111/159
f 159/111/159 109/61/109 110/60/110 161/113/161
f 163/115/163 164/116/164 162/114/162 161/113/161
f 161/113/161 110/60/110 113/65/113 163/115/163
f 8/117/8 56/8/56 55/7/55 6/118/6
f 6/118/6 55/7/55 105/57/105 24/119/24
f 24/119/24 105/57/105 106/58/106 4/120/4
f 4/120/4 106/58/106 104/56/104 1/121/1
f 1/121/1 104/56/104 102/54/102 2/122/2
f 2/122/2 102/54/102 100/52/100 3/123/3
f 3/123/3 100/52/100 98/50/98 5/124/5
f 5/124/5 98/50/98 96/48/96 7/125/7
f 7/125/7 96/48/96 94/46/94 9/126/9
f 9/126/9 94/46/94 92/44/92 14/127/14
f 14/127/14 92/44/92 88/42/88 21/128/21
f 21/128/21 88/42/88 89/41/89 17/129/17
f 17/129/17 89/41/89 90/40/90 23/130/23
f 23/130/23 90/40/90 73/26/73 19/131/19
f 19/131/19 73/26/73 74/25/74 20/132/20
f 20/132/20 74/25/74 76/28/76 18/133/18
f 18/133/18 76/28/76 78/30/78 16/134/16
f 16/134/16 78/30/78 80/32/80 13/135/13
f 13/135/13 80/32/80 82/34/82 12/136/12
f 12/136/12 82/34/82 84/36/84 11/137/11
f 11/137/11 84/36/84 86/38/86 15/138/15
f 15/138/15 86/38/86 85/37/85 22/139/22
f 22/139/22 85/37/85 62/14/62 10/140/10
f 10/140/10 62/14/62 56/8/56 8/117/8
f 30/141/30 113/65/113 114/66/114 32/142/32
f 32/142/32 114/66/114 120/72/120 34/143/34
f 34/143/34 120/72/120 143/95/143 46/144/46
f 46/144/46 143/95/143 144/96/144 39/145/39
f 39/145/39 144/96/144 142/94/142 35/146/35
f 35/146/35 142/94/142 140/92/140 36/147/36
f 36/147/36 140/92/140 138/90/138 37/148/37
f 37/148/37 138/90/138 136/88/136 40/149/40
f 40/149/40 136/88/136 134/86/134 42/150/42
f 42/150/42 134/86/134 131/84/131 44/151/44
f 44/151/44 131/84/131 132/83/132 43/152/43
f 43/152/43 132/83/132 146/100/146 47/153/47
f 47/153/47 146/100/146 147/99/147 41/154/41
f 41/154/41 147/99/147 148/98/148 45/155/45
f 45/155/45 148/98/148 150/102/150 38/156/38
f 38/156/38 150/102/150 152/104/152 33/157/33
f 33/157/33 152/104/152 154/106/154 31/158/31
f 31/158/31 154/106/154 156/108/156 29/159/29
f 29/159/29 156/108/156 158/110/158 27/160/27
f 27/160/27 158/110/158 160/112/160 26/161/26
f 26/161/26 160/112/160 162/114/162 25/162/25
f 25/162/25 162/114/162 164/116/164 28/163/28
f 28/163/28 164/116/164 163/115/163 48/164/48
f 48/164/48 163/115/163 113/65/113 30/141/30
