{
	"asset":{
		"version":"2.0",
		"generator":"Houdini GLTF 2.0 Exporter"
	},
	"accessors":[
		{
			"bufferView":0,
			"componentType":5125,
			"count":36756,
			"type":"SCALAR",
			"min":[0
			],
			"max":[36755
			]
		},
		{
			"bufferView":1,
			"componentType":5126,
			"count":36756,
			"type":"VEC3",
			"min":[-77.627533,-15.8958893,-139.979553
			],
			"max":[77.2922516,27.844183,28.670332
			]
		},
		{
			"bufferView":2,
			"componentType":5126,
			"count":36756,
			"type":"VEC3",
			"min":[-0.999999583,-0.999993563,-0.999986827
			],
			"max":[0.999999583,0.99926281,0.999986768
			]
		},
		{
			"bufferView":3,
			"componentType":5126,
			"count":36756,
			"type":"VEC3",
			"min":[1,1,1
			],
			"max":[1,1,1
			]
		},
		{
			"bufferView":4,
			"componentType":5126,
			"count":36756,
			"type":"VEC2",
			"min":[-7.04850006,-2.23770165
			],
			"max":[3.47056079,5.6930213
			]
		},
		{
			"bufferView":5,
			"componentType":5125,
			"count":36756,
			"type":"SCALAR",
			"min":[0
			],
			"max":[590
			]
		}
	],
	"buffers":[
		{
			"uri":"__0__V1iOuoqy7QkN85JL_data.bin",
			"byteLength":1911312,
			"name":"main_buffer"
		}
	],
	"bufferViews":[
		{
			"buffer":0,
			"byteLength":147024,
			"target":34963
		},
		{
			"buffer":0,
			"byteOffset":147024,
			"byteLength":441072,
			"target":34962
		},
		{
			"buffer":0,
			"byteOffset":588096,
			"byteLength":441072,
			"target":34962
		},
		{
			"buffer":0,
			"byteOffset":1029168,
			"byteLength":441072,
			"target":34962
		},
		{
			"buffer":0,
			"byteOffset":1470240,
			"byteLength":294048,
			"target":34962
		},
		{
			"buffer":0,
			"byteOffset":1764288,
			"byteLength":147024,
			"target":34962
		}
	],
	"nodes":[
		{
			"name":"geo1",
			"mesh":0
		}
	],
	"meshes":[
		{
			"primitives":[
				{
					"attributes":{
						"TEXCOORD_0":4,
						"COLOR_0":3,
						"NORMAL":2,
						"_island":5,
						"POSITION":1
					},
					"indices":0,
					"material":0
				}
			]
		}
	],
	"materials":[
		{
			"name":"Material_1",
			"pbrMetallicRoughness":{
				"baseColorFactor":[0.488000005,0.488000005,0.488000005,1
				],
				"metallicFactor":0,
				"roughnessFactor":0.65200001
			}
		}
	],
	"scenes":[
		{
			"nodes":[0
			]
		}
	],
	"scene":0
}
